<svg width="201" height="27" viewBox="0 0 201 27" fill="none" xmlns="http://www.w3.org/2000/svg">
<path d="M124.109 3.96043C123.879 3.78043 123.519 3.69043 123.039 3.69043C122.789 3.69043 122.559 3.71043 122.339 3.76043C122.119 3.81043 121.959 3.85043 121.839 3.88043V18.9504C121.839 19.3804 121.959 19.6904 122.189 19.8704C122.419 20.0504 122.779 20.1404 123.259 20.1404C123.509 20.1404 123.739 20.1204 123.939 20.0804C124.149 20.0404 124.319 19.9904 124.449 19.9404V4.88043C124.449 4.45043 124.339 4.14043 124.109 3.96043Z" fill="#257972"/>
<path d="M136.029 9.03051C135.119 8.36051 133.889 8.02051 132.349 8.02051C131.689 8.02051 131.059 8.07051 130.459 8.18051C129.859 8.29051 129.329 8.46051 128.869 8.69051C128.569 8.82051 128.349 8.98051 128.209 9.16051C128.069 9.34051 127.999 9.57051 127.999 9.86051C127.999 10.0905 128.059 10.3005 128.169 10.4905C128.289 10.6805 128.429 10.8405 128.589 10.9705C129.069 10.7405 129.619 10.5305 130.229 10.3505C130.839 10.1705 131.479 10.0805 132.139 10.0805C132.979 10.0805 133.639 10.2505 134.109 10.5805C134.579 10.9105 134.819 11.4405 134.819 12.1705V12.7205L131.369 13.0705C130.049 13.2005 129.029 13.5605 128.329 14.1405C127.629 14.7205 127.269 15.5605 127.269 16.6505C127.269 17.8805 127.719 18.8005 128.619 19.4305C129.519 20.0605 130.779 20.3705 132.379 20.3705C133.269 20.3705 134.059 20.2805 134.739 20.1005C135.419 19.9205 135.969 19.7005 136.399 19.4505C136.699 19.2705 136.929 19.0705 137.109 18.8705C137.279 18.6605 137.369 18.3705 137.369 17.9905V12.2005C137.389 10.7605 136.939 9.71051 136.029 9.03051ZM134.829 17.7905C134.649 17.9205 134.339 18.0505 133.909 18.1605C133.479 18.2805 132.969 18.3305 132.399 18.3305C131.519 18.3305 130.879 18.1805 130.459 17.8705C130.049 17.5605 129.839 17.1405 129.839 16.5905C129.839 16.0605 130.029 15.6705 130.409 15.4105C130.789 15.1505 131.359 14.9805 132.119 14.9005L134.829 14.6305V17.7905Z" fill="#257972"/>
<path d="M148.489 14.51C147.889 13.95 146.969 13.5 145.709 13.17L144.269 12.8C143.719 12.67 143.339 12.49 143.119 12.28C142.899 12.07 142.779 11.79 142.779 11.46C142.779 11.03 142.979 10.69 143.379 10.45C143.779 10.21 144.319 10.09 145.019 10.09C145.699 10.09 146.329 10.2 146.919 10.41C147.509 10.63 147.949 10.82 148.249 11.01C148.429 10.89 148.579 10.74 148.699 10.55C148.819 10.36 148.869 10.13 148.869 9.87004C148.869 9.61004 148.769 9.36004 148.569 9.13004C148.369 8.90004 148.089 8.70004 147.739 8.55004C147.379 8.39004 146.959 8.27004 146.469 8.18004C145.979 8.09004 145.439 8.04004 144.839 8.04004C144.099 8.04004 143.429 8.13004 142.849 8.30004C142.269 8.47004 141.789 8.71004 141.399 9.02004C141.009 9.33004 140.719 9.69004 140.519 10.11C140.319 10.53 140.219 10.98 140.219 11.46C140.219 12.35 140.479 13.06 141.009 13.57C141.539 14.08 142.369 14.49 143.489 14.79L145.179 15.24C145.709 15.37 146.109 15.56 146.379 15.81C146.649 16.06 146.789 16.39 146.789 16.8C146.789 17.28 146.589 17.65 146.189 17.91C145.789 18.17 145.219 18.29 144.479 18.29C143.689 18.29 142.989 18.17 142.389 17.92C141.789 17.67 141.259 17.4 140.799 17.1C140.579 17.23 140.419 17.41 140.289 17.62C140.169 17.84 140.099 18.07 140.099 18.32C140.099 18.62 140.209 18.89 140.419 19.14C140.629 19.39 140.939 19.6 141.329 19.79C141.719 19.97 142.189 20.11 142.729 20.21C143.279 20.31 143.869 20.36 144.519 20.36C146.089 20.36 147.289 20.05 148.119 19.42C148.949 18.79 149.359 17.92 149.359 16.81C149.389 15.83 149.089 15.07 148.489 14.51Z" fill="#257972"/>
<path d="M159.889 14.51C159.289 13.95 158.369 13.5 157.109 13.17L155.669 12.8C155.119 12.67 154.739 12.49 154.519 12.28C154.299 12.07 154.179 11.79 154.179 11.46C154.179 11.03 154.379 10.69 154.779 10.45C155.179 10.21 155.719 10.09 156.419 10.09C157.099 10.09 157.729 10.2 158.319 10.41C158.909 10.63 159.349 10.82 159.649 11.01C159.829 10.89 159.979 10.74 160.099 10.55C160.219 10.36 160.269 10.13 160.269 9.87004C160.269 9.61004 160.169 9.36004 159.969 9.13004C159.769 8.90004 159.489 8.70004 159.139 8.55004C158.779 8.39004 158.359 8.27004 157.869 8.18004C157.379 8.09004 156.839 8.04004 156.239 8.04004C155.499 8.04004 154.829 8.13004 154.249 8.30004C153.669 8.47004 153.189 8.71004 152.799 9.02004C152.409 9.33004 152.119 9.69004 151.919 10.11C151.719 10.53 151.619 10.98 151.619 11.46C151.619 12.35 151.879 13.06 152.409 13.57C152.939 14.08 153.769 14.49 154.889 14.79L156.579 15.24C157.109 15.37 157.509 15.56 157.779 15.81C158.049 16.06 158.189 16.39 158.189 16.8C158.189 17.28 157.989 17.65 157.589 17.91C157.189 18.17 156.619 18.29 155.879 18.29C155.089 18.29 154.389 18.17 153.789 17.92C153.189 17.67 152.659 17.4 152.199 17.1C151.979 17.23 151.819 17.41 151.689 17.62C151.569 17.84 151.499 18.07 151.499 18.32C151.499 18.62 151.609 18.89 151.819 19.14C152.029 19.39 152.339 19.6 152.729 19.79C153.119 19.97 153.589 20.11 154.129 20.21C154.679 20.31 155.269 20.36 155.919 20.36C157.489 20.36 158.689 20.05 159.519 19.42C160.349 18.79 160.759 17.92 160.759 16.81C160.779 15.83 160.489 15.07 159.889 14.51Z" fill="#257972"/>
<path d="M173.979 3.4001C173.549 3.2901 172.999 3.2801 172.349 3.3601C171.989 3.4001 171.639 3.4701 171.319 3.5601C170.729 3.7301 170.229 3.9801 169.819 4.3301C169.409 4.6801 169.089 5.1201 168.859 5.6701C168.639 6.2201 168.519 6.8701 168.519 7.6301V9.1001H166.659C166.589 9.2001 166.529 9.3401 166.469 9.5101C166.409 9.6801 166.379 9.8901 166.379 10.1201C166.379 10.8201 166.689 11.1601 167.319 11.1601H168.509V18.9601C168.509 19.3901 168.629 19.7001 168.859 19.8801C169.089 20.0601 169.449 20.1501 169.929 20.1501C170.179 20.1501 170.409 20.1301 170.609 20.0901C170.819 20.0501 170.979 20.0001 171.089 19.9501V11.1601H173.909C174.539 11.1601 174.849 10.8101 174.849 10.1201C174.849 9.8901 174.819 9.6901 174.759 9.5101C174.699 9.3401 174.639 9.2001 174.569 9.1001H171.329H171.009V7.7301C171.009 6.9001 171.209 6.3101 171.609 5.9401C171.879 5.7001 172.259 5.5301 172.769 5.4501C173.049 5.4201 173.319 5.4001 173.599 5.4101C174.039 5.4201 174.429 5.4601 174.779 5.5201C174.879 5.3601 174.959 5.1801 175.019 4.9801C175.069 4.7801 175.079 4.5701 175.029 4.3401C174.949 3.8601 174.589 3.5501 173.979 3.4001Z" fill="#257972"/>
<path d="M187.169 8.50047C186.939 8.32047 186.579 8.23047 186.099 8.23047C185.849 8.23047 185.619 8.25047 185.419 8.29047C185.209 8.33047 185.039 8.37047 184.909 8.40047V17.6905C184.679 17.8205 184.359 17.9505 183.969 18.0605C183.569 18.1805 183.079 18.2305 182.499 18.2305C181.609 18.2305 180.909 18.0305 180.399 17.6205C179.889 17.2105 179.639 16.5305 179.639 15.5705V9.44047C179.639 8.99047 179.529 8.68047 179.299 8.50047C179.079 8.32047 178.719 8.23047 178.239 8.23047C177.989 8.23047 177.759 8.25047 177.539 8.29047C177.319 8.33047 177.159 8.37047 177.039 8.40047V15.6305C177.039 17.2705 177.519 18.4705 178.469 19.2205C179.419 19.9705 180.749 20.3505 182.459 20.3505C183.399 20.3505 184.229 20.2505 184.929 20.0505C185.629 19.8505 186.199 19.6305 186.629 19.3805C186.979 19.1705 187.209 18.9405 187.329 18.7105C187.449 18.4805 187.499 18.1805 187.499 17.8205V9.44047C187.519 9.00047 187.399 8.68047 187.169 8.50047Z" fill="#257972"/>
<path d="M193.379 3.96043C193.149 3.78043 192.789 3.69043 192.309 3.69043C192.059 3.69043 191.829 3.71043 191.609 3.76043C191.389 3.81043 191.229 3.85043 191.109 3.88043V18.9504C191.109 19.3804 191.229 19.6904 191.459 19.8704C191.689 20.0504 192.049 20.1404 192.529 20.1404C192.779 20.1404 193.009 20.1204 193.209 20.0804C193.419 20.0404 193.589 19.9904 193.719 19.9404V4.88043C193.719 4.45043 193.609 4.14043 193.379 3.96043Z" fill="#257972"/>
<path d="M199.779 3.96043C199.549 3.78043 199.189 3.69043 198.709 3.69043C198.459 3.69043 198.229 3.71043 198.009 3.76043C197.789 3.81043 197.629 3.85043 197.509 3.88043V18.9504C197.509 19.3804 197.629 19.6904 197.859 19.8704C198.089 20.0504 198.449 20.1404 198.929 20.1404C199.179 20.1404 199.409 20.1204 199.609 20.0804C199.819 20.0404 199.989 19.9904 200.119 19.9404V4.88043C200.129 4.45043 200.009 4.14043 199.779 3.96043Z" fill="#257972"/>
<path d="M117.249 7.63965C116.579 7.63965 116.239 7.92965 116.209 8.50965C116.049 8.44965 115.879 8.38965 115.699 8.33965C115.009 8.12965 114.259 8.02965 113.449 8.02965C112.569 8.02965 111.769 8.14965 111.049 8.39965C110.329 8.64965 109.709 9.01965 109.189 9.50965C108.669 9.99965 108.259 10.5996 107.969 11.3196C107.679 12.0396 107.539 12.8796 107.539 13.8396C107.539 14.8996 107.679 15.7896 107.969 16.5196C108.259 17.2496 108.649 17.8396 109.149 18.2996C109.649 18.7596 110.219 19.0897 110.879 19.2896C111.529 19.4997 112.219 19.5996 112.949 19.5996C113.579 19.5996 114.119 19.5296 114.579 19.3996C115.039 19.2696 115.419 19.0996 115.729 18.8996V20.1896C115.729 21.1296 115.439 21.8196 114.869 22.2396C114.299 22.6596 113.489 22.8696 112.449 22.8696C111.739 22.8696 111.069 22.7596 110.439 22.5496C109.809 22.3296 109.309 22.0896 108.929 21.8296C108.749 21.9496 108.599 22.0997 108.479 22.2896C108.359 22.4796 108.309 22.7196 108.309 22.9996C108.309 23.5096 108.569 23.9296 109.079 24.2396C109.359 24.4096 109.809 24.5696 110.419 24.7396C111.029 24.9096 111.759 24.9896 112.609 24.9896C113.399 24.9896 114.149 24.8996 114.839 24.7296C115.539 24.5596 116.139 24.2796 116.639 23.9096C117.139 23.5396 117.539 23.0496 117.829 22.4596C118.119 21.8596 118.259 21.1496 118.259 20.3196V12.6096V10.5396V7.91965C118.159 7.84965 118.019 7.78965 117.849 7.72965C117.689 7.66965 117.479 7.63965 117.249 7.63965ZM115.709 16.7196C115.439 16.9496 115.119 17.1496 114.739 17.3196C114.359 17.4896 113.889 17.5696 113.319 17.5696C112.869 17.5696 112.449 17.4997 112.069 17.3696C111.679 17.2396 111.349 17.0196 111.059 16.7196C110.779 16.4196 110.549 16.0296 110.389 15.5496C110.219 15.0696 110.139 14.4896 110.139 13.8096C110.139 12.5696 110.449 11.6396 111.059 11.0296C111.669 10.4196 112.479 10.1096 113.489 10.1096C113.989 10.1096 114.419 10.1696 114.779 10.2996C115.139 10.4196 115.449 10.5596 115.699 10.7096V16.7196H115.709Z" fill="#257972"/>
<path d="M96.5602 8.47L94.4002 6.28L92.1802 8.47C90.4702 10.11 86.6002 13.82 86.6002 13.82C85.5802 14.81 85.5502 16.44 86.5402 17.46C87.0402 17.98 87.7202 18.24 88.3902 18.24C89.0302 18.24 89.6802 18 90.1802 17.52L93.8702 13.94C94.5102 15.93 94.0902 18.19 92.5802 19.82C91.5002 20.99 90.0302 21.66 88.4502 21.73C88.3702 21.73 88.2902 21.73 88.2102 21.73C86.7102 21.73 85.2902 21.17 84.1802 20.15C83.0102 19.07 82.3402 17.6 82.2702 16.02C82.2102 14.43 82.7702 12.92 83.8502 11.75C83.9402 11.65 84.0302 11.54 84.1002 11.43L90.2802 5.5C91.3002 4.5 91.3302 2.87 90.3402 1.85C90.3202 1.83 90.3002 1.81 90.2802 1.79L88.5002 0L86.7402 1.76C86.7302 1.77 86.7202 1.78 86.7102 1.78L80.3702 7.87C80.2202 8.02 80.0902 8.18 79.9802 8.35C79.0102 9.43 78.2702 10.66 77.7802 12.02C77.2902 13.37 77.0802 14.78 77.1302 16.22C77.1902 17.66 77.5102 19.05 78.1102 20.36C78.7202 21.71 79.5902 22.92 80.6902 23.93C81.7902 24.95 83.0502 25.72 84.4502 26.22C85.6602 26.66 86.9202 26.88 88.2102 26.88C88.3602 26.88 88.5102 26.88 88.6502 26.87C90.0902 26.81 91.4802 26.49 92.7902 25.89C94.1402 25.28 95.3502 24.41 96.3602 23.31C100.23 19.13 100.28 12.71 96.5602 8.47Z" fill="#257972"/>
<path d="M0 10.8604H2.07C3.52 10.8604 4.54 11.3604 4.54 12.8404C4.54 14.2704 3.5 14.9304 2.07 14.9304H1.01V17.4404H0V10.8604ZM1.98 14.1204C3.04 14.1204 3.55 13.7104 3.55 12.8504C3.55 11.9704 3.03 11.6804 1.98 11.6804H1.01V14.1304H1.98V14.1204Z" fill="#257972"/>
<path d="M6.28003 14.1202C6.28003 11.9802 7.33003 10.7402 8.84003 10.7402C10.34 10.7402 11.4 11.9702 11.4 14.1202C11.4 16.3002 10.35 17.5602 8.84003 17.5602C7.33003 17.5602 6.28003 16.3002 6.28003 14.1202ZM10.35 14.1202C10.35 12.5402 9.75003 11.6202 8.83003 11.6202C7.92003 11.6202 7.31003 12.5402 7.31003 14.1202C7.31003 15.7402 7.91003 16.6802 8.83003 16.6802C9.75003 16.6802 10.35 15.7302 10.35 14.1202Z" fill="#257972"/>
<path d="M12.6799 10.8506H13.7799L14.1899 14.8206C14.2399 15.3706 14.2699 15.7406 14.2999 16.3806H14.3299C14.4399 15.7406 14.5299 15.3806 14.6499 14.8306L15.2399 12.5406H16.0799L16.6499 14.8306C16.7799 15.3706 16.8599 15.7406 16.9699 16.3806H17.0099C17.0399 15.7406 17.0599 15.3706 17.1099 14.8306L17.4999 10.8506H18.5399L17.6199 17.4306H16.4399L15.8599 14.9406C15.7699 14.5306 15.6899 14.1406 15.6399 13.7406H15.6099C15.5499 14.1406 15.4899 14.5406 15.3899 14.9406L14.8199 17.4306H13.6599L12.6799 10.8506Z" fill="#257972"/>
<path d="M20.46 10.8604H24.6V11.7104H21.46V13.5804H24.11V14.4304H21.46V16.5904H24.7V17.4404H20.46V10.8604Z" fill="#257972"/>
<path d="M27.0701 10.8604H29.2001C30.5501 10.8604 31.5701 11.3404 31.5701 12.7604C31.5701 14.1204 30.5501 14.7604 29.2001 14.7604H28.0901V17.4304H27.0701V10.8604ZM29.0801 13.9604C30.0401 13.9604 30.5701 13.5604 30.5701 12.7704C30.5701 11.9604 30.0501 11.6804 29.0801 11.6804H28.0901V13.9604H29.0801ZM29.7601 13.9204L31.7901 17.4404H30.6501L29.0001 14.5004L29.7601 13.9204Z" fill="#257972"/>
<path d="M34.02 10.8604H38.16V11.7104H35.02V13.5804H37.67V14.4304H35.02V16.5904H38.26V17.4404H34.02V10.8604Z" fill="#257972"/>
<path d="M40.54 10.8604H42.21C44.17 10.8604 45.29 11.9904 45.29 14.1204C45.29 16.2604 44.17 17.4404 42.26 17.4404H40.54V10.8604ZM42.14 16.6104C43.51 16.6104 44.24 15.7504 44.24 14.1104C44.24 12.4804 43.51 11.6704 42.14 11.6704H41.54V16.6004H42.14V16.6104Z" fill="#257972"/>
<path d="M54.1899 10.8604H56.1399C57.4899 10.8604 58.4299 11.2904 58.4299 12.4704C58.4299 13.1104 58.0599 13.7004 57.2799 13.9004V13.9404C58.2399 14.1004 58.7799 14.6104 58.7799 15.5104C58.7799 16.8104 57.7499 17.4404 56.2899 17.4404H54.1799V10.8604H54.1899ZM56.0199 13.5904C57.0399 13.5904 57.4499 13.2404 57.4499 12.5704C57.4499 11.9204 56.9799 11.6704 56.0499 11.6704H55.1899V13.5804H56.0199V13.5904ZM56.1799 16.6204C57.2199 16.6204 57.8099 16.2704 57.8099 15.4504C57.8099 14.7004 57.2499 14.3904 56.1799 14.3904H55.1899V16.6204H56.1799Z" fill="#257972"/>
<path d="M62.5401 15.1204L60.3601 10.8604H61.4301L62.3301 12.7104C62.5701 13.2204 62.7901 13.7104 63.0401 14.2404H63.0801C63.3301 13.7204 63.5701 13.2204 63.8101 12.7104L64.6901 10.8604H65.7301L63.5501 15.1204V17.4304H62.5401V15.1204Z" fill="#257972"/>
</svg>
