<svg width="24" height="24" viewBox="0 0 24 24" fill="none" xmlns="http://www.w3.org/2000/svg">
<path d="M12 9.33333C10.5272 9.33333 9.33333 10.5272 9.33333 12C9.33333 13.4728 10.5272 14.6667 12 14.6667C13.4728 14.6667 14.6667 13.4728 14.6667 12C14.6667 10.5272 13.4728 9.33333 12 9.33333Z" fill="#257972"/>
<path fill-rule="evenodd" clip-rule="evenodd" d="M8.8 4C6.14903 4 4 6.14903 4 8.8V15.2C4 17.851 6.14903 20 8.8 20H15.2C17.851 20 20 17.851 20 15.2V8.8C20 6.14903 17.851 4 15.2 4H8.8ZM8.26667 12C8.26667 9.93814 9.93814 8.26667 12 8.26667C14.0619 8.26667 15.7333 9.93814 15.7333 12C15.7333 14.0619 14.0619 15.7333 12 15.7333C9.93814 15.7333 8.26667 14.0619 8.26667 12ZM15.7333 8.26667H16.8V7.2H15.7333V8.26667Z" fill="#257972"/>
</svg>
