<svg width="24" height="24" viewBox="0 0 24 24" fill="none" xmlns="http://www.w3.org/2000/svg">
<path fill-rule="evenodd" clip-rule="evenodd" d="M4 5.6C4 4.71635 4.71634 4 5.6 4H18.4C19.2837 4 20 4.71634 20 5.6V18.4C20 19.2837 19.2837 20 18.4 20H5.6C4.71634 20 4 19.2837 4 18.4V5.6ZM9.33333 9.33333H8.26667V8.26667H9.33333V9.33333ZM8.26667 15.7333V10.4H9.33333V15.7333H8.26667ZM13.0667 11.4667C12.183 11.4667 11.4667 12.183 11.4667 13.0667V15.7333H10.4V10.4H11.4667V10.9331C11.9124 10.5984 12.4663 10.4 13.0667 10.4C14.5394 10.4 15.7333 11.5939 15.7333 13.0667V15.7333H14.6667V13.0667C14.6667 12.183 13.9503 11.4667 13.0667 11.4667Z" fill="#257972"/>
</svg>
