<svg width="114" height="75" viewBox="0 0 114 75" fill="none" xmlns="http://www.w3.org/2000/svg">
<g clip-path="url(#clip0)">
<path d="M47.4414 45.3726C47.4179 45.3726 47.3711 45.3726 47.3477 45.3496C47.3711 45.3496 47.3945 45.3726 47.4414 45.3726Z" fill="#257972"/>
<path d="M54.4463 55.4327C54.4228 55.6859 54.3994 55.9162 54.376 56.1694C54.5868 55.8241 54.7977 55.4327 55.0085 55.0414C55.3834 54.2587 55.7114 53.43 55.9691 52.5552C56.1565 51.9797 56.2736 51.4502 56.3674 50.9668C56.1096 51.6574 55.8519 52.302 55.5942 52.9005C55.1491 53.8213 54.7742 54.6961 54.4463 55.4327Z" fill="#257972"/>
<path d="M23.6621 30.9624C23.9667 30.4329 24.2478 29.8114 24.5289 29.0977C24.5289 29.0057 24.5055 28.8906 24.5055 28.7985V28.3841C24.5055 28.0849 24.5055 27.7856 24.5289 27.4863C24.3649 28.1309 24.1775 28.8215 23.9901 29.5582C23.873 30.0186 23.7558 30.502 23.6621 30.9624Z" fill="#257972"/>
<path d="M48.6362 24.8152C48.1442 25.2986 47.6756 25.759 47.2305 26.1734C46.8322 26.5417 46.4808 26.864 46.106 27.2093C46.2465 27.0942 46.4105 27.0021 46.5511 26.864C47.3242 26.2194 48.0973 25.4828 48.847 24.654C49.5733 23.8483 50.2527 23.0426 50.8852 22.2139C50.9087 22.0528 50.9555 21.8916 50.979 21.7305C50.6978 22.2369 50.3933 22.7434 50.0184 23.2038C49.5967 23.8023 49.1282 24.3318 48.6362 24.8152Z" fill="#257972"/>
<path d="M31.0183 27.3934C30.7137 28.3142 30.3857 29.3041 29.8938 30.317C29.8703 30.386 29.8235 30.4781 29.8 30.5472C30.0578 30.1328 30.292 29.6724 30.5263 29.189C30.8309 28.4754 31.112 27.7387 31.3229 26.979C31.5337 26.2884 31.6977 25.6669 31.8383 25.1144C31.8383 25.0914 31.8383 25.0914 31.8383 25.0684C31.7446 25.3906 31.6274 25.7359 31.5103 26.1043C31.3463 26.5186 31.1823 26.956 31.0183 27.3934Z" fill="#257972"/>
<path d="M46.0122 39.1807C45.9887 39.1807 45.9419 39.1807 45.9185 39.2037C45.9419 39.1807 45.9887 39.1807 46.0122 39.1807Z" fill="#257972"/>
<path d="M4.42788 38.2131C4.35759 38.3742 4.31074 38.4893 4.26388 38.6044C4.1936 38.9728 4.17017 39.3871 4.1936 39.8706C4.21703 40.354 4.33417 40.7914 4.49816 41.2057C4.66216 41.5741 4.87301 41.8503 5.15414 42.0575C5.29471 42.1726 5.48213 42.2186 5.71641 42.2186C5.85698 42.2186 5.99755 42.1956 6.13811 42.1726C6.23182 42.1496 6.34896 42.1265 6.44267 42.0805C6.44267 42.0114 6.41925 41.9194 6.41925 41.8503C6.39582 41.3208 6.41925 40.8374 6.48953 40.4461C6.53639 40.331 6.58324 40.1698 6.67695 39.9857C6.79409 39.6634 7.02837 39.272 7.33293 38.8577L7.56721 38.5354L5.22443 36.8779L4.99015 37.1772C4.75587 37.5455 4.42788 38.2131 4.42788 38.2131Z" fill="#257972"/>
<path d="M14.1503 31.5839C14.2909 32.5278 14.2909 33.6097 14.1269 34.8068C13.8692 36.5103 13.4709 38.0066 12.9321 39.2497C12.3932 40.4928 11.7841 41.5287 11.1281 42.3804C10.4722 43.2322 9.76932 43.8998 9.08991 44.3602C8.4105 44.8206 7.84824 45.1429 7.37968 45.35C7.05169 45.4882 6.62999 45.6493 6.16143 45.8104C5.64602 45.9946 5.13061 46.0867 4.56834 46.1327C4.42777 46.1327 4.2872 46.1557 4.14664 46.1557C3.88893 46.1557 3.60779 46.1327 3.32666 46.0867L4.54491 46.9615C4.89633 47.2147 5.27117 47.3988 5.69287 47.4909C6.09115 47.583 6.48942 47.629 6.86427 47.629C6.98141 47.629 7.12197 47.629 7.23911 47.606C7.75453 47.56 8.24651 47.4679 8.71507 47.3068C9.1602 47.1456 9.55847 47.0075 9.88646 46.8694C10.3082 46.6852 10.847 46.3629 11.503 45.9255C12.159 45.4882 12.8149 44.8436 13.4475 44.0379C14.08 43.2322 14.6657 42.2193 15.2046 41.0222C15.7434 39.8252 16.1183 38.3519 16.376 36.6944C16.54 35.5434 16.54 34.5075 16.3994 33.6097C16.2588 32.7119 16.0246 31.9062 15.6966 31.2386C15.3686 30.571 14.9703 29.9725 14.5017 29.4891C14.0566 29.0057 13.6115 28.5683 13.1664 28.1999C12.9321 28.0158 12.6978 27.8316 12.487 27.6475C12.8149 28.0848 13.1195 28.5453 13.3772 29.0747C13.7521 29.8114 14.0098 30.6401 14.1503 31.5839Z" fill="#257972"/>
<path d="M18.7188 23.4344C18.9297 23.0891 19.3279 22.7208 19.9371 22.3294C20.0542 22.2604 20.1479 22.1913 20.265 22.1453C20.3119 22.0532 20.3588 21.9381 20.4056 21.823C20.6165 21.2935 20.8039 20.672 20.9445 19.9353C21.085 19.1987 21.1319 18.416 21.085 17.6103C21.0382 16.7816 20.7805 16.0219 20.2885 15.4003C20.0542 15.055 19.7262 14.7558 19.3514 14.5486C19.3514 14.5486 18.3674 13.835 18.344 13.835C18.6251 14.3874 18.7891 15.009 18.8359 15.6536C18.8828 16.5053 18.8359 17.311 18.6719 18.0937C18.5314 18.8534 18.344 19.521 18.1097 20.0734C17.8285 20.7641 17.688 21.0173 17.5708 21.1554C17.4068 21.3626 17.1726 21.5698 16.8446 21.8C16.5166 22.0532 16.0246 22.3294 15.3218 22.6287C15.1109 22.7438 14.8766 22.8129 14.6658 22.8589C14.4784 22.9049 14.2909 22.928 14.1035 22.951L16.0949 24.3782L16.212 24.4013C16.3057 24.4243 16.4229 24.4473 16.54 24.4473C16.6103 24.4473 16.6806 24.4473 16.7509 24.4243C16.9383 24.4013 17.1023 24.3782 17.2663 24.3322C17.4537 24.2862 17.6411 24.2171 17.852 24.125C18.1097 24.0099 18.344 23.8948 18.5314 23.8027C18.5782 23.6876 18.6017 23.5955 18.6485 23.5265L18.7188 23.4344Z" fill="#257972"/>
<path d="M14.5018 15.8836C14.4315 15.5152 14.291 15.1699 14.0098 14.8707C13.963 14.8477 13.8927 14.8477 13.8693 14.8477C13.8224 14.8477 13.7521 14.8477 13.6818 14.8707C13.3304 14.9167 12.9322 15.0779 12.4636 15.3311C11.9716 15.6073 11.4562 15.9526 10.8939 16.413C10.3551 16.8504 9.83968 17.3569 9.39455 17.8863C8.94942 18.4158 8.57458 18.9683 8.24659 19.5438C7.96545 20.0733 7.80146 20.5797 7.7546 21.0401C7.70775 21.4314 7.73117 21.7768 7.80146 22.076C7.87174 22.3983 7.96545 22.6745 8.05916 22.9278C8.1763 23.181 8.29344 23.4342 8.43401 23.6414C8.57458 23.8716 8.71514 24.0788 8.83228 24.2399C8.97285 24.4241 9.1837 24.6543 9.48826 24.8845C9.86311 25.1607 10.2848 25.506 10.7299 25.8513C10.7534 25.8744 10.8002 25.8974 10.8236 25.9434C10.8002 25.8974 10.7768 25.8744 10.7534 25.8283C10.6128 25.5981 10.4722 25.3449 10.3317 25.0456C10.2145 24.7694 10.0974 24.4471 10.0271 24.1018C9.95682 23.7565 9.93339 23.3651 9.98025 22.9278C10.0271 22.3983 10.2145 21.8228 10.5191 21.2243C10.8471 20.6257 11.2453 20.0502 11.7139 19.4977C12.1825 18.9453 12.6979 18.4388 13.2836 17.9784C13.6818 17.6331 14.1035 17.3569 14.4784 17.1036C14.5721 16.6893 14.5721 16.2749 14.5018 15.8836Z" fill="#257972"/>
<path d="M58.0776 15.7457C58.0776 15.6766 58.0776 15.6076 58.1011 15.5615C58.0074 15.6306 57.8668 15.7227 57.6794 15.9068C57.3748 16.2061 57.0468 16.6435 56.7188 17.1729C56.3908 17.7254 56.0863 18.37 55.7817 19.1297C55.7583 19.1757 55.7583 19.1987 55.7349 19.2448C56.6017 18.37 57.1874 17.6333 57.5154 17.0578C57.9371 16.3442 58.0542 15.9529 58.0776 15.7457Z" fill="#257972"/>
<path d="M25.2786 33.0342C25.2084 33.1263 25.1615 33.2414 25.0912 33.3334C24.7164 33.9089 24.3181 34.4154 23.9198 34.8758C23.4981 35.3362 23.053 35.7506 22.6079 36.0959C22.1159 36.4642 21.6005 36.7174 21.085 36.8325C20.7571 36.9016 20.4525 36.9476 20.1714 36.9476C20.1479 36.9476 20.1245 36.9476 20.1011 36.9476C20.1011 36.9476 21.5067 37.9375 21.5067 37.9605C21.6942 38.0986 21.8816 38.2137 22.1159 38.3058C22.3502 38.3979 22.6079 38.4439 22.9124 38.4439C23.1467 38.4439 23.4278 38.4209 23.709 38.3519C24.1541 38.2598 24.5992 38.0296 25.0444 37.7073C25.4661 37.385 25.8878 36.9937 26.286 36.5563C26.6843 36.1189 27.0592 35.6124 27.4106 35.06C27.434 35.0139 27.4574 34.9679 27.5043 34.9218C26.9186 34.8298 26.4032 34.5535 26.0049 34.1392C25.7238 33.8169 25.4895 33.4485 25.2786 33.0342Z" fill="#257972"/>
<path d="M38.3045 26.1279C38.2343 26.174 38.164 26.22 38.0937 26.243C37.2971 26.6804 36.4772 27.0027 35.6103 27.2099C35.4463 27.2559 35.2589 27.2789 35.0949 27.302C35.0949 27.302 35.0949 27.302 35.0715 27.302C34.7904 28.0386 34.4858 28.7522 34.1578 29.4428C33.7595 30.3176 33.291 31.1233 32.799 31.837C32.2836 32.5736 31.7213 33.2182 31.1356 33.7476C30.5031 34.3001 29.8002 34.6684 29.0506 34.8296C28.6991 34.9217 28.3477 34.9447 28.0432 34.9447C27.9963 34.9447 27.9494 34.9447 27.9026 34.9447L29.3317 35.9576C29.7065 36.2568 30.1985 36.418 30.7608 36.418C31.0419 36.418 31.3465 36.3719 31.651 36.3029C32.3304 36.1417 32.9396 35.8195 33.5253 35.313C34.0875 34.8296 34.6264 34.208 35.0949 33.4944C35.5869 32.7808 36.032 31.9981 36.4303 31.1463C36.8052 30.3637 37.1332 29.5579 37.4377 28.7522C37.5314 28.7522 37.6486 28.7522 37.7423 28.7292C37.9063 28.7062 38.0468 28.6832 38.2108 28.6602C38.3045 28.6371 38.3983 28.6141 38.492 28.5911C38.2811 27.9235 38.2108 27.0948 38.3045 26.1279Z" fill="#257972"/>
<path d="M29.2143 24.3094C28.7223 25.7136 27.387 29.0746 27.387 29.0746C27.4338 29.3968 27.5041 29.7421 27.5978 30.0874C27.6915 30.4558 27.8087 30.8011 27.9492 31.0773C28.0664 31.3305 28.2304 31.5147 28.3944 31.6528C28.4412 31.6989 28.4881 31.6989 28.5115 31.6989C28.5349 31.6989 28.5818 31.6989 28.6052 31.6758C28.9098 31.6068 29.2143 31.3536 29.5189 30.9622C29.6126 30.8241 29.7063 30.686 29.8 30.5478C29.8235 30.4788 29.8703 30.3867 29.8937 30.3176C30.3857 29.3048 30.7137 28.3149 31.0183 27.3941C31.1823 26.9567 31.3463 26.5193 31.4868 26.1049C31.6274 25.7366 31.7211 25.3913 31.8148 25.069C31.768 24.9079 31.7211 24.7237 31.6977 24.5626C31.6508 24.3094 31.6274 23.9871 31.6274 23.6418C31.6274 23.0663 31.6977 22.5368 31.8148 22.0534L29.964 20.7412C29.964 20.8103 29.9875 20.8563 29.9875 20.9254C29.9875 21.7311 29.7297 22.8361 29.2143 24.3094Z" fill="#257972"/>
<path d="M36.688 21.5925C36.5475 22.2831 36.3835 23.0427 36.1726 23.8715C36.2897 23.8485 36.4303 23.8254 36.5709 23.8024C37.0863 23.6873 37.5549 23.5031 37.9766 23.296C38.3983 23.0658 38.7731 22.8356 39.1245 22.5593C39.1948 22.1219 39.2182 21.7766 39.2182 21.5464C39.2182 21.1321 39.0542 20.9479 38.8903 20.8558L36.9457 19.4746C36.9692 19.4976 36.8754 20.6486 36.688 21.5925Z" fill="#257972"/>
<path d="M65.5511 9.46137C64.8717 9.62252 64.1923 9.7146 63.5831 9.7146C63.5129 9.7146 63.4426 9.7146 63.3957 9.7146C63.138 9.7146 62.9272 9.69158 62.7163 9.66856C62.7163 9.66856 64.4734 10.9347 64.4968 10.9347C64.5671 10.9807 64.614 11.0037 64.7077 11.0268C65.0357 11.1188 65.5042 11.1649 66.1602 11.1879C66.3008 10.4973 66.4179 9.8297 66.5585 9.16211C66.1836 9.30023 65.8322 9.39231 65.5511 9.46137Z" fill="#257972"/>
<path d="M72.9308 1.49601C72.9074 2.0485 72.8371 2.69307 72.7434 3.45274C73.2822 3.33764 73.7742 3.26858 74.2194 3.22253C74.5708 3.19951 74.8988 3.15347 75.1799 3.15347C75.1799 2.32474 75.0862 2.07152 74.9925 1.9334C74.9925 1.9334 74.9456 1.88736 74.9222 1.86434C74.8753 1.8183 74.8519 1.79528 74.8051 1.77226C74.8051 1.77226 72.9074 0.414062 72.884 0.414062C72.9308 0.667285 72.9543 1.01259 72.9308 1.49601Z" fill="#257972"/>
<path d="M49.5499 17.3336C49.4796 18.1393 49.2688 18.899 48.9173 19.6126C48.5894 20.3032 48.1676 20.9478 47.7225 21.5463C47.2774 22.1449 46.7854 22.6973 46.27 23.2038C45.778 23.6872 45.3094 24.1476 44.8643 24.585C44.3723 25.0224 43.9272 25.4598 43.4821 25.8511C43.1541 26.1504 42.8495 26.4266 42.5918 26.6798C42.6152 26.9791 42.6855 27.2093 42.7792 27.3935C42.8964 27.6237 43.0369 27.7848 43.2009 27.8769C43.3649 27.969 43.5289 28.038 43.7398 28.038C43.7866 28.038 43.8569 28.038 43.9038 28.038C44.1146 28.038 44.3489 28.015 44.5597 27.969C45.0517 27.8539 45.5906 27.6007 46.1294 27.2093C46.4808 26.887 46.8557 26.5417 47.254 26.1734C47.6991 25.759 48.1676 25.2986 48.6596 24.8152C49.1516 24.3318 49.6202 23.7793 50.0653 23.2038C50.4167 22.7434 50.7447 22.2369 51.0259 21.7305C51.1899 21.0629 51.4007 20.3723 51.7053 19.6587C51.7287 19.5896 51.7521 19.5436 51.799 19.4745C51.799 19.4054 51.8224 19.3134 51.8224 19.2443C51.8693 18.5307 51.6818 18.0012 51.2601 17.6099C51.2133 17.5638 49.4796 16.3438 49.4796 16.3438C49.5265 16.62 49.5733 16.9423 49.5499 17.3336Z" fill="#257972"/>
<path d="M51.143 26.1504C50.651 26.7259 50.159 27.2554 49.6436 27.7848C48.683 28.7517 47.6991 29.5804 46.6917 30.271C45.6608 30.9846 44.6066 31.4681 43.6226 31.6983C43.3181 31.7673 43.0135 31.8134 42.6855 31.8134C42.4512 31.8134 42.2404 31.7904 42.0061 31.7673L43.3181 32.7112C43.7163 32.9644 44.138 33.1485 44.6066 33.2176C44.8877 33.2636 45.1689 33.2867 45.4266 33.2867C45.7077 33.2867 45.9888 33.2636 46.27 33.1946C47.2071 32.9874 48.1911 32.527 49.175 31.8364C50.159 31.1688 51.1195 30.3401 52.0566 29.4193C52.3846 29.097 52.7126 28.7517 53.0172 28.3834C52.8063 28.2683 52.5955 28.1301 52.4081 27.946C51.8692 27.5086 51.4475 26.9101 51.143 26.1504Z" fill="#257972"/>
<path d="M65.2466 24.7234C64.9186 24.286 64.6843 23.7795 64.5437 23.204C64.4734 22.8817 64.4266 22.5825 64.4266 22.2832C63.7003 23.204 62.9506 24.0788 62.1541 24.8845C61.1935 25.8513 60.2096 26.6801 59.2022 27.3707C58.1713 28.0843 57.1171 28.5677 56.1097 28.7979C55.8051 28.867 55.5006 28.913 55.1726 28.913C54.9617 28.913 54.7274 28.89 54.4932 28.867L55.8051 29.7878C56.2034 30.041 56.6251 30.2252 57.0937 30.3173C57.3748 30.3633 57.6559 30.3863 57.9136 30.3863C58.1948 30.3863 58.4759 30.3633 58.7336 30.2943C59.6707 30.0871 60.6547 29.6267 61.6387 28.9361C62.6226 28.2685 63.5832 27.4397 64.5203 26.4959C64.9186 26.1046 65.3169 25.6672 65.7151 25.2068C65.5277 25.0687 65.3637 24.9075 65.2466 24.7234Z" fill="#257972"/>
<path d="M78.8347 5.08765C78.7176 5.38691 78.5536 5.66316 78.2959 5.91638C77.9913 6.21564 77.6399 6.37679 77.265 6.39981C77.0307 6.42283 76.773 6.44585 76.4919 6.44585C76.4919 6.44585 75.9062 6.46887 75.5548 6.51491C75.1799 6.56095 74.7348 6.63001 74.2194 6.69907C73.704 6.76813 73.1183 6.90625 72.4389 7.06739C72.3218 7.09041 72.1812 7.13645 72.0406 7.18249C71.9938 7.20551 71.9703 7.20551 71.9235 7.22853C71.8766 7.45874 71.8298 7.68894 71.7829 7.91914C71.7126 8.31049 71.5955 8.72485 71.4549 9.13922C71.1738 10.1061 70.8458 11.165 70.4709 12.293C70.143 13.2829 69.7447 14.4339 69.2761 15.723C68.831 16.9661 68.3156 18.3473 67.7533 19.7976C67.6127 20.8335 67.683 21.3399 67.7767 21.5702C67.9173 21.9845 68.0579 22.1226 68.1047 22.1687C68.1516 22.1917 68.2453 22.2377 68.4093 22.2377C68.4796 22.2377 68.6904 22.2147 68.6904 22.2147C68.7607 22.2147 68.995 22.1687 69.487 21.7543C69.7447 21.5471 69.979 21.3169 70.2601 21.0407C70.7287 19.7976 71.1738 18.6236 71.5486 17.5416C72.0172 16.2525 72.4155 15.1015 72.72 14.1116C73.0949 12.9836 73.4229 11.9247 73.704 10.9578C73.8446 10.5435 73.9383 10.1521 74.0086 9.78378C74.0788 9.4615 74.1491 9.13922 74.2194 8.81693C74.36 8.79391 74.4771 8.74787 74.5943 8.70183C74.7582 8.65579 74.8988 8.60975 75.016 8.58673C75.6954 8.42559 76.3279 8.28747 76.8433 8.21841C77.3822 8.12632 77.8273 8.08028 78.2021 8.03424C78.5536 7.9882 79.1861 7.96518 79.1861 7.96518C79.4438 7.96518 79.7015 7.94216 79.9124 7.91914C80.1935 7.89612 80.4278 7.78102 80.6621 7.57384C80.8495 7.36666 81.0135 7.15947 81.0838 6.90625C81.1775 6.67605 81.2009 6.44585 81.2009 6.23866C81.2009 6.07752 81.1306 5.96242 81.0369 5.87034C81.0135 5.8243 78.9753 4.39704 78.9518 4.37402C78.9753 4.58121 78.9284 4.83443 78.8347 5.08765Z" fill="#257972"/>
<path d="M22.8654 23.3424C22.7717 23.7337 22.6311 24.3323 22.3968 25.138C22.186 25.9207 21.9517 26.7724 21.7409 27.6932C21.5066 28.614 21.3192 29.5118 21.1317 30.3866C20.9677 31.2153 20.874 31.9059 20.874 32.4354C20.874 33.2181 21.0146 33.4022 21.038 33.4022C21.038 33.4022 21.0614 33.4253 21.1317 33.4253C21.1786 33.4253 21.2723 33.4253 21.3426 33.4022C21.6237 33.3332 22.0923 33.103 22.7717 32.2973C23.0762 31.952 23.3574 31.5146 23.6619 30.9851C23.7557 30.5247 23.8728 30.0413 23.9899 29.5579C24.1774 28.8212 24.3414 28.1306 24.5288 27.486C24.5522 26.7954 24.5756 26.1278 24.6225 25.5063C24.6693 24.9768 24.7396 24.4934 24.8333 24.01L22.9591 22.6748C22.9591 22.859 22.9123 23.0892 22.8654 23.3424Z" fill="#257972"/>
<path d="M62.0369 14.3643C61.9666 15.17 61.7558 15.9297 61.4044 16.6663C61.0764 17.357 60.6547 18.0245 60.2096 18.6231C59.7644 19.2216 59.2724 19.7741 58.757 20.2805C58.265 20.787 57.7965 21.2474 57.3514 21.6617C56.8594 22.0991 56.4142 22.5365 55.9691 22.9279C55.6411 23.2271 55.3366 23.5034 55.0789 23.7566C55.1023 24.0559 55.1726 24.3091 55.2663 24.4932C55.3834 24.7234 55.524 24.8846 55.688 24.9767C55.852 25.0687 56.016 25.1378 56.2268 25.1378C56.2737 25.1378 56.344 25.1378 56.3908 25.1378C56.6017 25.1378 56.8359 25.1148 57.0468 25.0687C57.5154 24.9536 58.0073 24.7234 58.5228 24.3781C58.921 24.0098 59.3193 23.6415 59.7644 23.2501C60.2096 22.8358 60.6781 22.3754 61.1701 21.8919C61.6621 21.3855 62.1306 20.856 62.5758 20.2805C63.0209 19.705 63.4192 19.0605 63.7237 18.4159C64.0517 17.7483 64.2626 17.0347 64.3094 16.298C64.3563 15.5844 64.1689 15.0319 63.7472 14.6636C63.7003 14.6175 63.63 14.5715 63.5597 14.5255C63.5597 14.5255 61.9901 13.3975 61.9666 13.3975C62.0135 13.6737 62.0604 13.996 62.0369 14.3643Z" fill="#257972"/>
<path d="M77.5228 15.0318C77.0776 16.0217 76.4685 17.1036 75.7657 18.2776C75.0394 19.4517 74.2897 20.5566 73.4932 21.6156C72.6966 22.6745 71.9001 23.5953 71.127 24.355C70.2835 25.1837 69.5573 25.6671 68.9247 25.8053C68.5265 25.8973 68.1516 25.9434 67.8002 25.9434C67.7065 25.9434 67.6362 25.9434 67.5425 25.9434L68.8779 26.9102C69.0887 27.0714 69.323 27.1865 69.5807 27.2786C69.8618 27.3706 70.1664 27.4397 70.5178 27.4397C70.8224 27.4397 71.1738 27.3937 71.5252 27.3246C72.0875 27.1865 72.72 26.7721 73.5166 25.9894C74.2663 25.2528 75.0394 24.355 75.836 23.2961C76.6325 22.2601 77.3822 21.1322 78.085 19.9811C78.7879 18.8301 79.3736 17.7482 79.8187 16.8043C79.9593 16.459 80.0296 16.2058 80.0296 16.0216C80.0061 15.7454 79.889 15.6073 79.7718 15.5382L77.8273 14.157C77.8039 14.134 77.6868 14.6404 77.5228 15.0318Z" fill="#257972"/>
<path d="M45.5906 18.7154C45.5906 18.6464 45.5906 18.6003 45.614 18.5312C45.5203 18.6003 45.3797 18.6924 45.1923 18.8766C44.8877 19.1758 44.5598 19.6132 44.2318 20.1196C43.9038 20.6491 43.5992 21.3167 43.2947 22.0534C43.2712 22.0764 43.2712 22.1224 43.2478 22.1454C44.1146 21.2707 44.7003 20.557 45.0283 19.9815C45.45 19.3139 45.5672 18.9226 45.5906 18.7154Z" fill="#257972"/>
<path d="M40.905 66.9193L38.9839 65.5381C39.0542 65.8373 39.0542 66.2057 39.0308 66.6431C38.9605 67.2646 38.7731 67.9322 38.4685 68.6228C38.1405 69.3134 37.6954 69.9349 37.1097 70.5335C36.5006 71.155 35.704 71.5694 34.7904 71.7766C34.1344 71.9147 33.5018 72.0068 32.9161 72.0068C32.6819 72.0068 32.4476 72.0068 32.2367 71.9838C31.4636 71.9147 30.7373 71.7535 30.0579 71.5464C29.402 71.3392 28.7694 71.109 28.1603 70.8097C27.7854 70.6256 27.434 70.4644 27.106 70.3033C26.5203 70.9709 25.8643 71.5694 25.1849 72.0758C24.3181 72.7204 23.3576 73.1578 22.3033 73.411C21.9988 73.4801 21.3662 73.5261 21.3428 73.5261C21.3428 73.5261 22.8656 74.6081 22.889 74.6311C23.2404 74.8843 23.6621 74.9994 24.1307 74.9994C24.365 74.9994 24.6461 74.9764 24.9272 74.9073C25.9112 74.6771 26.8249 74.2628 27.6449 73.6642C28.3946 73.1117 29.0974 72.4442 29.7299 71.6845C30.1516 71.8917 30.6202 72.0988 31.1122 72.3521C31.6745 72.6283 32.2836 72.8585 32.9396 73.0657C33.5955 73.2729 34.2749 73.411 35.0246 73.4801C35.2355 73.5031 35.4463 73.5031 35.6572 73.5031C36.2195 73.5031 36.8052 73.434 37.4143 73.2959C38.2342 73.1117 38.9371 72.7204 39.4994 72.1679C40.0382 71.6154 40.4599 71.0399 40.7645 70.3953C41.069 69.7738 41.233 69.1523 41.3033 68.5768C41.3736 67.9552 41.3033 67.5178 41.1159 67.2416L40.905 66.9193Z" fill="#257972"/>
<path d="M28.6052 54.8569C27.715 55.0641 26.9184 55.1792 26.2625 55.1792C26.075 55.1792 25.8876 55.1792 25.7002 55.1562C25.7236 55.1562 25.7236 55.1792 25.7236 55.1792L25.7471 55.2022L25.7705 55.2252L25.7939 55.2483L25.8408 55.2713H25.8642L25.8876 55.2943L25.911 55.3173L25.9345 55.3403L25.9579 55.3634L25.9813 55.3864L26.0048 55.4094L26.0282 55.4324L26.0516 55.4554L26.075 55.4785L26.0985 55.5015L26.1219 55.5245L26.1453 55.5475L26.1688 55.5705L26.1922 55.5936L26.2156 55.6166C26.2156 55.6166 26.239 55.6166 26.239 55.6396C26.239 55.6396 26.239 55.6396 26.2625 55.6626L26.2859 55.6856L26.3093 55.7087C26.3093 55.7087 26.3327 55.7087 26.3327 55.7317L26.3562 55.7547L26.3796 55.7777L26.403 55.8007L26.4265 55.8238L26.4499 55.8468L26.4733 55.8698C26.4967 55.8698 26.4967 55.8928 26.5202 55.8928C26.5202 55.8928 26.5202 55.8928 26.5436 55.8928L26.567 55.9158C26.567 55.9158 26.5905 55.9158 26.5905 55.9389L26.6139 55.9619L26.6373 55.9849L26.6607 56.0079C26.6607 56.0079 26.6842 56.0079 26.6842 56.0309L26.7076 56.054L26.731 56.077C26.7544 56.077 26.7544 56.1 26.7544 56.1H26.7779L26.8013 56.123L26.8247 56.146L26.8482 56.1691C26.8716 56.1691 26.8716 56.1921 26.895 56.1921C26.895 56.1921 26.895 56.1921 26.9184 56.2151L26.9419 56.2381L26.9653 56.2612C27.2699 56.5144 27.715 56.6755 28.3007 56.7446C28.4647 56.7676 28.6521 56.7676 28.8629 56.7676C28.8864 56.7676 28.9098 56.7676 28.9098 56.7676C29.0738 56.077 29.2144 55.4094 29.3549 54.7418C29.1909 54.7188 28.8864 54.7879 28.6052 54.8569Z" fill="#257972"/>
<path d="M37.5549 41.7129C37.4377 41.828 37.2972 41.9661 37.1332 42.1733C36.7115 42.7028 36.3366 43.4624 36.0555 44.4293C35.9618 44.7516 35.8447 45.1889 35.6807 45.7875C36.0087 45.3501 36.3132 44.9127 36.5943 44.4753C37.2035 43.4854 37.508 42.5646 37.5549 41.7129Z" fill="#257972"/>
<path d="M41.5844 40.5848C41.5844 41.4135 41.397 42.3574 41.0222 43.3933C40.6473 44.4062 40.1319 45.4421 39.4759 46.501C38.8199 47.5369 38.0234 48.5958 37.1331 49.5857C36.2663 50.5295 35.3058 51.4043 34.2749 52.141C33.9235 53.6373 33.5721 55.1106 33.2441 56.5608C32.8927 58.1032 32.5178 59.4384 32.1664 60.4743C31.8619 61.4411 31.4636 62.5231 30.995 63.7432C30.5968 64.733 30.1516 65.6999 29.6128 66.6667C29.8002 66.7588 29.9876 66.8279 30.1516 66.92C30.5499 67.1041 30.9482 67.2653 31.3699 67.3804C31.6744 67.4724 32.0024 67.5645 32.3304 67.6106C32.6818 66.92 33.0098 66.2294 33.2675 65.5387C33.7361 64.3417 34.1344 63.2597 34.4389 62.3159C34.7903 61.28 35.1418 59.9678 35.5166 58.4485C35.868 56.9292 36.2194 55.4098 36.5943 53.8445C37.672 53.0848 38.6559 52.21 39.5228 51.2432C40.413 50.2533 41.1861 49.2404 41.8187 48.2275C42.4512 47.2146 42.9667 46.1787 43.3181 45.2119C43.5055 44.6824 43.6461 44.199 43.7398 43.7155C43.2009 43.2782 43.0369 42.7717 43.0135 42.3804C42.9901 41.8509 43.1072 41.2984 43.3884 40.769C43.4352 40.6539 43.5055 40.5618 43.5524 40.4697C43.5289 40.4237 43.5055 40.3776 43.4821 40.3316C43.3415 40.0783 43.1541 39.8481 42.8964 39.687C42.8964 39.687 41.3736 38.6051 41.3736 38.582C41.4673 38.8583 41.5376 39.1345 41.561 39.4568C41.5844 39.8481 41.5844 40.2395 41.5844 40.5848Z" fill="#257972"/>
<path d="M47.4414 41.4818C47.3477 41.8271 47.2071 42.1724 46.9728 42.5177C46.762 42.863 46.5043 43.1393 46.2232 43.3925C45.942 43.6457 45.6375 43.8529 45.3329 43.968C45.2392 44.0141 45.1455 44.0371 45.0518 44.0601C45.0518 44.0601 46.926 45.4183 47.0431 45.4874C47.1603 45.5564 47.2774 45.6025 47.418 45.6025C47.5585 45.6025 47.6991 45.5794 47.8397 45.5104C48.0974 45.3953 48.3551 45.2341 48.6128 45.0039C48.8471 44.7967 49.0814 44.5205 49.2688 44.2212C49.4796 43.922 49.5968 43.6227 49.6671 43.3234C49.7373 43.0702 49.7608 42.771 49.7608 42.4487C49.7373 42.1264 49.6905 41.8501 49.5968 41.5969C49.5031 41.3437 49.3391 41.1365 49.1282 40.9984C49.1282 40.9984 47.418 39.7783 47.3945 39.7783C47.4414 39.9855 47.4883 40.2387 47.4883 40.4919C47.5585 40.8373 47.5117 41.1826 47.4414 41.4818Z" fill="#257972"/>
<path d="M45.1922 50.99C45.0048 51.6345 44.794 52.3021 44.5597 53.0388C44.3488 53.7294 44.1848 54.2818 44.0677 54.6962C43.9505 55.1336 43.8334 55.64 43.6694 56.1925C43.5288 56.722 43.3883 57.2515 43.2711 57.7579C43.154 58.2413 43.0837 58.7017 43.0369 59.1161C42.99 59.5535 43.0603 59.6686 43.0603 59.6686C43.0603 59.6686 43.1306 59.7837 43.1306 59.8297C43.318 59.7607 43.7163 59.5535 44.3488 58.9089C44.9814 58.2874 45.6374 57.5737 46.2699 56.768C46.2933 56.699 46.3168 56.6299 46.3168 56.5608C46.4339 56.1235 46.5979 55.571 46.8088 54.8804C47.043 54.1437 47.2305 53.4761 47.4413 52.8316C47.6287 52.164 47.8162 51.5885 47.9333 51.1051C48.1441 50.3224 48.1441 50.2303 48.027 50.1152L45.8482 48.5498C45.8248 48.734 45.7545 48.9872 45.6842 49.2865C45.5671 49.7469 45.4031 50.3224 45.1922 50.99Z" fill="#257972"/>
<path d="M48.8704 58.7478C48.8236 58.5867 48.7767 58.3795 48.7298 58.1953C48.4956 58.5176 48.2379 58.8399 48.0036 59.1622C47.2305 60.1751 46.4573 61.0498 45.7077 61.8095C44.8643 62.6612 44.2083 63.1217 43.6226 63.2828C43.318 63.3749 43.0135 63.4209 42.7323 63.4209C42.662 63.4209 42.5918 63.4209 42.498 63.4209L43.9271 64.4338C44.2551 64.641 44.6066 64.7791 45.0048 64.8482C45.1454 64.8712 45.3094 64.8942 45.4499 64.8942C45.7077 64.8942 45.9654 64.8482 46.2231 64.7791C46.7151 64.641 47.3476 64.2036 48.1207 63.4209C48.8236 62.7303 49.5264 61.9016 50.2526 60.9577C50.1824 60.9117 50.1121 60.8657 50.0652 60.7966C49.5498 60.4053 49.175 59.7147 48.8704 58.7478Z" fill="#257972"/>
<path d="M61.8025 52.1638C61.8728 51.3581 62.0836 50.4833 62.4116 49.5625C61.9899 49.7697 61.5917 49.9769 61.2168 50.138C60.8888 50.2761 60.5843 50.3912 60.2797 50.4833C60.1391 51.3581 59.8814 52.3249 59.4831 53.3608C59.0146 54.5809 58.4289 55.7319 57.7495 56.8139C57.0701 57.9189 56.2969 58.8857 55.4535 59.6914C54.5633 60.5662 53.6496 61.0956 52.7593 61.3028C52.4782 61.3719 52.1268 61.4179 51.7051 61.441L53.2279 62.5229C53.5793 62.7991 53.9542 62.9142 54.3056 62.9142C54.329 62.9142 54.3759 62.9142 54.3993 62.9142C54.7976 62.8912 55.1256 62.8452 55.3833 62.7991C56.1798 62.615 57.0232 62.1085 57.8432 61.3028C58.6397 60.5201 59.3894 59.5763 60.0688 58.4944C60.7248 57.4354 61.2871 56.2844 61.7557 55.1104C61.8025 54.9723 61.8728 54.8111 61.9196 54.673C61.7556 53.9824 61.7322 53.1537 61.8025 52.1638Z" fill="#257972"/>
<path d="M78.9049 51.4726C78.9283 51.1273 79.0221 50.759 79.1626 50.3677C79.2798 50.0224 79.4438 49.631 79.6078 49.2397C79.7718 48.8483 79.9592 48.457 80.1466 48.0887C80.334 47.7203 81.318 45.6025 81.5523 45.073C81.7397 44.6356 81.81 44.3594 81.8334 44.1982C81.81 44.1982 81.2946 44.3594 81.0603 44.4284C80.826 44.4745 80.6152 44.4975 80.4277 44.4975C80.2872 44.4975 80.1466 44.4745 80.0295 44.4515C79.9358 44.6356 79.8186 44.8888 79.6546 45.1651C79.3501 45.7406 79.0221 46.4312 78.6004 47.283C78.2021 48.0887 77.7804 48.9404 77.3118 49.8382C76.8667 50.736 76.445 51.5647 76.0467 52.3474L75.9296 52.6006C75.5782 53.2682 75.297 53.8437 75.0628 54.3272C74.7113 55.0178 74.5942 55.2249 74.5473 55.317C74.3365 55.7084 74.1022 55.9846 73.8211 56.1688C73.5399 56.3529 73.2588 56.445 73.0011 56.445C72.9308 56.445 72.8605 56.445 72.7903 56.422C72.3686 56.3529 72.064 56.0537 71.9468 55.5933C71.9234 55.5472 71.9234 55.5012 71.9234 55.4321C71.3611 55.9386 70.7989 56.376 70.2366 56.7903C69.1824 57.527 68.1515 58.0104 67.1441 58.2406C66.863 58.3097 66.5584 58.3327 66.2304 58.3327C66.0196 58.3327 65.7853 58.3097 65.5745 58.2866L66.7459 59.1154C66.7459 59.1154 67.6361 59.6218 68.1047 59.7139C68.4092 59.7829 68.6904 59.806 68.9715 59.806C69.2526 59.806 69.5103 59.7829 69.7681 59.7139C70.7052 59.5067 71.6891 59.0233 72.6965 58.3327C73.2354 57.9643 73.7742 57.527 74.3365 57.0205C74.3365 57.0205 75.4142 57.7802 75.4142 57.8032C75.4845 57.8492 75.5547 57.8723 75.625 57.8953C75.6719 57.8953 75.6953 57.8953 75.7422 57.8953C75.9062 57.8953 76.0936 57.8262 76.3044 57.7111C76.5153 57.573 76.7261 57.3198 76.8901 57.0205C76.9604 56.9054 77.1244 56.5831 77.4055 56.0537C77.6398 55.5702 77.9444 54.9947 78.2724 54.3272L78.3895 54.0739C78.6004 53.6365 78.8346 53.1992 79.0689 52.7157C78.9284 52.3244 78.8815 51.887 78.9049 51.4726Z" fill="#257972"/>
<path d="M89.8692 50.9662C89.5412 50.5058 89.3069 49.9764 89.1898 49.4008C89.1429 49.1937 89.1195 48.9865 89.0961 48.7793C88.8618 49.1246 88.6275 49.4699 88.3932 49.8152C87.831 50.6209 87.2453 51.3806 86.6127 52.0942C85.9802 52.8078 85.3476 53.4294 84.7151 53.9358C84.0357 54.4883 83.3563 54.8566 82.7003 54.9948C82.3723 55.0638 81.7632 55.1099 81.7397 55.1099L83.1923 56.1458C83.3563 56.2609 83.5437 56.376 83.7545 56.445C83.9888 56.5371 84.2231 56.5832 84.5042 56.5832C84.7385 56.5832 85.0196 56.5601 85.3008 56.4911C85.8865 56.3529 86.4956 56.0307 87.1281 55.5242C87.7373 55.0408 88.3464 54.4193 88.9555 53.7286C89.5178 53.0841 90.0566 52.3935 90.572 51.6798C90.3143 51.4727 90.0801 51.2425 89.8692 50.9662Z" fill="#257972"/>
<path d="M57.609 35.9112C57.5622 36.8781 57.3279 38.1672 56.9531 39.7095C56.6251 41.1598 56.2502 42.5871 55.852 43.9453C55.4537 45.3035 55.032 46.5926 54.5869 47.7666C54.1651 48.9637 53.72 50.0687 53.2983 51.0815C52.9 52.0254 52.5252 52.8541 52.1972 53.5908C52.0098 55.1561 52.0098 56.3762 52.1972 57.228C52.3143 57.7114 52.4549 57.9186 52.5252 57.9186C52.5486 57.9186 52.5721 57.9186 52.5955 57.9186C52.9469 57.8265 53.3452 57.5502 53.7434 57.0438C53.9543 56.7675 54.1652 56.4683 54.376 56.146C54.3994 55.9158 54.4229 55.6626 54.4463 55.4094C54.7743 54.6727 55.1491 53.7979 55.5708 52.8541C55.8285 52.2556 56.0862 51.611 56.3439 50.9204C56.0862 50.8283 55.852 50.7132 55.6645 50.5521C55.3365 50.2989 54.9617 49.8154 54.9617 48.9407C54.9617 48.5033 55.0788 48.0659 55.3131 47.6285C55.524 47.2602 55.7582 46.8919 56.0394 46.5926C56.3205 46.2933 56.6251 46.0171 56.9765 45.8099C57.3279 45.5797 57.6559 45.4416 57.9839 45.3495C58.0776 45.3265 58.1479 45.3265 58.2416 45.3035C58.593 44.0834 58.921 42.8173 59.2256 41.5051C59.6004 39.9628 59.8113 38.7197 59.8581 37.7758C59.9284 36.5328 59.8347 36.1874 59.6238 36.0723C59.6238 36.0723 57.609 34.6451 57.609 34.6221C57.6325 35.0134 57.6325 35.4278 57.609 35.9112Z" fill="#257972"/>
<path d="M60.6548 47.2602L59.9988 46.7998C60.0691 47.007 60.1393 47.2142 60.1862 47.4444C60.3268 47.3753 60.4908 47.3293 60.6548 47.2602Z" fill="#257972"/>
<path d="M73.0479 43.347C72.9776 44.1757 72.7668 44.9584 72.4154 45.6951C72.0874 46.4087 71.6657 47.0763 71.2205 47.6978C70.7754 48.3194 70.2834 48.8949 69.768 49.4013C69.276 49.9078 68.8075 50.3682 68.3623 50.8286C67.8704 51.289 67.4252 51.7264 66.9801 52.1407C66.6521 52.44 66.3475 52.7393 66.0664 53.0155C66.0898 53.3378 66.1601 53.614 66.2773 53.8212C66.3944 54.0514 66.535 54.2356 66.699 54.3507C66.863 54.4658 67.0269 54.5118 67.2378 54.5349C67.3081 54.5349 67.3549 54.5349 67.4252 54.5349C67.6361 54.5349 67.8469 54.5118 68.0578 54.4658C68.3858 54.3967 68.7372 54.2356 69.0886 54.0514C69.1823 53.9593 69.276 53.8673 69.3932 53.7752C69.8383 53.3608 70.2834 52.9234 70.7754 52.463C71.2205 52.0256 71.6891 51.5652 72.1811 51.0588C72.6731 50.5524 73.1416 49.9999 73.5868 49.4013C74.0319 48.8028 74.4302 48.1582 74.7347 47.4676C75.0627 46.777 75.2501 46.0404 75.3204 45.2807C75.3673 44.5441 75.1799 43.9686 74.7582 43.5772C74.7113 43.5312 72.9776 42.2881 72.9776 42.2881C73.0245 42.5873 73.0713 42.9557 73.0479 43.347Z" fill="#257972"/>
<path d="M98.4671 49.2633C98.2329 48.941 98.0454 48.5497 97.9049 48.1123C97.1786 49.0792 96.4758 49.9309 95.7729 50.6215C94.9295 51.4963 94.2033 51.9797 93.5473 52.1178C93.149 52.2099 92.7976 52.2559 92.4462 52.2559C92.3759 52.2559 92.2822 52.2559 92.2119 52.2559L93.5004 53.1768C93.7113 53.3379 93.9456 53.476 94.2033 53.5681C94.4844 53.6832 94.8124 53.7292 95.1638 53.7292C95.4684 53.7292 95.7964 53.6832 96.1478 53.6141C96.7101 53.476 97.3426 53.0386 98.1392 52.2329C98.7014 51.6574 99.2871 50.9898 99.8728 50.2302C99.2871 50.069 98.8186 49.7467 98.4671 49.2633Z" fill="#257972"/>
<path d="M103.34 49.7926C102.801 50.1379 102.216 50.3221 101.63 50.3681C101.443 50.3911 101.255 50.3911 101.091 50.3911C100.951 50.3911 100.787 50.3911 100.646 50.3681L102.075 51.381C102.52 51.7033 103.106 51.8644 103.832 51.8644C103.879 51.8644 103.949 51.8644 103.996 51.8644C104.254 50.7134 104.512 49.6085 104.746 48.6416C104.301 49.102 103.832 49.4934 103.34 49.7926Z" fill="#257972"/>
<path d="M82.2082 40.1011C82.1848 40.2623 82.1379 40.4234 82.0911 40.5845C82.1379 40.5615 82.1614 40.5615 82.1614 40.5615C82.3722 40.4464 82.6299 40.3543 83.0282 40.2623C83.2156 40.2162 83.4265 40.1932 83.5905 40.1932C83.9185 40.1932 84.1996 40.2623 84.4573 40.4234C84.387 40.0781 84.2465 39.7788 84.0356 39.4796C83.9653 39.3645 83.8482 39.2724 83.7545 39.2033C83.731 39.2033 82.0911 38.0293 82.0911 38.0293C82.1848 38.2595 82.2316 38.5127 82.2551 38.7659C82.3253 39.0882 82.3019 39.5256 82.2082 40.1011Z" fill="#257972"/>
<path d="M69.0886 44.7507C69.0886 44.6586 69.1121 44.5896 69.1121 44.5205C69.0184 44.5896 68.8778 44.6816 68.7138 44.8658C68.4092 45.1881 68.0812 45.6255 67.7533 46.1549C67.4253 46.7305 67.1207 47.398 66.8161 48.1807C66.7927 48.2498 66.7693 48.2958 66.7458 48.3649C67.6127 47.4441 68.2218 46.6844 68.5498 46.0859C68.9481 45.3953 69.0652 44.9809 69.0886 44.7507Z" fill="#257972"/>
<path d="M85.91 43.2781C85.9802 43.9687 85.8163 44.7514 85.418 45.5571C85.0666 46.2708 84.6214 47.0765 84.1294 47.9512C83.8249 48.4577 83.5437 49.0562 83.2392 49.6777C82.9346 50.3223 82.8878 50.7367 82.9112 50.9439C82.9112 51.0129 82.9346 51.082 82.9581 51.128C83.0049 51.128 83.0986 51.105 83.1923 51.082C83.3563 51.0359 83.6609 50.9208 84.106 50.5295C84.5277 50.1612 84.9728 49.7008 85.3945 49.1713C85.8631 48.6188 86.3082 48.0203 86.7534 47.3987C87.1985 46.7542 87.6202 46.1326 88.0185 45.5111C88.0887 45.419 88.1356 45.3269 88.1825 45.2348C88.159 44.9586 88.1122 44.6593 88.0419 44.3371C87.9716 43.9918 87.831 43.6925 87.667 43.4162C87.5265 43.186 87.3625 43.0019 87.1751 42.8638C87.1751 42.8638 85.6288 41.7588 85.6054 41.7588C85.6757 41.943 85.7225 42.1041 85.7694 42.3113C85.8397 42.6336 85.8865 42.9789 85.91 43.2781Z" fill="#257972"/>
<path d="M103.856 37.2009C103.762 37.6382 103.621 38.2137 103.41 38.8813C103.223 39.5259 103.012 40.2165 102.778 40.9532C102.567 41.6438 102.356 42.2883 102.192 42.8869C101.981 43.6005 101.911 44.0609 101.911 44.0609C101.7 45.281 101.77 45.8795 101.864 46.1788C101.911 46.2939 101.934 46.3169 101.934 46.3169C101.934 46.3169 102.098 46.3169 102.169 46.2939C102.216 46.2708 102.426 46.2248 102.778 45.8565C103.106 45.5342 103.434 45.1198 103.762 44.6364C104.113 44.1299 104.441 43.5544 104.793 42.9329C105.004 42.5185 105.214 42.1272 105.402 41.7128C105.519 41.3675 105.613 41.0222 105.706 40.6999C105.894 40.0323 106.058 39.4799 106.128 39.0425C106.315 38.2137 106.339 37.6152 106.245 37.2239C106.198 37.0397 106.105 36.9016 105.941 36.7865C105.917 36.7635 104.043 35.4283 104.02 35.4053C104.09 35.8657 104.02 36.4412 103.856 37.2009Z" fill="#257972"/>
<path d="M113.859 35.175C113.813 35.0599 113.719 34.9448 113.602 34.8758C113.602 34.8758 111.704 33.5176 111.681 33.5176C111.751 33.9319 111.751 34.4384 111.657 35.106C111.587 35.5434 111.446 36.1189 111.236 36.8095C111.048 37.4771 110.814 38.2828 110.556 39.2036C110.298 40.1474 110.017 41.2294 109.736 42.4034C109.455 43.5774 108.916 46.3859 108.916 46.3859C108.658 47.606 108.377 49.0102 108.073 50.5526C107.815 51.9108 107.51 53.5222 107.136 55.5249C106.784 57.4356 106.386 59.6686 105.964 62.1548C105.824 63.0065 105.449 63.559 104.863 63.8353C104.582 63.9734 104.254 64.0424 103.949 64.0655L105.636 65.2625C105.683 65.2855 105.73 65.3316 105.824 65.3776C105.894 65.4237 105.988 65.4467 106.058 65.4927H106.081C106.245 65.5388 106.409 65.5618 106.573 65.5618C106.855 65.5618 107.136 65.4927 107.393 65.3776C107.815 65.1704 108.096 64.71 108.237 64.0194C108.658 61.5332 109.033 59.3003 109.408 57.3896C109.783 55.3868 110.088 53.7754 110.345 52.4172C110.65 50.8749 110.931 49.4706 111.189 48.2505C111.446 46.7773 111.727 45.4421 112.032 44.245C112.313 43.071 112.594 41.989 112.875 41.0452C113.133 40.1244 113.367 39.3187 113.555 38.6511C113.742 37.9835 113.883 37.431 113.953 37.0167C114.047 36.1189 114.023 35.5434 113.859 35.175Z" fill="#257972"/>
<path d="M103.504 30.5708C103.387 30.8931 103.223 31.1693 102.966 31.4225C102.661 31.7218 102.31 31.9059 101.911 31.929C101.7 31.952 101.466 31.975 101.232 31.975C101.185 31.975 101.044 31.975 101.044 31.975C100.81 31.975 100.529 31.998 100.224 32.0211C99.8496 32.0671 99.4045 32.1362 98.8891 32.2052C98.3971 32.2743 97.788 32.4124 97.1086 32.5735C96.9914 32.5966 96.8743 32.6426 96.7103 32.6886C96.6634 32.7117 96.64 32.7117 96.5931 32.7117C96.5463 32.9649 96.4994 33.1951 96.4526 33.4483C96.3823 33.8397 96.2652 34.277 96.1246 34.7144C95.8435 35.7273 95.5155 36.8323 95.1406 38.0063C94.8126 39.0422 94.4144 40.2393 93.9458 41.5975C93.5007 42.9096 92.9853 44.3369 92.423 45.8562C92.2824 46.9612 92.3761 47.4907 92.4464 47.7439C92.587 48.2043 92.7276 48.3424 92.7978 48.3884C92.8447 48.4115 92.9384 48.4575 93.1024 48.4575C93.1727 48.4575 93.3601 48.4345 93.3601 48.4345C93.407 48.4345 93.6412 48.3885 94.1567 47.9511C94.3675 47.7669 94.6018 47.5367 94.8361 47.3065C95.3515 45.9253 95.82 44.6131 96.2417 43.3931C96.7103 42.0579 97.0851 40.8378 97.4131 39.8249C97.788 38.6509 98.116 37.5459 98.3971 36.533C98.5377 36.0956 98.6314 35.6813 98.7017 35.3129C98.7719 34.9907 98.8422 34.6454 98.9125 34.3001C99.0531 34.277 99.1702 34.231 99.2874 34.185C99.4513 34.1389 99.5919 34.0929 99.7091 34.0699C100.388 33.9087 100.998 33.7706 101.513 33.7015C102.028 33.6325 102.474 33.5634 102.872 33.5174C103.2 33.4713 103.504 33.4483 103.762 33.4483C103.762 33.4483 103.903 33.4483 103.949 33.4483C104.184 33.4483 104.395 33.4253 104.582 33.4023C104.863 33.4023 105.121 33.2641 105.332 33.057C105.519 32.8498 105.683 32.6196 105.753 32.3664C105.847 32.1131 105.871 31.8829 105.871 31.6757C105.847 31.3995 105.73 31.2844 105.613 31.2153L103.622 29.7881C103.622 30.0413 103.598 30.2945 103.504 30.5708Z" fill="#257972"/>
<path d="M97.5771 26.7496C97.5536 27.3252 97.4834 28.0158 97.3662 28.8445C97.9051 28.7294 98.397 28.6603 98.8656 28.6143C99.217 28.5913 99.5216 28.5682 99.8262 28.5452C99.8496 27.5554 99.7559 27.2791 99.6622 27.141C99.6622 27.141 99.4982 27.0029 99.4747 26.9798L97.5536 25.5986C97.5771 25.8749 97.6005 26.2432 97.5771 26.7496Z" fill="#257972"/>
<path d="M90.1973 34.9907C89.5414 35.1518 88.8854 35.2209 88.2997 35.2209C88.206 35.2209 88.1123 35.2209 88.0185 35.2209C87.7843 35.2209 87.5734 35.1979 87.386 35.1748L89.1196 36.4179C89.1899 36.464 89.2368 36.487 89.3071 36.51C89.6351 36.6021 90.783 36.6942 90.783 36.6942C90.9002 36.0036 91.0407 35.336 91.1813 34.6914C90.8299 34.8295 90.5019 34.9216 90.1973 34.9907Z" fill="#257972"/>
<path d="M18.1332 15.6767C18.0863 14.894 17.8286 14.1804 17.3835 13.5819C16.2824 11.9935 13.9864 11.9704 10.4723 13.5128C9.83971 13.789 9.11345 14.2725 8.29347 14.9631C7.4735 15.6307 6.72381 16.4364 6.02097 17.3572C5.34156 18.278 4.77929 19.2909 4.38102 20.3959C3.98275 21.5008 3.86561 22.6288 4.0296 23.7798C4.17017 24.6086 4.42788 25.3452 4.80272 25.9898C5.17757 26.6343 5.6227 27.2099 6.09126 27.7163C6.55981 28.2227 7.0518 28.6832 7.54378 29.0975C8.03577 29.5119 8.45747 29.9032 8.80889 30.2716C9.16031 30.6399 9.51172 31.1003 9.83971 31.6528C10.1677 32.2053 10.4488 32.8268 10.6597 33.5174C10.8705 34.208 10.9643 34.9447 10.9643 35.7504C10.9643 36.5561 10.7534 37.3848 10.402 38.2366C9.27744 40.999 7.94206 42.5413 6.34896 42.8636C5.69298 43.0018 5.17757 42.9097 4.77929 42.6334C4.38102 42.3572 4.07646 41.9658 3.88904 41.4824C3.67819 40.999 3.56105 40.4925 3.53762 39.917C3.51419 39.3646 3.53762 38.8581 3.6079 38.4207C3.65476 38.2826 3.72504 38.1215 3.79532 37.9143C3.93589 37.569 4.14674 37.1546 4.47473 36.7172C4.24045 36.6942 3.98275 36.7172 3.70161 36.7863C3.42048 36.8553 3.16277 36.9474 2.92849 37.0395C2.64736 37.1776 2.36622 37.3158 2.08509 37.4539C1.85081 37.615 1.61653 37.7992 1.40568 37.9603C1.21826 38.1215 1.00741 38.2826 0.819986 38.4898C0.632563 38.697 0.44514 38.9041 0.257717 39.1343C0.0234385 39.9401 -0.0468451 40.6767 0.0702943 41.3443C0.187434 42.0119 0.374856 42.5874 0.609135 43.0708C0.866842 43.6233 1.24169 44.1297 1.68682 44.5671C2.08509 44.9585 2.53022 45.1887 3.02221 45.3038C3.51419 45.4189 4.0296 45.4419 4.52159 45.4189C5.01357 45.3728 5.48213 45.2808 5.92726 45.1196C6.37239 44.9585 6.77066 44.8204 7.09865 44.6822C7.52035 44.4981 8.03577 44.1988 8.66832 43.7614C9.30087 43.324 9.93342 42.7025 10.5425 41.9198C11.1751 41.1371 11.7374 40.1472 12.2528 38.9502C12.7682 37.7531 13.1665 36.3259 13.4007 34.6914C13.5647 33.5634 13.5647 32.5506 13.4242 31.6758C13.2836 30.801 13.0728 30.0413 12.7448 29.3738C12.4168 28.7062 12.0419 28.1537 11.5968 27.6703C11.1517 27.1868 10.73 26.7725 10.2848 26.4041C9.83971 26.0358 9.44144 25.7366 9.06659 25.4373C8.69175 25.1611 8.41061 24.8848 8.24662 24.6316C8.10605 24.4474 7.96548 24.2402 7.82492 23.987C7.66092 23.7338 7.52035 23.4806 7.40322 23.1813C7.26265 22.882 7.16894 22.5598 7.09865 22.1914C7.02837 21.8231 7.00494 21.4088 7.0518 20.9483C7.09865 20.3728 7.28608 19.7743 7.61407 19.1528C7.94206 18.5312 8.36376 17.9327 8.83232 17.3802C9.30087 16.8277 9.83971 16.2983 10.4254 15.8379C11.0111 15.3544 11.5499 14.9861 12.0888 14.6868C12.6276 14.3876 13.0962 14.2034 13.5413 14.1344C13.963 14.0653 14.291 14.1344 14.5019 14.3415C14.8767 14.7559 15.111 15.2163 15.1813 15.7227C15.275 16.2522 15.275 16.7817 15.2047 17.3342C15.1344 17.8867 14.9938 18.4391 14.8064 19.0146C14.619 19.5671 14.4316 20.0736 14.2442 20.511C14.0567 20.9483 13.8927 21.3397 13.7287 21.639C13.5647 21.9382 13.5179 22.1224 13.5413 22.1914C13.6819 22.2145 13.8224 22.2375 14.0099 22.2145C14.1739 22.1914 14.3379 22.1684 14.5019 22.1224C14.6659 22.0763 14.8533 22.0073 15.0173 21.9382C15.6498 21.662 16.1184 21.4088 16.3995 21.1785C16.6807 20.9483 16.8915 20.7642 17.0321 20.603C17.1024 20.534 17.2429 20.2577 17.4303 19.7513C17.6412 19.2448 17.8052 18.6233 17.9458 17.9097C18.1332 17.2191 18.18 16.4594 18.1332 15.6767Z" fill="#C1272D"/>
<path d="M20.9211 36.1643C21.3428 36.0723 21.7411 35.8651 22.1628 35.5428C22.5845 35.2205 22.9827 34.8522 23.381 34.4148C23.7793 33.9774 24.1541 33.494 24.5056 32.9415C24.857 32.412 25.185 31.8595 25.4895 31.3301C25.6769 32.2969 26.0518 33.0566 26.5672 33.6091C27.0826 34.1846 27.8557 34.3457 28.8866 34.0925C29.5191 33.9544 30.1048 33.6321 30.6671 33.1487C31.2059 32.6653 31.7213 32.0898 32.2133 31.3761C32.6819 30.6855 33.127 29.9028 33.5253 29.0741C33.9236 28.2454 34.275 27.3936 34.5795 26.5419C34.7435 26.5419 34.8841 26.5419 35.0481 26.5419C35.2121 26.5189 35.3527 26.4958 35.4698 26.4728C36.2663 26.2886 37.0395 25.9894 37.7892 25.575C38.328 25.2758 38.8434 24.9535 39.312 24.6082C39.1948 25.0456 39.1245 25.4599 39.0777 25.8743C38.9605 27.0023 39.0543 27.9001 39.312 28.6137C39.5931 29.3273 39.9445 29.8568 40.4131 30.2251C40.8816 30.5934 41.3736 30.8467 41.9359 30.9387C42.4982 31.0308 43.0136 31.0308 43.4821 30.9157C44.3958 30.7085 45.3329 30.2712 46.3169 29.6036C47.2774 28.936 48.238 28.1303 49.1751 27.2095C49.9951 26.3807 50.7916 25.4829 51.5413 24.4931C51.5882 24.9305 51.6585 25.3448 51.799 25.6901C52.0802 26.4037 52.4316 26.9332 52.9001 27.3246C53.3687 27.7159 53.8607 27.9461 54.4229 28.0612C54.9852 28.1763 55.5006 28.1533 55.9692 28.0612C56.8829 27.854 57.82 27.4166 58.8039 26.7491C59.7645 26.0815 60.725 25.2758 61.6622 24.3319C62.5993 23.3881 63.4661 22.3752 64.3095 21.2472C64.7078 20.7177 65.0592 20.1883 65.4106 19.6588C65.27 20.6026 65.1998 21.2702 65.1763 21.6155C65.1295 22.0529 65.1763 22.5133 65.27 22.9737C65.3872 23.4572 65.5746 23.8715 65.8323 24.2168C66.1134 24.5851 66.4883 24.8384 66.9568 25.0225C67.4254 25.2067 68.0345 25.2067 68.7608 25.0456C69.2528 24.9305 69.8853 24.5161 70.635 23.7794C71.3847 23.0428 72.1344 22.168 72.9309 21.1321C73.7275 20.0962 74.4538 18.9912 75.18 17.8402C75.8829 16.6892 76.4686 15.6303 76.8903 14.6864C77.0308 14.3872 77.0777 14.157 77.0777 13.9958C77.0777 13.8347 77.0074 13.7426 76.9371 13.6966C76.8434 13.6505 76.7263 13.6505 76.5857 13.7196C76.4451 13.7886 76.328 13.9038 76.2343 14.0419C76.0937 14.2491 75.8829 14.6174 75.5549 15.1238C75.2269 15.6303 74.852 16.2058 74.4069 16.8503C73.9618 17.4949 73.4932 18.1395 72.9778 18.8301C72.4624 19.4977 71.947 20.1422 71.455 20.7177C70.963 21.2933 70.471 21.7997 70.0025 22.168C69.5339 22.5594 69.1356 22.7665 68.8076 22.7896C68.3859 22.8586 68.0345 22.8126 67.7534 22.6284C67.5191 22.4673 67.3083 22.145 67.1443 21.6846C66.9803 21.2242 66.9568 20.4875 67.0974 19.4977C67.6597 18.0244 68.1751 16.6432 68.6437 15.354C69.1122 14.0649 69.4871 12.9139 69.815 11.924C70.1899 10.796 70.5179 9.73708 70.799 8.77023C70.9396 8.35587 71.0333 7.96453 71.1036 7.5962C71.1739 7.22788 71.2676 6.85955 71.3379 6.49123C71.5019 6.44519 71.6893 6.39915 71.8533 6.35311C72.0173 6.30707 72.1578 6.26103 72.2984 6.23801C73.0012 6.07686 73.6104 5.93874 74.1258 5.86968C74.6412 5.7776 75.1097 5.73156 75.4846 5.68552C75.8594 5.63948 76.1874 5.61646 76.4686 5.61646C76.7497 5.61646 76.984 5.59344 77.1948 5.57042C77.4057 5.57042 77.6165 5.47834 77.7805 5.29418C77.9445 5.11001 78.0851 4.92585 78.1554 4.71867C78.2257 4.51149 78.2725 4.32732 78.2491 4.14316C78.2491 3.959 78.1554 3.86692 78.0148 3.86692C77.8508 3.86692 77.64 3.82088 77.3354 3.77484C77.0308 3.7288 76.6326 3.70578 76.1171 3.70578C75.6252 3.70578 75.016 3.7288 74.2898 3.82088C73.5869 3.88994 72.767 4.02806 71.8533 4.25826C72.0641 3.06121 72.1813 2.09436 72.2047 1.35771C72.2281 0.621064 72.1813 0.160659 72.0641 0.0225372C71.947 -0.0925641 71.783 -0.115584 71.5487 -0.0925641C71.3144 -0.0695438 71.0567 -0.000483073 70.799 0.0915979C70.5413 0.183679 70.2836 0.29878 70.0728 0.436902C69.8385 0.575023 69.6979 0.713145 69.6276 0.828246C69.4168 1.19657 69.1591 1.7951 68.9014 2.66987C68.6202 3.52162 68.3391 4.53451 68.058 5.6625C67.6831 5.82364 67.3083 5.96176 66.9334 6.09988C66.5586 6.23801 66.1603 6.37613 65.7386 6.49123C65.1763 6.65237 64.6375 6.76747 64.1689 6.85955C63.6769 6.95163 63.2318 7.02069 62.8335 7.06674C62.693 7.08976 62.5524 7.20486 62.3884 7.366C62.2244 7.52714 62.0839 7.7113 61.9901 7.89546C61.873 8.07963 61.8261 8.26379 61.8027 8.44795C61.7793 8.60909 61.8496 8.72419 62.037 8.77023C62.3416 8.86232 62.8101 8.90836 63.4192 8.90836C64.0518 8.93138 64.7078 8.8393 65.4106 8.67815C65.7152 8.60909 66.0432 8.49399 66.418 8.37889C66.7929 8.24077 67.1677 8.10265 67.5425 7.98755C67.238 9.34574 66.9568 10.773 66.6757 12.2233C66.3946 13.6735 66.1603 15.0317 65.9494 16.2979C65.9026 16.5971 65.8557 16.8964 65.8089 17.1726C65.7854 17.1956 65.7855 17.2187 65.762 17.2417C65.3169 17.8863 64.7781 18.6459 64.0986 19.5437C63.4427 20.4415 62.7164 21.3163 61.9433 22.168C61.1702 23.0198 60.3736 23.7794 59.5771 24.447C58.7805 25.1146 57.984 25.529 57.2577 25.7131C56.9063 25.8052 56.5549 25.8282 56.2269 25.8052C55.8989 25.7822 55.5943 25.6901 55.3366 25.506C55.0789 25.3448 54.8681 25.0916 54.6806 24.7463C54.5166 24.401 54.3995 23.9636 54.3761 23.4111C54.7041 23.0888 55.0789 22.7205 55.524 22.3292C55.9692 21.9378 56.4143 21.5004 56.9063 21.063C57.3514 20.6487 57.7966 20.1883 58.2885 19.7049C58.7805 19.2214 59.2491 18.692 59.6708 18.1165C60.1159 17.5409 60.4908 16.9424 60.7953 16.2748C61.1233 15.6303 61.3107 14.9397 61.3576 14.2491C61.4044 13.6275 61.2404 13.1441 60.8656 12.7988C60.4907 12.4765 59.9051 12.4074 59.0617 12.5916C58.1948 12.7988 57.328 13.2822 56.4612 14.0419C55.5943 14.8015 54.8212 15.6763 54.1418 16.6892C53.4624 17.7021 52.8767 18.761 52.4081 19.866C52.0099 20.7868 51.7756 21.6386 51.635 22.4212C51.635 22.4212 51.635 22.4443 51.6116 22.4443C50.9556 23.319 50.2294 24.1938 49.4562 25.0456C48.6831 25.8973 47.8866 26.657 47.09 27.3246C46.27 27.9921 45.4969 28.4065 44.7707 28.5677C44.4192 28.6597 44.0678 28.6828 43.7398 28.6597C43.4118 28.6367 43.1073 28.5446 42.8496 28.3835C42.5919 28.2223 42.3576 27.9691 42.1936 27.6238C42.0296 27.3015 41.9125 26.8642 41.889 26.3117C42.217 25.9894 42.5919 25.6441 43.037 25.2297C43.4821 24.8384 43.9273 24.401 44.4192 23.9636C44.8644 23.5492 45.3095 23.1119 45.8015 22.6054C46.2935 22.122 46.762 21.5925 47.1837 21.017C47.6289 20.4415 48.0037 19.843 48.3083 19.1984C48.6128 18.5538 48.8237 17.8863 48.8705 17.1726C48.9174 16.5511 48.7534 16.0677 48.3785 15.7454C48.0037 15.4231 47.418 15.354 46.5746 15.5382C45.7078 15.7454 44.8409 16.2288 43.9741 16.9885C43.1073 17.7481 42.3342 18.6229 41.6548 19.6128C40.9753 20.6026 40.4131 21.6386 39.9445 22.7205C39.8508 22.7896 39.7571 22.8816 39.6634 22.9507C39.2651 23.273 38.8434 23.5492 38.3514 23.8025C37.8594 24.0557 37.344 24.2629 36.7818 24.378C36.1726 24.5161 35.6572 24.5621 35.2824 24.47C35.6104 23.296 35.8681 22.2601 36.0321 21.3623C36.1961 20.4645 36.2898 19.82 36.2898 19.4747C36.2898 18.9912 36.0086 18.8071 35.4698 18.9452C35.1652 19.0142 34.8372 19.1754 34.4624 19.4056C34.111 19.6358 33.7596 19.9581 33.455 20.3494C33.127 20.7408 32.8927 21.2012 32.6819 21.7306C32.4945 22.2601 32.3773 22.8586 32.3773 23.5492C32.3773 23.8485 32.4007 24.1247 32.4476 24.3319C32.4945 24.5621 32.5413 24.7693 32.6116 24.9995C32.471 25.598 32.2836 26.2886 32.0493 27.0713C31.8151 27.854 31.5339 28.6137 31.2059 29.3503C30.8779 30.087 30.5265 30.7085 30.1282 31.261C29.73 31.8135 29.2848 32.1358 28.7929 32.2509C28.4649 32.32 28.1837 32.2739 27.9495 32.0667C27.7152 31.8826 27.5043 31.6063 27.3169 31.261C27.1529 30.9157 27.0123 30.5244 26.9186 30.087C26.8249 29.6496 26.7312 29.2352 26.6843 28.8439C26.7078 28.7518 26.7546 28.6597 26.8249 28.5446C27.5043 26.8642 28.09 25.3218 28.582 23.9406C29.074 22.5594 29.3083 21.5004 29.3083 20.8098C29.3083 20.5336 29.2146 20.3264 29.0506 20.2113C28.8866 20.0962 28.6523 20.0732 28.3946 20.1422C27.7386 20.3034 27.1998 20.6257 26.8015 21.1091C26.4032 21.5925 26.0752 22.2141 25.8409 22.9277C25.6067 23.6643 25.4661 24.47 25.3724 25.3909C25.3021 26.3117 25.2552 27.2555 25.2552 28.2223C25.2552 28.3835 25.2552 28.5216 25.2552 28.6367C25.2552 28.7748 25.2552 28.8899 25.2787 29.0281C24.6461 30.6395 23.9901 31.8135 23.3342 32.5732C22.6782 33.3328 22.0691 33.7702 21.5068 33.9084C21.0382 34.0235 20.7102 33.9314 20.4994 33.6782C20.2885 33.4249 20.1714 32.9415 20.1714 32.2509C20.1714 31.6754 20.2651 30.9618 20.4291 30.064C20.5931 29.1662 20.804 28.2684 21.0382 27.3476C21.2725 26.4268 21.4834 25.575 21.7176 24.7693C21.9285 23.9866 22.0925 23.3881 22.1862 22.9967C22.2565 22.7205 22.2799 22.4903 22.2799 22.3292C22.2799 22.168 22.1393 22.099 21.9051 22.122C21.4131 22.191 20.8977 22.3982 20.3823 22.7205C19.8668 23.0428 19.5388 23.3421 19.3749 23.5953C19.2811 23.7794 19.164 24.1708 18.9766 24.7463C18.8126 25.3218 18.6252 25.9894 18.4612 26.726C18.2972 27.4857 18.1566 28.2914 18.016 29.1662C17.8755 30.0409 17.8286 30.8927 17.8286 31.6754V32.0667C17.8286 32.6883 17.8755 33.2638 17.9926 33.7933C18.1097 34.3227 18.2737 34.7601 18.5314 35.1284C18.7892 35.4967 19.0937 35.75 19.492 35.8881C19.8668 36.2794 20.3354 36.3025 20.9211 36.1643ZM55.1258 18.8531C55.4303 18.0704 55.7583 17.3798 56.1097 16.8043C56.4612 16.2288 56.8126 15.7684 57.164 15.4001C57.5154 15.0548 57.8434 14.8476 58.1011 14.7785C58.3354 14.7325 58.5228 14.7785 58.6634 14.9397C58.8039 15.1008 58.8274 15.4001 58.8039 15.8144C58.7571 16.2288 58.5462 16.7583 58.1714 17.4028C57.7966 18.0474 57.1406 18.8531 56.2035 19.7969C55.8989 20.1192 55.5943 20.4185 55.2898 20.6947C54.9852 20.971 54.7041 21.2472 54.4464 21.5004C54.5869 20.5336 54.8212 19.6588 55.1258 18.8531ZM43.6227 19.7509C43.9741 19.1754 44.3255 18.715 44.6769 18.3697C45.0284 18.0244 45.3564 17.8172 45.6141 17.7481C45.8483 17.7021 46.0358 17.7481 46.1763 17.8863C46.3169 18.0474 46.3403 18.3467 46.3169 18.761C46.27 19.1754 46.0592 19.6818 45.6843 20.3264C45.3095 20.971 44.6535 21.7537 43.7164 22.6975C43.4118 23.0198 43.1073 23.319 42.8027 23.5953C42.4982 23.8715 42.217 24.1478 41.9593 24.401C42.1233 23.4341 42.3342 22.5594 42.6387 21.7767C42.9433 21.017 43.2713 20.3264 43.6227 19.7509Z" fill="#C1272D"/>
<path d="M31.4637 60.2892C31.8151 59.2533 32.1665 57.9642 32.5179 56.4218C32.8693 54.8795 33.2442 53.3141 33.619 51.7487C34.7201 50.989 35.7041 50.1143 36.5944 49.1474C37.4846 48.1575 38.2343 47.1677 38.8669 46.1548C39.4994 45.1419 39.9914 44.152 40.3428 43.1852C40.6942 42.2183 40.8582 41.3666 40.8582 40.6069C40.8582 40.2616 40.8348 39.8933 40.8114 39.5019C40.7879 39.1106 40.6708 38.7653 40.5068 38.466C40.3428 38.1668 40.1085 37.9366 39.7806 37.7984C39.4526 37.6603 39.0309 37.6373 38.492 37.7754C37.7423 37.9596 37.0863 38.2358 36.5241 38.6041C35.9618 38.9725 35.4464 39.4099 34.9778 39.9623C34.5093 40.4918 34.0876 41.1134 33.6893 41.804C33.3145 42.4946 32.9396 43.2542 32.5882 44.083C32.2602 44.8426 31.9791 45.7865 31.7214 46.9375C31.4637 48.0885 31.206 49.3546 30.9482 50.7819C30.3391 51.1272 29.73 51.4264 29.0974 51.7027C28.4649 51.9559 27.8323 52.1631 27.1764 52.3242C26.8249 52.4163 26.4735 52.4623 26.0987 52.4854C25.7941 52.5084 25.4661 52.5084 25.0913 52.4623C24.7399 52.4163 24.3884 52.3242 24.0839 52.1401C23.9199 52.5544 23.8965 52.9227 23.9902 53.199C24.0839 53.4982 24.1776 53.7054 24.2947 53.8435C24.529 54.1658 24.9976 54.373 25.677 54.4651C26.3564 54.5572 27.2701 54.4651 28.3712 54.1889C28.7226 54.0968 29.074 54.0047 29.402 53.9126C29.73 53.8205 30.058 53.6824 30.3626 53.5443C30.1048 54.9715 29.7769 56.4218 29.402 57.9412C29.0272 59.4605 28.6055 60.9798 28.09 62.5222C27.8089 63.3279 27.5512 64.0645 27.2935 64.7091C27.0592 65.3537 26.8015 65.9292 26.5672 66.4356C26.2392 66.3896 25.9113 66.3896 25.5598 66.3896C25.2318 66.3896 24.857 66.4356 24.5056 66.5277C23.4982 66.7579 22.6782 67.0572 22.0457 67.4485C21.4131 67.8399 20.9211 68.2312 20.5463 68.6456C20.1949 69.0599 19.9372 69.4743 19.82 69.8656C19.6794 70.257 19.6092 70.6023 19.5857 70.8785C19.5389 71.6382 19.7497 72.1677 20.2183 72.513C20.6868 72.8353 21.296 72.9273 22.0457 72.7432C23.0062 72.513 23.873 72.1216 24.6696 71.5461C25.4661 70.9706 26.169 70.257 26.8249 69.4743C27.2935 69.7045 27.8323 69.9577 28.3712 70.211C28.9334 70.4872 29.5191 70.7174 30.1517 70.9016C30.7843 71.0857 31.4637 71.2238 32.1899 71.2929C32.9162 71.362 33.6893 71.3159 34.5093 71.1087C35.3058 70.9246 35.9618 70.5793 36.4772 70.0498C36.9926 69.5203 37.4143 68.9448 37.6955 68.3463C37.9766 67.7478 38.1406 67.1493 38.2109 66.5968C38.2577 66.0443 38.2109 65.6529 38.0703 65.3997C37.6486 65.9752 37.2035 66.4356 36.7349 66.804C36.2429 67.1723 35.7978 67.4715 35.3527 67.6787C34.8607 67.9319 34.3453 68.1161 33.8064 68.2773C33.3145 68.3924 32.8225 68.4154 32.3773 68.3693C31.9322 68.3233 31.4871 68.2082 31.042 68.0701C30.5968 67.9319 30.1751 67.7708 29.7534 67.5636C29.3317 67.3795 28.91 67.1723 28.4883 67.0111C29.1677 65.8601 29.73 64.6861 30.1986 63.489C30.7842 62.315 31.1591 61.233 31.4637 60.2892ZM34.9544 45.8325C35.1184 45.1419 35.2824 44.6124 35.3761 44.2441C35.7041 43.1852 36.1024 42.3564 36.5944 41.7579C37.0629 41.1594 37.4612 40.8141 37.7658 40.745C38.1172 40.6529 38.2812 40.9292 38.2812 41.5277C38.2812 42.5406 37.9297 43.6456 37.2269 44.8426C36.5241 46.0397 35.5635 47.1677 34.3921 48.2496C34.5796 47.3288 34.767 46.5231 34.9544 45.8325ZM23.9667 70.1419C23.5919 70.3491 23.2639 70.5332 22.9828 70.6944C22.7485 70.7865 22.5611 70.8095 22.4205 70.7634C22.2799 70.7174 22.2331 70.6023 22.2331 70.4642C22.2331 70.234 22.4205 69.9577 22.7719 69.6585C23.1233 69.3362 23.709 69.083 24.4822 68.8988C24.6462 68.8528 24.9039 68.8528 25.2318 68.8988C24.7633 69.5203 24.3416 69.9347 23.9667 70.1419Z" fill="#C1272D"/>
<path d="M46.2934 39.2494C46.1294 39.1343 45.9185 39.1343 45.6843 39.2494C45.45 39.3645 45.1689 39.5717 44.8409 39.917C44.5129 40.2623 44.2317 40.6536 44.0209 41.068C43.81 41.5054 43.6929 41.9197 43.7163 42.3341C43.7398 42.7485 43.974 43.0938 44.4426 43.347C44.5832 43.4391 44.794 43.4391 45.0283 43.347C45.2626 43.2549 45.4968 43.0938 45.7311 42.8866C45.9654 42.6794 46.1762 42.4492 46.3637 42.15C46.5511 41.8737 46.6682 41.5975 46.7385 41.3212C46.8088 41.068 46.8322 40.8148 46.8088 40.5155C46.8088 40.2163 46.7385 39.963 46.6682 39.7559C46.5979 39.5257 46.4574 39.3645 46.2934 39.2494Z" fill="#C1272D"/>
<path d="M110.907 33.3099C110.767 32.9876 110.392 32.8725 109.806 32.9646C109.572 32.9876 109.314 33.0797 109.08 33.2178C108.869 33.3099 108.612 33.4711 108.354 33.6552C108.073 33.8394 107.792 34.0926 107.51 34.3919C107.862 34.7142 108.002 35.1285 107.979 35.6119C107.932 36.1184 107.838 36.832 107.674 37.7298C107.557 38.2132 107.393 38.7427 107.159 39.3643C106.925 39.9858 106.667 40.6304 106.362 41.2749C106.058 41.9425 105.753 42.5871 105.402 43.2547C105.05 43.9223 104.699 44.4978 104.348 45.0272C103.996 45.5567 103.621 45.9941 103.293 46.3394C102.942 46.6847 102.637 46.8919 102.333 46.9609C101.747 47.0991 101.372 46.8919 101.185 46.3624C101.021 45.8329 101.021 45.0042 101.208 43.9223C101.232 43.6921 101.325 43.2777 101.513 42.6792C101.677 42.0806 101.888 41.4361 102.099 40.7224C102.309 40.0088 102.52 39.3182 102.731 38.6506C102.919 37.983 103.059 37.4305 103.153 37.0162C103.317 36.2335 103.364 35.658 103.27 35.2897C103.176 34.9444 102.825 34.7832 102.239 34.8293C102.005 34.8523 101.747 34.9213 101.513 34.9904C101.302 35.0825 101.044 35.2206 100.787 35.3587C100.505 35.4968 100.224 35.727 99.9198 36.0033C100.224 36.3486 100.318 36.855 100.201 37.5226C100.084 38.1902 99.8964 38.9959 99.6387 39.9398C99.5684 40.1469 99.4747 40.4692 99.3575 40.9296C99.2404 41.39 99.0998 41.8965 98.9827 42.472C98.9358 42.7252 98.8655 42.9554 98.8187 43.2086C98.4438 43.7611 98.0456 44.3366 97.6239 44.9121C97.1085 45.6258 96.593 46.2703 96.1011 46.8689C95.6091 47.4674 95.1171 47.9738 94.6485 48.3882C94.18 48.7795 93.7817 49.0097 93.4537 49.0328C93.032 49.1018 92.6806 49.0558 92.3994 48.8486C92.1652 48.6644 91.9543 48.3421 91.7903 47.8587C91.6263 47.3753 91.6029 46.6156 91.7435 45.5797C92.3057 44.0374 92.8212 42.6101 93.2897 41.2749C93.7583 39.9398 94.1331 38.7427 94.4611 37.7068C94.8359 36.5328 95.1639 35.4278 95.4451 34.4149C95.5856 33.9775 95.6794 33.5862 95.7496 33.1948C95.8199 32.8035 95.9136 32.4352 96.0073 32.0208C96.1713 31.9748 96.3588 31.9287 96.5228 31.8827C96.6867 31.8366 96.8273 31.7906 96.9679 31.7676C97.6707 31.6064 98.2798 31.4683 98.7953 31.3992C99.3107 31.3302 99.7792 31.2611 100.154 31.2151C100.529 31.169 100.857 31.146 101.138 31.146C101.419 31.146 101.653 31.146 101.864 31.1C102.075 31.1 102.286 31.0079 102.45 30.8237C102.614 30.6396 102.755 30.4324 102.825 30.2252C102.895 30.018 102.942 29.8108 102.919 29.6267C102.919 29.4425 102.825 29.3504 102.684 29.3274C102.52 29.3274 102.309 29.2814 102.005 29.2353C101.7 29.1893 101.302 29.1433 100.787 29.1433C100.295 29.1433 99.6855 29.1663 98.9593 29.2353C98.2564 29.3044 97.4364 29.4425 96.5228 29.6727C96.7336 28.4296 96.8507 27.4167 96.8742 26.634C96.8976 25.8514 96.8507 25.391 96.7336 25.2298C96.6165 25.1147 96.4525 25.0687 96.2182 25.0917C95.9839 25.1147 95.7262 25.1838 95.4685 25.2759C95.2108 25.3679 94.9531 25.483 94.7422 25.6212C94.508 25.7593 94.3674 25.8974 94.2971 26.0355C94.0863 26.4269 93.8285 27.0484 93.5708 27.9462C93.2897 28.844 93.0086 29.8799 92.7274 31.077C92.3526 31.2381 91.9777 31.3762 91.6029 31.5143C91.2281 31.6525 90.8298 31.7906 90.4081 31.9057C89.8458 32.0668 89.307 32.1819 88.8384 32.274C88.3699 32.3661 87.9013 32.4121 87.503 32.4812C87.3625 32.5042 87.2219 32.6193 87.0579 32.7805C86.8939 32.9416 86.7533 33.1258 86.6596 33.3329C86.5425 33.5401 86.4956 33.7243 86.4722 33.9085C86.4488 34.0926 86.5191 34.2077 86.7065 34.2538C87.011 34.3458 87.4796 34.3919 88.0887 34.4149C88.7213 34.4379 89.3773 34.3689 90.0801 34.2077C90.3847 34.1387 90.7126 34.0236 91.0875 33.8854C91.4623 33.7473 91.8372 33.6092 92.212 33.4711C91.9075 34.8983 91.6263 36.3716 91.3452 37.891C91.0641 39.4103 90.8298 40.8375 90.6189 42.1497C90.5955 42.3569 90.5486 42.5641 90.5252 42.7712C90.4315 42.8633 90.3612 42.9554 90.2909 43.0935C90.1504 43.3007 89.9629 43.669 89.6818 44.1525C89.4007 44.6359 89.0727 45.1884 88.6744 45.8099C88.2761 46.4315 87.8544 47.053 87.3859 47.7206C86.9173 48.3652 86.4722 48.9867 86.0036 49.5392C85.5351 50.0917 85.0665 50.5751 84.6214 50.9665C84.1763 51.3578 83.7546 51.611 83.4031 51.6801C82.9112 51.7952 82.5832 51.7722 82.4895 51.611C82.3723 51.4499 82.302 51.2197 82.2552 50.9434C82.2083 50.483 82.3489 49.9305 82.6535 49.286C82.958 48.6414 83.2626 48.0429 83.5671 47.5134C84.0591 46.6617 84.5043 45.879 84.8557 45.1654C85.2071 44.4517 85.3477 43.8072 85.2774 43.2547C85.2539 42.9784 85.2071 42.6792 85.1368 42.3569C85.0665 42.0346 84.9494 41.7584 84.7854 41.5051C84.6214 41.2519 84.434 41.0447 84.1997 40.9066C83.9654 40.7685 83.6609 40.7455 83.286 40.8375C82.9814 40.9066 82.7472 40.9757 82.6066 41.0677C82.466 41.1598 82.2083 41.2289 81.8803 41.321C81.6461 41.367 81.4586 41.39 81.3649 41.367C81.2478 41.344 81.1775 41.298 81.1072 41.2749C81.3415 40.8375 81.5055 40.4002 81.5992 39.9167C81.6929 39.4333 81.7163 39.042 81.6695 38.7427C81.6226 38.3053 81.4821 37.914 81.2244 37.5687C80.9667 37.2003 80.5449 37.1083 79.9358 37.2464C79.6078 37.3154 79.2798 37.5687 78.9284 37.983C78.577 38.3974 78.2724 38.8578 77.9679 39.3643C77.6867 39.8937 77.4525 40.4002 77.2885 40.9296C77.1245 41.4591 77.0542 41.8735 77.1011 42.1497C77.1479 42.495 77.2182 42.7022 77.2885 42.7712C77.3822 42.8633 77.5462 42.9784 77.7805 43.1626C77.6399 43.4388 77.4525 43.8992 77.1479 44.5438C76.8668 45.1884 76.5622 45.902 76.2108 46.6847C76.0234 47.1451 75.8125 47.6285 75.6017 48.135C75.4611 48.3422 75.3205 48.5263 75.1565 48.7565C74.5006 49.6773 73.7743 50.5751 73.0012 51.4729C72.2281 52.3477 71.4315 53.1304 70.635 53.821C69.815 54.5116 69.0419 54.9259 68.3156 55.1101C67.9642 55.2022 67.6128 55.2252 67.2848 55.2022C66.9568 55.1792 66.6522 55.0641 66.3945 54.9029C66.1368 54.7188 65.9025 54.4655 65.7385 54.0972C65.5745 53.7519 65.4574 53.2915 65.434 52.716C65.762 52.3937 66.1368 52.0254 66.5819 51.611C67.0271 51.1967 67.4722 50.7593 67.9642 50.2989C68.4093 49.8845 68.8544 49.4011 69.3464 48.8946C69.8384 48.3882 70.307 47.8357 70.7287 47.2602C71.1738 46.6617 71.5486 46.0401 71.8532 45.3725C72.1578 44.705 72.3686 43.9913 72.4155 43.2547C72.4623 42.5871 72.2983 42.1037 71.9235 41.7353C71.5486 41.39 70.9629 41.321 70.1195 41.5051C69.2527 41.7123 68.3859 42.2188 67.5191 43.0015C66.7225 43.7381 65.9962 44.5668 65.3403 45.5337C65.2934 45.5567 65.2465 45.6027 65.1763 45.6488C64.3329 46.2473 63.4192 46.7768 62.4586 47.2602C61.4981 47.7436 60.5844 48.0889 59.7176 48.3191C59.6239 47.5825 59.4599 47.007 59.2022 46.5696C58.9445 46.1322 58.6165 45.9711 58.2416 46.0631C58.0073 46.1322 57.7496 46.2473 57.4451 46.4315C57.1639 46.6156 56.9062 46.8458 56.6485 47.0991C56.4142 47.3523 56.2034 47.6515 56.016 47.9738C55.852 48.2961 55.7583 48.6184 55.7583 48.9407C55.7583 49.4241 55.8988 49.7694 56.18 49.9996C56.4611 50.2298 56.8125 50.3449 57.2342 50.3449C57.1639 51.0355 56.9999 51.8182 56.7188 52.716C56.4377 53.6138 56.1097 54.4886 55.7114 55.2943C55.3131 56.123 54.868 56.8366 54.376 57.4582C53.884 58.0797 53.3686 58.448 52.8298 58.5631C52.1972 58.7013 51.7755 58.3099 51.5412 57.3431C51.3304 56.3992 51.3304 55.0641 51.5412 53.3836C51.8692 52.6469 52.2441 51.7722 52.6658 50.7823C53.0875 49.7924 53.5092 48.7105 53.9543 47.5134C54.376 46.3164 54.7977 45.0733 55.196 43.7151C55.5943 42.3799 55.9691 40.9757 56.2971 39.5254C56.6719 37.983 56.8828 36.763 56.9297 35.8422C56.9765 34.9213 56.9531 34.4149 56.8125 34.3689C56.7188 34.3458 56.5782 34.3458 56.344 34.3689C56.1331 34.3919 55.8988 34.484 55.6411 34.5991C55.3834 34.7142 55.1257 34.8753 54.868 35.0595C54.6103 35.2436 54.376 35.4968 54.1886 35.7961C54.0246 36.0263 53.8137 36.4867 53.5092 37.2003C53.2046 37.914 52.9001 38.7887 52.5486 39.8247C52.1972 40.8606 51.8224 42.0116 51.4475 43.2777C51.0727 44.5438 50.7213 45.8329 50.4167 47.1681C50.1121 48.5033 49.8544 49.8154 49.6202 51.1276C49.4562 52.1175 49.339 53.0613 49.2922 53.9361C49.1516 54.1433 49.011 54.3504 48.8705 54.5576C48.2848 55.4094 47.6522 56.2611 46.9494 57.1359C46.27 57.9876 45.5906 58.7473 44.9112 59.3919C44.2552 60.0364 43.6929 60.4278 43.2478 60.5199C43.0838 60.5659 42.9432 60.5429 42.8261 60.4738C42.6855 60.4048 42.5684 60.2436 42.4747 59.9904C42.3575 59.7832 42.3341 59.4609 42.3809 59.0235C42.4278 58.5862 42.4981 58.1027 42.6152 57.5963C42.7324 57.0898 42.8729 56.5374 43.0135 56.0079C43.1541 55.4554 43.2946 54.972 43.4118 54.5346C43.5289 54.0972 43.6929 53.5217 43.9038 52.8311C44.1146 52.1405 44.3255 51.4499 44.5363 50.7823C44.7237 50.1147 44.8877 49.5392 45.0283 49.0558C45.1689 48.5724 45.2157 48.3191 45.1923 48.2961C45.1454 48.2731 44.9814 48.3191 44.7237 48.3882C44.4426 48.4573 44.1615 48.5724 43.8335 48.7105C43.5055 48.8486 43.1775 48.9867 42.8729 49.1479C42.5684 49.309 42.3575 49.4701 42.2404 49.6313C41.889 50.1608 41.5844 50.9434 41.3033 51.9333C41.0221 52.9232 40.8113 53.9591 40.6239 55.041C40.4599 56.123 40.3193 57.1589 40.2724 58.1488C40.2022 59.1617 40.2022 59.9213 40.2724 60.4738C40.2959 60.8652 40.413 61.1875 40.6004 61.5097C40.7879 61.809 41.0456 62.0622 41.3267 62.2694C41.6313 62.4536 41.9592 62.5917 42.3107 62.6607C42.6621 62.7298 43.0369 62.7068 43.4118 62.5917C43.8803 62.4536 44.466 62.0392 45.1923 61.3025C45.9186 60.5659 46.6682 59.6911 47.4414 58.7243C48.0739 57.9186 48.683 57.0668 49.2453 56.2151C49.2922 57.1819 49.3859 57.9646 49.5733 58.5401C49.831 59.3919 50.159 59.9674 50.5338 60.2897C50.9087 60.6119 51.2835 60.7731 51.6818 60.7501C52.0801 60.727 52.3846 60.681 52.6424 60.635C53.4155 60.4508 54.1886 59.9904 54.9851 59.2077C55.7817 58.425 56.508 57.5042 57.1639 56.4453C57.8199 55.3863 58.3822 54.2814 58.8273 53.1073C59.2959 51.9333 59.5536 50.8744 59.6473 49.9305C60.0456 49.8385 60.4673 49.7003 60.9593 49.4932C61.4278 49.286 61.9432 49.0328 62.4586 48.7565C62.9506 48.4803 63.4426 48.181 63.958 47.8357C63.7706 48.227 63.5597 48.6414 63.3957 49.0558C62.9272 50.2068 62.6461 51.2657 62.5523 52.2326C62.4352 53.4066 62.5289 54.3735 62.8101 55.1101C63.0912 55.8467 63.4426 56.4223 63.9112 56.8136C64.3797 57.2049 64.8717 57.4582 65.434 57.5733C65.9962 57.6884 66.5117 57.6884 66.9802 57.5733C67.8939 57.3661 68.831 56.9057 69.815 56.2381C70.7755 55.5475 71.7361 54.7188 72.6732 53.7519C73.0012 53.4066 73.3292 53.0383 73.6572 52.67C73.4932 53.0383 73.3526 53.3836 73.2355 53.6828C73.0012 54.2123 72.8606 54.5576 72.7903 54.7188C72.6498 55.018 72.6263 55.2712 72.6498 55.4324C72.6966 55.6165 72.7903 55.7086 72.9309 55.7317C73.0715 55.7547 73.2355 55.7086 73.4229 55.5935C73.6103 55.4784 73.7743 55.2712 73.9383 54.972C74.0086 54.8569 74.1726 54.5346 74.4537 54.0051C74.7348 53.4757 75.0628 52.8081 75.4611 52.0484C75.8594 51.2657 76.2811 50.437 76.7262 49.5622C77.1713 48.6644 77.593 47.8127 78.0147 47.007C78.413 46.2013 78.7644 45.4876 79.069 44.8891C79.3736 44.2906 79.561 43.8992 79.6547 43.7151C79.8187 43.7151 80.0061 43.7381 80.217 43.7841C80.4044 43.8302 80.6621 43.8302 80.9432 43.7611C81.1306 43.7151 81.2946 43.669 81.3883 43.646C81.4821 43.623 81.5523 43.577 81.6226 43.577C81.6695 43.5539 81.7398 43.5539 81.7866 43.5309C81.8335 43.5079 81.9272 43.4849 82.0678 43.4388C82.2552 43.3928 82.3957 43.4388 82.4895 43.577C82.5832 43.7151 82.63 43.8992 82.63 44.1064C82.63 44.4287 82.5129 44.8661 82.2786 45.3956C82.0443 45.925 81.7398 46.5696 81.3883 47.3293C81.2244 47.6976 81.0604 48.0659 80.8729 48.4342C80.6855 48.8026 80.5215 49.1939 80.3575 49.5622C80.1935 49.9305 80.053 50.2989 79.9358 50.6442C79.8187 50.9895 79.7484 51.2887 79.725 51.588C79.7015 51.9333 79.7484 52.3016 79.8421 52.693C79.9358 53.0843 80.0998 53.4066 80.3341 53.6828C80.5684 53.9591 80.8729 54.1893 81.2244 54.3274C81.5992 54.4655 82.0678 54.4886 82.63 54.3504C83.1689 54.2353 83.7546 53.9131 84.3403 53.4296C84.9494 52.9462 85.5351 52.3477 86.1442 51.6801C86.7533 50.9895 87.3156 50.2528 87.8544 49.4701C88.3933 48.6875 88.9087 47.9278 89.3538 47.1911C89.6115 46.7538 89.8458 46.3624 90.0801 45.9941C89.963 46.8919 89.8927 47.5364 89.8692 47.8817C89.8224 48.3421 89.8692 48.8026 89.963 49.309C90.0801 49.8154 90.2675 50.2528 90.5252 50.6212C90.8064 51.0125 91.1812 51.2887 91.6498 51.4729C92.1183 51.6571 92.7274 51.6801 93.4537 51.5189C93.9457 51.4038 94.5782 50.9665 95.3279 50.2068C96.0776 49.4471 96.8273 48.5263 97.6239 47.4444C97.905 47.053 98.1861 46.6387 98.4673 46.2243C98.4438 47.3753 98.6547 48.2731 99.0998 48.8946C99.5918 49.5622 100.435 49.8385 101.607 49.7234C102.075 49.6773 102.544 49.5162 102.989 49.2399C103.434 48.9637 103.856 48.6184 104.254 48.204C104.652 47.7897 105.004 47.3062 105.332 46.7998C105.66 46.2703 105.964 45.7409 106.245 45.1884C106.128 45.6948 106.034 46.1782 105.941 46.6847C105.847 47.1911 105.73 47.6976 105.636 48.227C105.355 49.4011 105.05 50.7132 104.723 52.1635C104.418 53.4296 104.067 54.9259 103.692 56.6294C103.317 58.3329 102.872 60.2206 102.356 62.3154C102.45 62.5456 102.544 62.7298 102.684 62.8679C102.825 62.983 102.942 63.0981 103.036 63.1902C103.176 63.2823 103.317 63.3514 103.457 63.4204C103.856 63.5125 104.231 63.4895 104.582 63.3053C104.933 63.1212 105.168 62.7298 105.285 62.1313C105.706 59.6451 106.081 57.4352 106.456 55.5014C106.808 53.5677 107.136 51.9103 107.393 50.5291C107.698 48.9637 107.979 47.5595 108.237 46.3394C108.494 44.8661 108.776 43.5309 109.08 42.3339C109.385 41.1368 109.642 40.0549 109.923 39.111C110.181 38.1672 110.415 37.3615 110.603 36.7169C110.79 36.0493 110.931 35.5199 111.001 35.1055C111.071 34.2077 111.048 33.6322 110.907 33.3099ZM67.1208 45.8329C67.4722 45.2344 67.8236 44.751 68.175 44.3827C68.5264 44.0143 68.8544 43.8072 69.1121 43.7381C69.3464 43.6921 69.5338 43.7381 69.6744 43.8992C69.815 44.0604 69.8384 44.3596 69.815 44.82C69.7681 45.2344 69.5573 45.7869 69.1824 46.4545C68.8076 47.1221 68.1516 47.9508 67.2145 48.9177C66.9099 49.2399 66.6054 49.5622 66.3008 49.8385C65.9962 50.1377 65.7151 50.414 65.4574 50.6672C65.6214 49.6543 65.8322 48.7565 66.1368 47.9278C66.4414 47.1451 66.7694 46.4315 67.1208 45.8329Z" fill="#C1272D"/>
<path fill-rule="evenodd" clip-rule="evenodd" d="M93.9224 15.1234L91.9076 14.0875L89.8694 15.1234L90.2676 12.9134L88.6277 11.325L90.9002 11.0028L91.931 9L92.915 11.0258L95.1875 11.3481L93.5476 12.9134L93.9224 15.1234Z" fill="#257972"/>
<path fill-rule="evenodd" clip-rule="evenodd" d="M14.783 60.8187L12.7682 59.7828L10.73 60.8187L11.1282 58.6088L9.48828 57.0204L11.7608 56.7211L12.7682 54.6953L13.7756 56.7211L16.0481 57.0434L14.4081 58.6088L14.783 60.8187Z" fill="#257972"/>
</g>
<defs>
<clipPath id="clip0">
<rect width="114" height="75" fill="white"/>
</clipPath>
</defs>
</svg>
