<svg width="154" height="103" viewBox="0 0 154 103" fill="none" xmlns="http://www.w3.org/2000/svg">
<g clip-path="url(#clip0)">
<path d="M64.0876 62.3119C64.0559 62.3119 63.9926 62.3119 63.961 62.2803C63.9926 62.2803 64.0243 62.3119 64.0876 62.3119Z" fill="#C1272D"/>
<path d="M73.5504 76.1274C73.5187 76.4751 73.4871 76.7913 73.4554 77.139C73.7403 76.6648 74.0251 76.1274 74.3099 75.5899C74.8163 74.515 75.2594 73.3769 75.6075 72.1755C75.8607 71.3852 76.019 70.658 76.1455 69.9941C75.7974 70.9426 75.4493 71.8278 75.1012 72.6498C74.4998 73.9143 73.9935 75.1157 73.5504 76.1274Z" fill="#C1272D"/>
<path d="M31.9647 42.5213C32.3761 41.7942 32.7559 40.9406 33.1357 39.9606C33.1357 39.8341 33.104 39.676 33.104 39.5496V38.9805C33.104 38.5695 33.104 38.1585 33.1357 37.7476C32.9142 38.6328 32.661 39.5812 32.4078 40.5929C32.2496 41.2252 32.0913 41.8891 31.9647 42.5213Z" fill="#C1272D"/>
<path d="M65.7016 34.0801C65.037 34.744 64.4041 35.3763 63.8027 35.9453C63.2647 36.4512 62.79 36.8938 62.2836 37.368C62.4735 37.2099 62.6951 37.0835 62.8849 36.8938C63.9293 36.0086 64.9737 34.9969 65.9865 33.8588C66.9676 32.7523 67.8854 31.6458 68.7399 30.5077C68.7715 30.2864 68.8348 30.0651 68.8665 29.8438C68.4867 30.5393 68.0753 31.2348 67.5689 31.8671C66.9992 32.6891 66.3663 33.4162 65.7016 34.0801Z" fill="#C1272D"/>
<path d="M41.9022 37.6208C41.4908 38.8854 41.0477 40.2448 40.3831 41.6358C40.3515 41.7307 40.2882 41.8571 40.2565 41.952C40.6047 41.3829 40.9211 40.7506 41.2376 40.0867C41.649 39.1067 42.0288 38.095 42.3137 37.0517C42.5985 36.1033 42.82 35.2497 43.0099 34.491C43.0099 34.4593 43.0099 34.4593 43.0099 34.4277C42.8833 34.8703 42.7251 35.3446 42.5668 35.8504C42.3453 36.4194 42.1238 37.0201 41.9022 37.6208Z" fill="#C1272D"/>
<path d="M62.1571 53.8076C62.1254 53.8076 62.0621 53.8076 62.0305 53.8392C62.0621 53.8076 62.1254 53.8076 62.1571 53.8076Z" fill="#C1272D"/>
<path d="M5.98155 52.4796C5.8866 52.7009 5.82331 52.859 5.76001 53.0171C5.66507 53.5229 5.63342 54.092 5.66507 54.7559C5.69671 55.4198 5.85496 56.0205 6.07649 56.5895C6.29803 57.0954 6.58286 57.4747 6.96264 57.7593C7.15253 57.9173 7.40572 57.9806 7.7222 57.9806C7.91209 57.9806 8.10198 57.9489 8.29186 57.9173C8.41846 57.8857 8.5767 57.8541 8.70329 57.7909C8.70329 57.696 8.67164 57.5696 8.67164 57.4747C8.63999 56.7476 8.67164 56.0837 8.76659 55.5462C8.82988 55.3882 8.89318 55.1669 9.01977 54.914C9.17801 54.4714 9.49449 53.9339 9.90592 53.3648L10.2224 52.9222L7.05759 50.646L6.7411 51.057C6.42462 51.5628 5.98155 52.4796 5.98155 52.4796Z" fill="#C1272D"/>
<path d="M19.1155 43.3748C19.3054 44.671 19.3054 46.1569 19.0839 47.8009C18.7357 50.1403 18.1977 52.1953 17.4698 53.9025C16.7419 55.6096 15.9191 57.0323 15.0329 58.202C14.1468 59.3718 13.1973 60.2886 12.2795 60.9209C11.3617 61.5532 10.6022 61.9958 9.96921 62.2803C9.52614 62.47 8.95647 62.6913 8.32351 62.9126C7.62725 63.1655 6.93099 63.292 6.17143 63.3552C5.98154 63.3552 5.79165 63.3868 5.60177 63.3868C5.25364 63.3868 4.87386 63.3552 4.49408 63.292L6.13978 64.4933C6.61451 64.8411 7.12088 65.094 7.69054 65.2204C8.22856 65.3469 8.76658 65.4101 9.27295 65.4101C9.43119 65.4101 9.62108 65.4101 9.77932 65.3785C10.4756 65.3153 11.1402 65.1888 11.7732 64.9675C12.3745 64.7462 12.9125 64.5565 13.3556 64.3668C13.9252 64.1139 14.6531 63.6713 15.5393 63.0707C16.4254 62.47 17.3116 61.5848 18.1661 60.4783C19.0206 59.3718 19.8118 57.9807 20.5397 56.3368C21.2676 54.6928 21.774 52.6695 22.1221 50.3932C22.3436 48.8125 22.3436 47.3899 22.1538 46.1569C21.9639 44.9239 21.6474 43.8174 21.2043 42.9006C20.7612 41.9838 20.2232 41.1618 19.5903 40.4979C18.9889 39.834 18.3876 39.2333 17.7863 38.7275C17.4698 38.4746 17.1533 38.2217 16.8685 37.9688C17.3116 38.5694 17.723 39.2017 18.0711 39.9288C18.5775 40.9405 18.9256 42.0786 19.1155 43.3748Z" fill="#C1272D"/>
<path d="M25.2869 32.1832C25.5718 31.709 26.1098 31.2032 26.9326 30.6657C27.0909 30.5709 27.2175 30.4761 27.3757 30.4128C27.439 30.2864 27.5023 30.1283 27.5656 29.9702C27.8504 29.2431 28.1036 28.3895 28.2935 27.3778C28.4834 26.3662 28.5467 25.2913 28.4834 24.1848C28.4201 23.0467 28.072 22.0034 27.4074 21.1498C27.0909 20.6756 26.6478 20.2646 26.1414 19.98C26.1414 19.98 24.8122 19 24.7806 19C25.1603 19.7587 25.3819 20.6123 25.4452 21.4975C25.5085 22.6673 25.4452 23.7738 25.2236 24.8487C25.0337 25.892 24.7806 26.8088 24.4641 27.5675C24.0843 28.516 23.8944 28.8637 23.7362 29.0534C23.5146 29.3379 23.1982 29.6225 22.7551 29.9386C22.312 30.2864 21.6474 30.6657 20.698 31.0767C20.4131 31.2348 20.0966 31.3296 19.8118 31.3929C19.5586 31.4561 19.3054 31.4877 19.0522 31.5193L21.7423 33.4794L21.9006 33.511C22.0272 33.5427 22.1854 33.5743 22.3437 33.5743C22.4386 33.5743 22.5335 33.5743 22.6285 33.5427C22.8817 33.511 23.1032 33.4794 23.3247 33.4162C23.5779 33.353 23.8311 33.2581 24.116 33.1317C24.4641 32.9736 24.7806 32.8155 25.0337 32.6891C25.097 32.531 25.1287 32.4045 25.192 32.3097L25.2869 32.1832Z" fill="#C1272D"/>
<path d="M19.5902 21.8138C19.4953 21.3079 19.3054 20.8337 18.9256 20.4227C18.8623 20.3911 18.7674 20.3911 18.7357 20.3911C18.6724 20.3911 18.5775 20.3911 18.4825 20.4227C18.0078 20.486 17.4698 20.7073 16.8368 21.055C16.1722 21.4344 15.476 21.9086 14.7164 22.5409C13.9885 23.1416 13.2922 23.8371 12.6909 24.5642C12.0896 25.2914 11.5832 26.0501 11.1402 26.8405C10.7604 27.5676 10.5389 28.2631 10.4756 28.8954C10.4123 29.4329 10.4439 29.9071 10.5389 30.3181C10.6338 30.7607 10.7604 31.14 10.887 31.4878C11.0452 31.8356 11.2035 32.1833 11.3934 32.4678C11.5832 32.784 11.7731 33.0685 11.9314 33.2898C12.1213 33.5427 12.4061 33.8589 12.8175 34.175C13.3239 34.5544 13.8936 35.0286 14.4949 35.5028C14.5265 35.5344 14.5898 35.5661 14.6215 35.6293C14.5898 35.5661 14.5582 35.5344 14.5265 35.4712C14.3366 35.1551 14.1467 34.8073 13.9569 34.3963C13.7986 34.0169 13.6404 33.5743 13.5454 33.1001C13.4505 32.6259 13.4188 32.0885 13.4821 31.4878C13.5454 30.7607 13.7986 29.9703 14.21 29.1483C14.6531 28.3263 15.1911 27.536 15.8241 26.7772C16.4571 26.0185 17.1533 25.323 17.9445 24.6907C18.4825 24.2165 19.0522 23.8371 19.5586 23.4893C19.6852 22.9203 19.6852 22.3512 19.5902 21.8138Z" fill="#C1272D"/>
<path d="M78.4559 21.624C78.4559 21.5292 78.4559 21.4343 78.4875 21.3711C78.3609 21.4659 78.1711 21.5924 77.9179 21.8453C77.5064 22.2563 77.0634 22.857 76.6203 23.5841C76.1772 24.3428 75.7658 25.2281 75.3544 26.2713C75.3227 26.3346 75.3227 26.3662 75.2911 26.4294C76.4621 25.2281 77.2533 24.2164 77.6963 23.426C78.266 22.446 78.4242 21.9085 78.4559 21.624Z" fill="#C1272D"/>
<path d="M34.1484 45.3667C34.0535 45.4932 33.9902 45.6512 33.8952 45.7777C33.3889 46.5681 32.8508 47.2636 32.3128 47.8959C31.7432 48.5281 31.1418 49.0972 30.5405 49.5714C29.8759 50.0773 29.1797 50.425 28.4834 50.5831C28.0403 50.6779 27.6289 50.7412 27.2491 50.7412C27.2175 50.7412 27.1858 50.7412 27.1542 50.7412C27.1542 50.7412 29.0531 52.1006 29.0531 52.1322C29.3063 52.3219 29.5594 52.48 29.8759 52.6064C30.1924 52.7329 30.5405 52.7961 30.952 52.7961C31.2684 52.7961 31.6482 52.7645 32.028 52.6696C32.6293 52.5432 33.2306 52.227 33.8319 51.7844C34.4016 51.3418 34.9713 50.8044 35.5093 50.2037C36.0473 49.603 36.5537 48.9075 37.0284 48.1488C37.0601 48.0855 37.0917 48.0223 37.155 47.9591C36.3638 47.8326 35.6675 47.4533 35.1295 46.8842C34.7497 46.4416 34.4333 45.9358 34.1484 45.3667Z" fill="#C1272D"/>
<path d="M51.7448 35.8823C51.6498 35.9456 51.5549 36.0088 51.4599 36.0404C50.3839 36.6411 49.2762 37.0837 48.1052 37.3682C47.8837 37.4314 47.6305 37.463 47.409 37.4947C47.409 37.4947 47.409 37.4947 47.3773 37.4947C46.9975 38.5063 46.5861 39.4864 46.143 40.4348C45.605 41.6362 44.9721 42.7427 44.3075 43.7227C43.6112 44.7344 42.8516 45.6196 42.0604 46.3467C41.2059 47.1055 40.2565 47.6113 39.2438 47.8326C38.769 47.9591 38.2943 47.9907 37.8829 47.9907C37.8196 47.9907 37.7563 47.9907 37.693 47.9907L39.6235 49.3817C40.1299 49.7927 40.7945 50.014 41.5541 50.014C41.9338 50.014 42.3453 49.9508 42.7567 49.8559C43.6745 49.6346 44.4973 49.192 45.2885 48.4965C46.0481 47.8326 46.776 46.979 47.409 45.999C48.0736 45.0189 48.6749 43.944 49.2129 42.7743C49.7193 41.6994 50.1624 40.5929 50.5738 39.4864C50.7004 39.4864 50.8586 39.4864 50.9852 39.4548C51.2067 39.4231 51.3966 39.3915 51.6182 39.3599C51.7448 39.3283 51.8714 39.2967 51.9979 39.2651C51.7131 38.3483 51.6182 37.2101 51.7448 35.8823Z" fill="#C1272D"/>
<path d="M39.4653 33.3846C38.8007 35.3131 36.9968 39.9288 36.9968 39.9288C37.0601 40.3714 37.155 40.8456 37.2816 41.3199C37.4082 41.8257 37.5664 42.2999 37.7563 42.6793C37.9146 43.027 38.1361 43.28 38.3576 43.4696C38.4209 43.5329 38.4842 43.5329 38.5159 43.5329C38.5475 43.5329 38.6108 43.5329 38.6425 43.5013C39.0539 43.4064 39.4653 43.0587 39.8767 42.5212C40.0033 42.3315 40.1299 42.1418 40.2565 41.9522C40.2882 41.8573 40.3515 41.7309 40.3831 41.636C41.0477 40.245 41.4908 38.8855 41.9022 37.621C42.1238 37.0203 42.3453 36.4196 42.5352 35.8506C42.7251 35.3447 42.8517 34.8705 42.9783 34.4279C42.915 34.2066 42.8517 33.9537 42.82 33.7324C42.7567 33.3846 42.7251 32.942 42.7251 32.4678C42.7251 31.6774 42.82 30.9503 42.9783 30.2864L40.4781 28.4844C40.4781 28.5792 40.5097 28.6424 40.5097 28.7373C40.5097 29.8438 40.1616 31.3613 39.4653 33.3846Z" fill="#C1272D"/>
<path d="M49.5611 29.6541C49.3712 30.6026 49.1496 31.6458 48.8648 32.784C49.023 32.7523 49.2129 32.7207 49.4028 32.6891C50.0991 32.5311 50.7321 32.2781 51.3017 31.9936C51.8714 31.6775 52.3778 31.3613 52.8525 30.9819C52.9474 30.3813 52.9791 29.9071 52.9791 29.5909C52.9791 29.0218 52.7575 28.7689 52.536 28.6425L49.9092 26.7456C49.9408 26.7772 49.8143 28.3579 49.5611 29.6541Z" fill="#C1272D"/>
<path d="M88.5516 12.9935C87.6338 13.2148 86.7161 13.3413 85.8932 13.3413C85.7983 13.3413 85.7033 13.3413 85.64 13.3413C85.2919 13.3413 85.0071 13.3097 84.7222 13.278C84.7222 13.278 87.0958 15.0168 87.1275 15.0168C87.2224 15.0801 87.2857 15.1117 87.4123 15.1433C87.8554 15.2698 88.4884 15.333 89.3745 15.3646C89.5644 14.4162 89.7226 13.4993 89.9125 12.5825C89.4062 12.7722 88.9314 12.8987 88.5516 12.9935Z" fill="#C1272D"/>
<path d="M98.5208 2.05473C98.4892 2.81348 98.3942 3.69868 98.2676 4.74196C98.9955 4.58389 99.6602 4.48904 100.261 4.42582C100.736 4.3942 101.179 4.33097 101.559 4.33097C101.559 3.19285 101.432 2.84509 101.306 2.6554C101.306 2.6554 101.243 2.59218 101.211 2.56056C101.148 2.49733 101.116 2.46572 101.053 2.4341C101.053 2.4341 98.4892 0.568848 98.4575 0.568848C98.5208 0.916607 98.5525 1.39082 98.5208 2.05473Z" fill="#C1272D"/>
<path d="M66.9359 23.8057C66.841 24.9122 66.5561 25.9555 66.0814 26.9355C65.6383 27.884 65.0687 28.7692 64.4673 29.5912C63.866 30.4131 63.2014 31.1719 62.5052 31.8674C61.8405 32.5313 61.2076 33.1636 60.6063 33.7643C59.9416 34.365 59.3403 34.9656 58.739 35.5031C58.2959 35.9141 57.8845 36.2934 57.5364 36.6412C57.568 37.0522 57.663 37.3683 57.7896 37.6212C57.9478 37.9374 58.1377 38.1587 58.3592 38.2851C58.5808 38.4116 58.8023 38.5064 59.0871 38.5064C59.1504 38.5064 59.2454 38.5064 59.3087 38.5064C59.5935 38.5064 59.91 38.4748 60.1948 38.4116C60.8594 38.2535 61.5874 37.9058 62.3153 37.3683C62.79 36.9257 63.2964 36.4515 63.8344 35.9457C64.4357 35.3766 65.0687 34.7443 65.7333 34.0804C66.3979 33.4165 67.0309 32.6578 67.6322 31.8674C68.1069 31.2351 68.55 30.5396 68.9298 29.8441C69.1513 28.9273 69.4361 27.9788 69.8476 26.9988C69.8792 26.9039 69.9109 26.8407 69.9741 26.7459C69.9741 26.651 70.0058 26.5246 70.0058 26.4297C70.0691 25.4497 69.8159 24.7225 69.2462 24.1851C69.1829 24.1219 66.841 22.4463 66.841 22.4463C66.9043 22.8257 66.9676 23.2683 66.9359 23.8057Z" fill="#C1272D"/>
<path d="M69.088 35.9141C68.4234 36.7044 67.7587 37.4316 67.0625 38.1587C65.7649 39.4865 64.4357 40.6246 63.0748 41.5731C61.6823 42.5531 60.2581 43.217 58.9289 43.5332C58.5175 43.628 58.106 43.6912 57.663 43.6912C57.3465 43.6912 57.0617 43.6596 56.7452 43.628L58.5175 44.9242C59.0555 45.272 59.6252 45.5249 60.2581 45.6197C60.6379 45.6829 61.0177 45.7146 61.3658 45.7146C61.7456 45.7146 62.1254 45.6829 62.5051 45.5881C63.7711 45.3036 65.1003 44.6713 66.4295 43.7228C67.7587 42.806 69.0563 41.6679 70.3222 40.4033C70.7653 39.9607 71.2084 39.4865 71.6198 38.9807C71.335 38.8226 71.0501 38.6329 70.797 38.38C70.0691 37.7793 69.4994 36.9573 69.088 35.9141Z" fill="#C1272D"/>
<path d="M88.1402 33.9537C87.6972 33.353 87.3807 32.6575 87.1908 31.8671C87.0958 31.4245 87.0325 31.0135 87.0325 30.6025C86.0514 31.8671 85.0387 33.0685 83.9627 34.175C82.6651 35.5028 81.3359 36.6409 79.975 37.5893C78.5825 38.5694 77.1583 39.2333 75.7974 39.5494C75.386 39.6443 74.9746 39.7075 74.5315 39.7075C74.2467 39.7075 73.9302 39.6759 73.6137 39.6443L75.386 40.9089C75.924 41.2566 76.4937 41.5095 77.1267 41.636C77.5064 41.6992 77.8862 41.7308 78.2343 41.7308C78.6141 41.7308 78.9939 41.6992 79.342 41.6044C80.608 41.3199 81.9372 40.6876 83.2664 39.7391C84.5956 38.8223 85.8932 37.6842 87.1591 36.388C87.6972 35.8505 88.2352 35.2499 88.7732 34.6176C88.52 34.4279 88.2985 34.2066 88.1402 33.9537Z" fill="#C1272D"/>
<path d="M106.496 6.9864C106.338 7.39739 106.116 7.77676 105.768 8.12452C105.357 8.53551 104.882 8.75681 104.376 8.78842C104.059 8.82004 103.711 8.85165 103.331 8.85165C103.331 8.85165 102.54 8.88327 102.065 8.94649C101.559 9.00972 100.958 9.10457 100.261 9.19941C99.5652 9.29425 98.774 9.48394 97.8562 9.70524C97.698 9.73686 97.5081 9.80009 97.3182 9.86331C97.2549 9.89493 97.2232 9.89493 97.1599 9.92654C97.0966 10.2427 97.0333 10.5588 96.97 10.875C96.8751 11.4124 96.7169 11.9815 96.527 12.5505C96.1472 13.8784 95.7041 15.3326 95.1977 16.8817C94.7547 18.2412 94.2167 19.8219 93.5837 21.5923C92.9824 23.2995 92.2861 25.1963 91.5266 27.1881C91.3367 28.6107 91.4316 29.3062 91.5582 29.6224C91.7481 30.1914 91.938 30.3811 92.0013 30.4443C92.0646 30.476 92.1912 30.5392 92.4127 30.5392C92.5077 30.5392 92.7925 30.5076 92.7925 30.5076C92.8874 30.5076 93.2039 30.4443 93.8685 29.8753C94.2167 29.5908 94.5331 29.2746 94.9129 28.8952C95.5459 27.1881 96.1472 25.5757 96.6536 24.0898C97.2865 22.3194 97.8246 20.7387 98.236 19.3793C98.7423 17.8302 99.1854 16.3759 99.5652 15.0481C99.7551 14.479 99.8817 13.9416 99.9766 13.4358C100.072 12.9931 100.167 12.5505 100.261 12.1079C100.451 12.0763 100.61 12.0131 100.768 11.9499C100.989 11.8866 101.179 11.8234 101.338 11.7918C102.255 11.5705 103.11 11.3808 103.806 11.286C104.534 11.1595 105.135 11.0963 105.642 11.0331C106.116 10.9698 106.971 10.9382 106.971 10.9382C107.319 10.9382 107.667 10.9066 107.952 10.875C108.332 10.8434 108.648 10.6853 108.965 10.4008C109.218 10.1162 109.439 9.8317 109.534 9.48394C109.661 9.1678 109.693 8.85165 109.693 8.56712C109.693 8.34582 109.598 8.18775 109.471 8.06129C109.439 7.99806 106.686 6.03796 106.654 6.00635C106.686 6.29088 106.623 6.63864 106.496 6.9864Z" fill="#C1272D"/>
<path d="M30.8886 32.057C30.7621 32.5944 30.5722 33.4164 30.2557 34.5229C29.9708 35.5978 29.6544 36.7675 29.3695 38.0321C29.0531 39.2967 28.7999 40.5296 28.5467 41.731C28.3251 42.8691 28.1985 43.8175 28.1985 44.5447C28.1985 45.6196 28.3884 45.8725 28.4201 45.8725C28.4201 45.8725 28.4517 45.9041 28.5467 45.9041C28.61 45.9041 28.7366 45.9041 28.8315 45.8725C29.2113 45.7776 29.8443 45.4615 30.7621 44.355C31.1735 43.8808 31.5533 43.2801 31.9647 42.553C32.0913 41.9207 32.2495 41.2568 32.4078 40.5929C32.6609 39.5812 32.8825 38.6328 33.1357 37.7476C33.1673 36.7991 33.199 35.8823 33.2623 35.0287C33.3256 34.3016 33.4205 33.6377 33.5471 32.9738L31.0152 31.1401C31.0152 31.3931 30.9519 31.7092 30.8886 32.057Z" fill="#C1272D"/>
<path d="M83.8044 19.7272C83.7095 20.8337 83.4246 21.877 82.9499 22.8887C82.5068 23.8371 81.9372 24.7539 81.3359 25.5759C80.7345 26.3979 80.0699 27.1566 79.3737 27.8522C78.7091 28.5477 78.0761 29.18 77.4748 29.749C76.8102 30.3497 76.2088 30.9504 75.6075 31.4878C75.1645 31.8988 74.753 32.2782 74.4049 32.6259C74.4366 33.0369 74.5315 33.3847 74.6581 33.6376C74.8163 33.9538 75.0062 34.1751 75.2278 34.3015C75.4493 34.428 75.6708 34.5228 75.9557 34.5228C76.019 34.5228 76.1139 34.5228 76.1772 34.5228C76.462 34.5228 76.7785 34.4912 77.0634 34.428C77.6963 34.2699 78.3609 33.9538 79.0572 33.4795C79.5952 32.9737 80.1332 32.4679 80.7345 31.9304C81.3359 31.3614 81.9688 30.7291 82.6334 30.0652C83.298 29.3696 83.931 28.6425 84.5323 27.8522C85.1336 27.0618 85.6716 26.1766 86.0831 25.2914C86.5261 24.3746 86.811 23.3945 86.8743 22.3828C86.9376 21.4028 86.6844 20.644 86.1147 20.1382C86.0514 20.075 85.9565 20.0118 85.8615 19.9485C85.8615 19.9485 83.7411 18.3994 83.7095 18.3994C83.7728 18.7788 83.8361 19.2214 83.8044 19.7272Z" fill="#C1272D"/>
<path d="M104.724 20.6443C104.123 22.0037 103.3 23.4896 102.35 25.1019C101.369 26.7143 100.356 28.2318 99.2803 29.686C98.2043 31.1403 97.1283 32.4049 96.0839 33.4482C94.9445 34.5863 93.9635 35.2502 93.109 35.4399C92.5709 35.5663 92.0646 35.6296 91.5898 35.6296C91.4632 35.6296 91.3683 35.6296 91.2417 35.6296L93.0457 36.9574C93.3305 37.1787 93.647 37.3367 93.9951 37.4632C94.3749 37.5897 94.7863 37.6845 95.261 37.6845C95.6725 37.6845 96.1472 37.6213 96.6219 37.5264C97.3814 37.3367 98.2359 36.7677 99.312 35.6928C100.325 34.6811 101.369 33.4482 102.445 31.9939C103.521 30.5712 104.534 29.0221 105.483 27.4414C106.433 25.8607 107.224 24.3748 107.825 23.0786C108.015 22.6044 108.11 22.2566 108.11 22.0037C108.079 21.6243 107.92 21.4346 107.762 21.3398L105.135 19.4429C105.104 19.4113 104.945 20.1068 104.724 20.6443Z" fill="#C1272D"/>
<path d="M61.5874 25.7021C61.5874 25.6073 61.5874 25.5441 61.619 25.4492C61.4924 25.5441 61.3025 25.6705 61.0493 25.9234C60.6379 26.3344 60.1948 26.9351 59.7518 27.6306C59.3087 28.3578 58.8973 29.2746 58.4858 30.2862C58.4542 30.3179 58.4542 30.3811 58.4225 30.4127C59.5935 29.2113 60.3847 28.2313 60.8278 27.4409C61.3975 26.5241 61.5557 25.9867 61.5874 25.7021Z" fill="#C1272D"/>
<path d="M55.2578 91.9032L52.6626 90.0063C52.7575 90.4173 52.7575 90.9232 52.7259 91.5238C52.631 92.3774 52.3778 93.2942 51.9663 94.2427C51.5233 95.1911 50.922 96.0447 50.1307 96.8667C49.3079 97.7203 48.2319 98.2893 46.9976 98.5739C46.1114 98.7635 45.2569 98.89 44.4657 98.89C44.1492 98.89 43.8328 98.89 43.5479 98.8584C42.5035 98.7635 41.5225 98.5422 40.6047 98.2577C39.7185 97.9732 38.864 97.657 38.0412 97.2461C37.5348 96.9931 37.0601 96.7718 36.617 96.5505C35.8258 97.4674 34.9396 98.2893 34.0218 98.9848C32.8509 99.8701 31.5533 100.471 30.1291 100.818C29.7177 100.913 28.8632 100.977 28.8315 100.977C28.8315 100.977 30.8887 102.462 30.9203 102.494C31.395 102.842 31.9647 103 32.5977 103C32.9142 103 33.2939 102.968 33.6737 102.873C35.0029 102.557 36.2372 101.988 37.3449 101.166C38.3576 100.407 39.3071 99.4907 40.1616 98.4474C40.7312 98.7319 41.3642 99.0165 42.0288 99.3642C42.7884 99.7436 43.6112 100.06 44.4974 100.344C45.3835 100.629 46.3013 100.818 47.3141 100.913C47.5989 100.945 47.8837 100.945 48.1686 100.945C48.9281 100.945 49.7193 100.85 50.5422 100.66C51.6499 100.407 52.5993 99.8701 53.3589 99.1113C54.0868 98.3526 54.6564 97.5622 55.0679 96.677C55.4793 95.8234 55.7008 94.9698 55.7958 94.1794C55.8907 93.3259 55.7958 92.7252 55.5426 92.3458L55.2578 91.9032Z" fill="#C1272D"/>
<path d="M38.6424 75.3371C37.4398 75.6217 36.3638 75.7797 35.4776 75.7797C35.2244 75.7797 34.9713 75.7797 34.7181 75.7481C34.7497 75.7481 34.7497 75.7797 34.7497 75.7797L34.7814 75.8113L34.813 75.843L34.8447 75.8746L34.908 75.9062H34.9396L34.9713 75.9378L35.0029 75.9694L35.0346 76.001L35.0662 76.0326L35.0979 76.0643L35.1295 76.0959L35.1612 76.1275L35.1928 76.1591L35.2244 76.1907L35.2561 76.2223L35.2877 76.2539L35.3194 76.2856L35.351 76.3172L35.3827 76.3488L35.4143 76.3804C35.4143 76.3804 35.446 76.3804 35.446 76.412C35.446 76.412 35.446 76.412 35.4776 76.4436L35.5093 76.4752L35.5409 76.5069C35.5409 76.5069 35.5726 76.5069 35.5726 76.5385L35.6042 76.5701L35.6359 76.6017L35.6675 76.6333L35.6992 76.6649L35.7308 76.6965L35.7625 76.7282C35.7941 76.7282 35.7941 76.7598 35.8258 76.7598C35.8258 76.7598 35.8258 76.7598 35.8574 76.7598L35.8891 76.7914C35.8891 76.7914 35.9207 76.7914 35.9207 76.823L35.9524 76.8546L35.984 76.8862L36.0157 76.9178C36.0157 76.9178 36.0473 76.9178 36.0473 76.9495L36.0789 76.9811L36.1106 77.0127C36.1422 77.0127 36.1422 77.0443 36.1422 77.0443H36.1739L36.2055 77.0759L36.2372 77.1075L36.2688 77.1391C36.3005 77.1391 36.3005 77.1708 36.3321 77.1708C36.3321 77.1708 36.3321 77.1708 36.3638 77.2024L36.3954 77.234L36.4271 77.2656C36.8385 77.6134 37.4398 77.8347 38.231 77.9295C38.4525 77.9611 38.7057 77.9611 38.9906 77.9611C39.0222 77.9611 39.0539 77.9611 39.0539 77.9611C39.2754 77.0127 39.4653 76.0959 39.6552 75.1791C39.4336 75.1474 39.0222 75.2423 38.6424 75.3371Z" fill="#C1272D"/>
<path d="M50.732 57.2852C50.5738 57.4432 50.3839 57.6329 50.1624 57.9174C49.5927 58.6446 49.0863 59.6879 48.7066 61.0157C48.58 61.4583 48.4217 62.0589 48.2002 62.8809C48.6433 62.2802 49.0547 61.6796 49.4345 61.0789C50.2573 59.7195 50.6687 58.4549 50.732 57.2852Z" fill="#C1272D"/>
<path d="M56.1755 55.7363C56.1755 56.8744 55.9223 58.1706 55.4159 59.5933C54.9096 60.9843 54.2133 62.407 53.3272 63.8612C52.441 65.2839 51.365 66.7381 50.1624 68.0976C48.9914 69.3937 47.6938 70.5951 46.3013 71.6068C45.8266 73.6617 45.3518 75.685 44.9088 77.6767C44.434 79.7949 43.9277 81.6286 43.4529 83.0512C43.0415 84.379 42.5035 85.8649 41.8705 87.5405C41.3325 88.8999 40.7312 90.2277 40.0033 91.5555C40.2565 91.682 40.5097 91.7768 40.7312 91.9033C41.2692 92.1562 41.8072 92.3775 42.3769 92.5355C42.7883 92.662 43.2314 92.7885 43.6745 92.8517C44.1492 91.9033 44.5923 90.9548 44.9404 90.0064C45.5734 88.3624 46.1114 86.8766 46.5228 85.5804C46.9975 84.1577 47.4723 82.3557 47.9786 80.2691C48.4534 78.1826 48.9281 76.096 49.4344 73.9462C50.8903 72.903 52.2195 71.7016 53.3905 70.3738C54.5931 69.0144 55.6375 67.6233 56.492 66.2323C57.3465 64.8413 58.0427 63.4186 58.5175 62.0908C58.7706 61.3637 58.9605 60.6998 59.0871 60.0359C58.3592 59.4352 58.1377 58.7397 58.106 58.2022C58.0744 57.4751 58.2326 56.7163 58.6124 55.9892C58.6757 55.8311 58.7706 55.7047 58.8339 55.5782C58.8023 55.515 58.7706 55.4518 58.739 55.3885C58.5491 55.0408 58.2959 54.7246 57.9478 54.5033C57.9478 54.5033 55.8907 53.0175 55.8907 52.9858C56.0173 53.3652 56.1122 53.7446 56.1438 54.1872C56.1755 54.7246 56.1755 55.2621 56.1755 55.7363Z" fill="#C1272D"/>
<path d="M64.0876 56.9689C63.961 57.4431 63.7711 57.9173 63.4546 58.3915C63.1698 58.8657 62.8216 59.2451 62.4418 59.5929C62.0621 59.9406 61.6506 60.2252 61.2392 60.3832C61.1126 60.4465 60.986 60.4781 60.8594 60.5097C60.8594 60.5097 63.3913 62.375 63.5495 62.4698C63.7078 62.5646 63.866 62.6279 64.0559 62.6279C64.2458 62.6279 64.4357 62.5963 64.6256 62.5014C64.9737 62.3433 65.3218 62.122 65.67 61.8059C65.9864 61.5214 66.3029 61.142 66.5561 60.731C66.841 60.32 66.9992 59.909 67.0941 59.498C67.1891 59.1503 67.2207 58.7393 67.2207 58.2967C67.1891 57.8541 67.1258 57.4747 66.9992 57.1269C66.8726 56.7792 66.6511 56.4947 66.3662 56.305C66.3662 56.305 64.0559 54.6294 64.0243 54.6294C64.0876 54.9139 64.1508 55.2617 64.1508 55.6094C64.2458 56.0837 64.1825 56.5579 64.0876 56.9689Z" fill="#C1272D"/>
<path d="M61.0494 70.0259C60.7962 70.9111 60.5113 71.828 60.1949 72.8396C59.91 73.7881 59.6885 74.5468 59.5302 75.1159C59.372 75.7165 59.2138 76.4121 58.9922 77.1708C58.8023 77.8979 58.6124 78.6251 58.4542 79.3206C58.296 79.9845 58.201 80.6168 58.1377 81.1858C58.0744 81.7865 58.1694 81.9446 58.1694 81.9446C58.1694 81.9446 58.2643 82.1027 58.2643 82.1659C58.5175 82.0711 59.0555 81.7865 59.91 80.9013C60.7645 80.0477 61.6507 79.0677 62.5052 77.9612C62.5368 77.8663 62.5685 77.7715 62.5685 77.6766C62.7267 77.076 62.9483 76.3172 63.2331 75.3688C63.5496 74.3571 63.8028 73.4403 64.0876 72.5551C64.3408 71.6383 64.594 70.8479 64.7522 70.184C65.037 69.1091 65.037 68.9827 64.8788 68.8246L61.9355 66.6748C61.9039 66.9277 61.8089 67.2755 61.714 67.6865C61.5557 68.3188 61.3342 69.1091 61.0494 70.0259Z" fill="#C1272D"/>
<path d="M66.0181 80.6801C65.9549 80.4588 65.8916 80.1743 65.8283 79.9214C65.5118 80.364 65.1636 80.8066 64.8472 81.2492C63.8028 82.6402 62.7584 83.8416 61.7456 84.8849C60.6063 86.0546 59.7202 86.6869 58.929 86.9082C58.5175 87.0346 58.1061 87.0979 57.7263 87.0979C57.6314 87.0979 57.5364 87.0979 57.4099 87.0979L59.3404 88.4889C59.7835 88.7734 60.2582 88.9631 60.7962 89.058C60.9861 89.0896 61.2076 89.1212 61.3975 89.1212C61.7456 89.1212 62.0938 89.058 62.4419 88.9631C63.1065 88.7734 63.961 88.1728 65.0054 87.0979C65.9548 86.1494 66.9043 85.0113 67.8854 83.7151C67.7904 83.6519 67.6955 83.5887 67.6322 83.4938C66.9359 82.9564 66.4296 82.0079 66.0181 80.6801Z" fill="#C1272D"/>
<path d="M83.4879 71.6384C83.5829 70.5318 83.8677 69.3305 84.3108 68.0659C83.7411 68.3504 83.2031 68.635 82.6967 68.8563C82.2536 69.046 81.8422 69.204 81.4308 69.3305C81.2409 70.5318 80.8928 71.8597 80.3547 73.2823C79.7218 74.9579 78.9306 76.5386 78.0128 78.0245C77.095 79.542 76.0506 80.8698 74.9113 81.9763C73.7086 83.1776 72.4743 83.9048 71.2717 84.1893C70.8919 84.2841 70.4172 84.3474 69.8475 84.379L71.9047 85.8649C72.3794 86.2442 72.8858 86.4023 73.3605 86.4023C73.3921 86.4023 73.4554 86.4023 73.4871 86.4023C74.0251 86.3707 74.4682 86.3075 74.8163 86.2442C75.8923 85.9913 77.0317 85.2958 78.1394 84.1893C79.2154 83.1144 80.2282 81.8182 81.146 80.3323C82.0321 78.8781 82.7917 77.2973 83.4246 75.685C83.4879 75.4953 83.5829 75.274 83.6462 75.0843C83.4246 74.1359 83.393 72.9978 83.4879 71.6384Z" fill="#C1272D"/>
<path d="M106.591 70.6899C106.623 70.2157 106.749 69.7098 106.939 69.1724C107.097 68.6982 107.319 68.1607 107.541 67.6233C107.762 67.0858 108.015 66.5484 108.268 66.0426C108.522 65.5367 109.851 62.6282 110.167 61.9011C110.42 61.3004 110.515 60.921 110.547 60.6997C110.515 60.6997 109.819 60.921 109.503 61.0159C109.186 61.0791 108.901 61.1107 108.648 61.1107C108.458 61.1107 108.268 61.0791 108.11 61.0475C107.984 61.3004 107.825 61.6481 107.604 62.0275C107.192 62.8179 106.749 63.7663 106.18 64.936C105.642 66.0426 105.072 67.2123 104.439 68.4453C103.838 69.6782 103.268 70.8163 102.73 71.8912L102.572 72.239C102.097 73.1558 101.717 73.9462 101.401 74.6101C100.926 75.5585 100.768 75.843 100.705 75.9695C100.42 76.5069 100.103 76.8863 99.7234 77.1392C99.3436 77.3921 98.9639 77.5186 98.6157 77.5186C98.5208 77.5186 98.4258 77.5186 98.3309 77.487C97.7612 77.3921 97.3498 76.9812 97.1916 76.3489C97.1599 76.2856 97.1599 76.2224 97.1599 76.1276C96.4004 76.8231 95.6408 77.4238 94.8812 77.9928C93.4571 79.0045 92.0646 79.6684 90.7037 79.9845C90.3239 80.0794 89.9125 80.111 89.4694 80.111C89.1846 80.111 88.8681 80.0794 88.5833 80.0478L90.1657 81.1859C90.1657 81.1859 91.3683 81.8814 92.0013 82.0079C92.4127 82.1027 92.7925 82.1343 93.1722 82.1343C93.552 82.1343 93.9001 82.1027 94.2483 82.0079C95.5142 81.7233 96.8434 81.0594 98.2043 80.111C98.9322 79.6052 99.6601 79.0045 100.42 78.309C100.42 78.309 101.875 79.3522 101.875 79.3839C101.97 79.4471 102.065 79.4787 102.16 79.5103C102.224 79.5103 102.255 79.5103 102.319 79.5103C102.54 79.5103 102.793 79.4155 103.078 79.2574C103.363 79.0677 103.648 78.72 103.869 78.309C103.964 78.1509 104.186 77.7083 104.566 76.9812C104.882 76.3173 105.293 75.5269 105.737 74.6101L105.895 74.2623C106.18 73.6616 106.496 73.061 106.813 72.3971C106.623 71.8596 106.559 71.2589 106.591 70.6899Z" fill="#C1272D"/>
<path d="M121.402 69.9941C120.959 69.3618 120.643 68.6347 120.485 67.8443C120.421 67.5598 120.39 67.2753 120.358 66.9907C120.042 67.4649 119.725 67.9392 119.409 68.4134C118.649 69.5199 117.858 70.5632 117.003 71.5432C116.149 72.5233 115.294 73.3768 114.44 74.0724C113.522 74.8311 112.604 75.3369 111.718 75.5266C111.275 75.6215 110.452 75.6847 110.421 75.6847L112.383 77.1073C112.604 77.2654 112.857 77.4235 113.142 77.5183C113.459 77.6448 113.775 77.708 114.155 77.708C114.471 77.708 114.851 77.6764 115.231 77.5816C116.022 77.3919 116.845 76.9493 117.7 76.2538C118.522 75.5898 119.345 74.7363 120.168 73.7878C120.928 72.9026 121.656 71.9542 122.352 70.9741C122.004 70.6896 121.687 70.3735 121.402 69.9941Z" fill="#C1272D"/>
<path d="M77.8229 49.3183C77.7596 50.6461 77.4431 52.4165 76.9367 54.5347C76.4937 56.5264 75.9873 58.4865 75.4493 60.3517C74.9113 62.217 74.3416 63.9874 73.7403 65.5997C73.1706 67.2437 72.5693 68.7612 71.9996 70.1522C71.4616 71.4484 70.9552 72.5865 70.5122 73.5982C70.259 75.748 70.259 77.4235 70.5122 78.5933C70.6704 79.2572 70.8603 79.5417 70.9552 79.5417C70.9869 79.5417 71.0185 79.5417 71.0502 79.5417C71.5249 79.4152 72.0629 79.0359 72.6009 78.3404C72.8858 77.961 73.1706 77.55 73.4554 77.1074C73.4871 76.7912 73.5187 76.4435 73.5504 76.0957C73.9935 75.0841 74.4998 73.8827 75.0695 72.5865C75.4176 71.7645 75.7658 70.8793 76.1139 69.9309C75.7658 69.8044 75.4493 69.6464 75.1961 69.4251C74.753 69.0773 74.2466 68.4134 74.2466 67.2121C74.2466 66.6114 74.4049 66.0107 74.7214 65.41C75.0062 64.9042 75.3227 64.3984 75.7025 63.9874C76.0822 63.5764 76.4937 63.197 76.9684 62.9125C77.4431 62.5963 77.8862 62.4067 78.3293 62.2802C78.4559 62.2486 78.5508 62.2486 78.6774 62.217C79.1521 60.5414 79.5952 58.8026 80.0066 57.0006C80.513 54.8824 80.7978 53.1752 80.8611 51.879C80.9561 50.1719 80.8295 49.6976 80.5446 49.5396C80.5446 49.5396 77.8229 47.5795 77.8229 47.5479C77.8545 48.0853 77.8545 48.6544 77.8229 49.3183Z" fill="#C1272D"/>
<path d="M81.9372 64.9043L81.051 64.272C81.146 64.5565 81.2409 64.841 81.3042 65.1572C81.4941 65.0623 81.7156 64.9991 81.9372 64.9043Z" fill="#C1272D"/>
<path d="M98.679 59.53C98.5841 60.6681 98.2992 61.743 97.8245 62.7546C97.3815 63.7347 96.8118 64.6515 96.2105 65.5051C95.6091 66.3587 94.9445 67.149 94.2483 67.8446C93.5837 68.5401 92.9507 69.1724 92.3494 69.8047C91.6848 70.4369 91.0835 71.0376 90.4821 71.6067C90.0391 72.0177 89.6276 72.4287 89.2479 72.808C89.2795 73.2506 89.3745 73.63 89.5327 73.9145C89.6909 74.2307 89.8808 74.4836 90.1024 74.6417C90.3239 74.7997 90.5454 74.863 90.8303 74.8946C90.9252 74.8946 90.9885 74.8946 91.0835 74.8946C91.3683 74.8946 91.6531 74.863 91.938 74.7997C92.381 74.7049 92.8558 74.4836 93.3305 74.2307C93.4571 74.1042 93.5837 73.9778 93.7419 73.8513C94.3432 73.2822 94.9445 72.6816 95.6092 72.0493C96.2105 71.4486 96.8434 70.8163 97.508 70.1208C98.1727 69.4253 98.8056 68.6665 99.4069 67.8446C100.008 67.0226 100.546 66.1374 100.958 65.1889C101.401 64.2405 101.654 63.2288 101.749 62.1856C101.812 61.1739 101.559 60.3835 100.989 59.8461C100.926 59.7829 98.5841 58.0757 98.5841 58.0757C98.6474 58.4867 98.7107 58.9925 98.679 59.53Z" fill="#C1272D"/>
<path d="M133.017 67.6549C132.701 67.2123 132.448 66.6749 132.258 66.0742C131.277 67.402 130.327 68.5718 129.378 69.5202C128.238 70.7215 127.257 71.3854 126.371 71.5751C125.833 71.7016 125.358 71.7648 124.884 71.7648C124.789 71.7648 124.662 71.7648 124.567 71.7648L126.308 73.0294C126.593 73.2507 126.909 73.4404 127.257 73.5668C127.637 73.7249 128.08 73.7881 128.555 73.7881C128.966 73.7881 129.409 73.7249 129.884 73.6301C130.644 73.4404 131.498 72.8397 132.574 71.7332C133.334 70.9428 134.125 70.026 134.916 68.9827C134.125 68.7614 133.492 68.3188 133.017 67.6549Z" fill="#C1272D"/>
<path d="M139.6 68.382C138.872 68.8562 138.081 69.1091 137.29 69.1724C137.037 69.204 136.783 69.204 136.562 69.204C136.372 69.204 136.151 69.204 135.961 69.1724L137.891 70.5634C138.492 71.006 139.284 71.2273 140.265 71.2273C140.328 71.2273 140.423 71.2273 140.486 71.2273C140.834 69.6466 141.183 68.1291 141.499 66.8013C140.898 67.4336 140.265 67.971 139.6 68.382Z" fill="#C1272D"/>
<path d="M111.053 55.0724C111.022 55.2937 110.958 55.515 110.895 55.7363C110.958 55.7046 110.99 55.7046 110.99 55.7046C111.275 55.5466 111.623 55.4201 112.161 55.2937C112.414 55.2304 112.699 55.1988 112.921 55.1988C113.364 55.1988 113.744 55.2937 114.092 55.515C113.997 55.0407 113.807 54.6297 113.522 54.2188C113.427 54.0607 113.269 53.9342 113.142 53.8394C113.111 53.8394 110.895 52.2271 110.895 52.2271C111.022 52.5432 111.085 52.891 111.117 53.2387C111.212 53.6813 111.18 54.282 111.053 55.0724Z" fill="#C1272D"/>
<path d="M93.3305 61.4582C93.3305 61.3318 93.3621 61.2369 93.3621 61.1421C93.2355 61.2369 93.0456 61.3634 92.8241 61.6163C92.4127 62.0589 91.9696 62.6596 91.5265 63.3867C91.0835 64.1771 90.672 65.0939 90.2606 66.1688C90.229 66.2636 90.1973 66.3269 90.1656 66.4217C91.3366 65.1571 92.1595 64.1139 92.6026 63.2919C93.1406 62.3434 93.2988 61.7744 93.3305 61.4582Z" fill="#C1272D"/>
<path d="M116.054 59.4352C116.149 60.3836 115.927 61.4585 115.389 62.565C114.915 63.5451 114.313 64.6516 113.649 65.8529C113.237 66.5484 112.857 67.3704 112.446 68.224C112.035 69.1092 111.971 69.6783 112.003 69.9628C112.003 70.0576 112.035 70.1525 112.066 70.2157C112.13 70.2157 112.256 70.1841 112.383 70.1525C112.604 70.0892 113.016 69.9312 113.617 69.3937C114.187 68.8879 114.788 68.2556 115.358 67.5285C115.991 66.7697 116.592 65.9478 117.193 65.0942C117.795 64.209 118.364 63.3554 118.902 62.5018C118.997 62.3753 119.06 62.2489 119.124 62.1224C119.092 61.743 119.029 61.3321 118.934 60.8895C118.839 60.4152 118.649 60.0042 118.427 59.6249C118.238 59.3087 118.016 59.0558 117.763 58.8661C117.763 58.8661 115.674 57.3486 115.642 57.3486C115.737 57.6015 115.801 57.8229 115.864 58.1074C115.959 58.55 116.022 59.0242 116.054 59.4352Z" fill="#C1272D"/>
<path d="M140.296 51.089C140.17 51.6897 139.98 52.48 139.695 53.3968C139.442 54.282 139.157 55.2305 138.841 56.2421C138.556 57.1906 138.271 58.0758 138.049 58.8978C137.765 59.8778 137.67 60.5101 137.67 60.5101C137.385 62.1857 137.48 63.0076 137.606 63.4186C137.67 63.5767 137.701 63.6083 137.701 63.6083C137.701 63.6083 137.923 63.6083 138.018 63.5767C138.081 63.5451 138.366 63.4818 138.841 62.976C139.284 62.5334 139.727 61.9644 140.17 61.3004C140.645 60.6049 141.088 59.8146 141.562 58.961C141.847 58.3919 142.132 57.8545 142.385 57.2854C142.543 56.8112 142.67 56.337 142.797 55.8944C143.05 54.9776 143.271 54.2188 143.366 53.6181C143.619 52.48 143.651 51.658 143.525 51.1206C143.461 50.8677 143.335 50.678 143.113 50.5199C143.081 50.4883 140.55 48.6547 140.518 48.623C140.613 49.2553 140.518 50.0457 140.296 51.089Z" fill="#C1272D"/>
<path d="M153.81 48.3065C153.747 48.1484 153.62 47.9904 153.462 47.8955C153.462 47.8955 150.899 46.0303 150.867 46.0303C150.962 46.5993 150.962 47.2949 150.835 48.2117C150.74 48.8123 150.55 49.6027 150.266 50.5511C150.012 51.468 149.696 52.5745 149.348 53.8391C149 55.1352 148.62 56.6211 148.24 58.2335C147.86 59.8458 147.132 63.7028 147.132 63.7028C146.784 65.3783 146.405 67.3068 145.993 69.425C145.645 71.2903 145.234 73.5033 144.727 76.2537C144.252 78.8777 143.714 81.9443 143.145 85.3587C142.955 86.5284 142.449 87.2872 141.657 87.6666C141.278 87.8562 140.834 87.9511 140.423 87.9827L142.702 89.6267C142.765 89.6583 142.828 89.7215 142.955 89.7847C143.05 89.848 143.176 89.8796 143.271 89.9428H143.303C143.525 90.006 143.746 90.0376 143.968 90.0376C144.347 90.0376 144.727 89.9428 145.075 89.7847C145.645 89.5002 146.025 88.8679 146.215 87.9195C146.784 84.5051 147.291 81.4385 147.797 78.8145C148.303 76.064 148.715 73.851 149.063 71.9858C149.474 69.8676 149.854 67.9391 150.202 66.2635C150.55 64.2402 150.93 62.4066 151.342 60.7626C151.721 59.1503 152.101 57.6644 152.481 56.3682C152.829 55.1036 153.146 53.9971 153.399 53.0803C153.652 52.1635 153.842 51.4047 153.937 50.8357C154.063 49.6027 154.032 48.8123 153.81 48.3065Z" fill="#C1272D"/>
<path d="M139.822 41.9836C139.663 42.4262 139.442 42.8056 139.094 43.1533C138.682 43.5643 138.208 43.8172 137.67 43.8488C137.385 43.8805 137.068 43.9121 136.752 43.9121C136.689 43.9121 136.499 43.9121 136.499 43.9121C136.182 43.9121 135.802 43.9437 135.391 43.9753C134.885 44.0385 134.283 44.1334 133.587 44.2282C132.922 44.3231 132.1 44.5127 131.182 44.734C131.024 44.7657 130.865 44.8289 130.644 44.8921C130.58 44.9237 130.549 44.9237 130.486 44.9237C130.422 45.2715 130.359 45.5876 130.296 45.9354C130.201 46.4728 130.042 47.0735 129.853 47.6742C129.473 49.0652 129.03 50.5827 128.523 52.1951C128.08 53.6177 127.542 55.2617 126.909 57.1269C126.308 58.9289 125.612 60.889 124.852 62.9756C124.662 64.4931 124.789 65.2202 124.884 65.568C125.074 66.2003 125.264 66.39 125.359 66.4532C125.422 66.4848 125.548 66.548 125.77 66.548C125.865 66.548 126.118 66.5164 126.118 66.5164C126.181 66.5164 126.498 66.4532 127.194 65.8525C127.479 65.5996 127.795 65.2835 128.112 64.9673C128.808 63.0704 129.441 61.2684 130.011 59.5929C130.644 57.7592 131.15 56.0836 131.593 54.6926C132.1 53.0803 132.543 51.5628 132.922 50.1717C133.112 49.5711 133.239 49.002 133.334 48.4962C133.429 48.0536 133.524 47.5793 133.619 47.1051C133.809 47.0735 133.967 47.0103 134.125 46.9471C134.347 46.8838 134.536 46.8206 134.695 46.789C135.613 46.5677 136.435 46.378 137.132 46.2832C137.828 46.1883 138.429 46.0935 138.967 46.0302C139.41 45.967 139.822 45.9354 140.17 45.9354C140.17 45.9354 140.36 45.9354 140.423 45.9354C140.74 45.9354 141.024 45.9038 141.278 45.8722C141.657 45.8722 142.005 45.6825 142.29 45.398C142.543 45.1134 142.765 44.7973 142.86 44.4495C142.987 44.1018 143.018 43.7856 143.018 43.5011C142.987 43.1217 142.828 42.9636 142.67 42.8688L139.98 40.9087C139.98 41.2565 139.948 41.6042 139.822 41.9836Z" fill="#C1272D"/>
<path d="M131.815 36.736C131.783 37.5264 131.688 38.4748 131.53 39.6129C132.258 39.4548 132.922 39.36 133.555 39.2968C134.03 39.2652 134.442 39.2335 134.853 39.2019C134.885 37.8425 134.758 37.4631 134.631 37.2734C134.631 37.2734 134.41 37.0838 134.378 37.0521L131.783 35.1553C131.815 35.5346 131.846 36.0405 131.815 36.736Z" fill="#C1272D"/>
<path d="M121.846 48.0536C120.959 48.2749 120.073 48.3697 119.282 48.3697C119.155 48.3697 119.029 48.3697 118.902 48.3697C118.586 48.3697 118.301 48.3381 118.048 48.3065L120.39 50.0137C120.485 50.0769 120.548 50.1085 120.643 50.1401C121.086 50.2666 122.637 50.393 122.637 50.393C122.795 49.4446 122.985 48.5278 123.175 47.6426C122.7 47.8323 122.257 47.9587 121.846 48.0536Z" fill="#C1272D"/>
<path d="M24.4957 21.5292C24.4324 20.4543 24.0843 19.4743 23.4829 18.6523C21.9955 16.4709 18.894 16.4393 14.1467 18.5575C13.2922 18.9368 12.3111 19.6007 11.2035 20.5492C10.0958 21.466 9.08303 22.5725 8.13358 23.8371C7.21578 25.1017 6.45623 26.4927 5.91821 28.0102C5.38019 29.5277 5.22195 31.0768 5.44349 32.6575C5.63338 33.7956 5.9815 34.8073 6.48788 35.6925C6.99425 36.5777 7.59556 37.3681 8.22853 38.0636C8.86149 38.7591 9.5261 39.3914 10.1907 39.9605C10.8553 40.5295 11.425 41.067 11.8997 41.5728C12.3744 42.0786 12.8492 42.7109 13.2922 43.4697C13.7353 44.2284 14.1151 45.082 14.3999 46.0304C14.6848 46.9789 14.8113 47.9905 14.8113 49.097C14.8113 50.2036 14.5265 51.3417 14.0518 52.5114C12.5327 56.3052 10.7287 58.4233 8.57666 58.8659C7.69051 59.0556 6.99425 58.9291 6.45623 58.5498C5.91821 58.1704 5.50678 57.633 5.2536 56.9691C4.96876 56.3051 4.81052 55.6096 4.77887 54.8193C4.74723 54.0605 4.77887 53.365 4.87382 52.7643C4.93712 52.5746 5.03206 52.3533 5.127 52.0688C5.31689 51.5946 5.60173 51.0255 6.0448 50.4249C5.72832 50.3932 5.38019 50.4249 5.00041 50.5197C4.62063 50.6145 4.2725 50.741 3.95602 50.8675C3.57624 51.0571 3.19647 51.2468 2.81669 51.4365C2.50021 51.6578 2.18373 51.9107 1.89889 52.132C1.64571 52.3533 1.36087 52.5746 1.10769 52.8592C0.854502 53.1437 0.601317 53.4282 0.348131 53.7444C0.0316497 54.8509 -0.0632948 55.8625 0.0949461 56.7794C0.253187 57.6962 0.506372 58.4865 0.822854 59.1505C1.17098 59.9092 1.67735 60.6047 2.27867 61.2054C2.81669 61.7428 3.418 62.059 4.08262 62.2171C4.74723 62.3751 5.44349 62.4067 6.1081 62.3751C6.77271 62.3119 7.40567 62.1854 8.00699 61.9641C8.6083 61.7428 9.14632 61.5532 9.5894 61.3635C10.1591 61.1105 10.8553 60.6996 11.7098 60.0989C12.5643 59.4982 13.4188 58.6446 14.2417 57.5697C15.0962 56.4948 15.8557 55.1354 16.552 53.4915C17.2483 51.8475 17.7863 49.8874 18.1028 47.6428C18.3243 46.0937 18.3243 44.7026 18.1344 43.5013C17.9445 42.2999 17.6597 41.2567 17.2166 40.3398C16.7735 39.423 16.2672 38.6643 15.6658 38.0004C15.0645 37.3365 14.4949 36.7674 13.8935 36.2616C13.2922 35.7557 12.7542 35.3447 12.2478 34.9338C11.7415 34.5544 11.3617 34.175 11.1402 33.8272C10.9503 33.5743 10.7604 33.2898 10.5705 32.942C10.349 32.5943 10.1591 32.2465 10.0008 31.8355C9.81093 31.4245 9.68434 30.9819 9.5894 30.4761C9.49445 29.9703 9.4628 29.4012 9.5261 28.7689C9.5894 27.9786 9.84258 27.1566 10.2857 26.303C10.7287 25.4494 11.2984 24.6274 11.9314 23.8687C12.5643 23.1099 13.2922 22.3828 14.0834 21.7505C14.8746 21.0866 15.6025 20.5808 16.3305 20.1698C17.0584 19.7588 17.6913 19.5059 18.2926 19.411C18.8623 19.3162 19.3054 19.411 19.5902 19.6956C20.0966 20.2646 20.4131 20.8969 20.508 21.5924C20.6346 22.3196 20.6346 23.0467 20.5397 23.8055C20.4447 24.5642 20.2548 25.323 20.0016 26.1133C19.7485 26.8721 19.4953 27.5676 19.2421 28.1683C18.9889 28.7689 18.7674 29.3064 18.5458 29.7174C18.3243 30.1284 18.261 30.3813 18.2926 30.4761C18.4825 30.5077 18.6724 30.5393 18.9256 30.5077C19.1471 30.4761 19.3687 30.4445 19.5902 30.3813C19.8118 30.318 20.0649 30.2232 20.2865 30.1284C21.141 29.749 21.7739 29.4012 22.1537 29.0851C22.5335 28.7689 22.8183 28.516 23.0082 28.2947C23.1032 28.1999 23.2931 27.8205 23.5462 27.125C23.8311 26.4295 24.0526 25.5759 24.2425 24.5958C24.4957 23.6474 24.559 22.6041 24.4957 21.5292Z" fill="#C0F3D4"/>
<path d="M28.2618 49.6661C28.8315 49.5397 29.3695 49.2551 29.9391 48.8125C30.5088 48.3699 31.0468 47.8641 31.5848 47.2634C32.1229 46.6628 32.6292 45.9989 33.104 45.2401C33.5787 44.513 34.0218 43.7542 34.4332 43.0271C34.6864 44.3549 35.1927 45.3982 35.889 46.1569C36.5853 46.9473 37.6296 47.1686 39.0222 46.8208C39.8767 46.6311 40.6679 46.1885 41.4274 45.5246C42.1553 44.8607 42.8516 44.0704 43.5162 43.0903C44.1492 42.1419 44.7505 41.067 45.2885 39.9289C45.8265 38.7908 46.3012 37.621 46.7127 36.4513C46.9342 36.4513 47.1241 36.4513 47.3456 36.4513C47.5672 36.4197 47.7571 36.3881 47.9153 36.3564C48.9913 36.1035 50.0357 35.6925 51.0485 35.1235C51.7764 34.7125 52.4726 34.2699 53.1056 33.7957C52.9474 34.3963 52.8524 34.9654 52.7891 35.5345C52.6309 37.0836 52.7575 38.3165 53.1056 39.2966C53.4854 40.2766 53.9601 41.0038 54.5931 41.5096C55.226 42.0154 55.8906 42.3632 56.6502 42.4896C57.4098 42.6161 58.106 42.6161 58.739 42.458C59.9733 42.1735 61.2392 41.5728 62.5684 40.656C63.866 39.7392 65.1636 38.6327 66.4295 37.3681C67.5372 36.23 68.6132 34.997 69.6259 33.6376C69.6892 34.2383 69.7842 34.8073 69.9741 35.2815C70.3539 36.2616 70.8286 36.9887 71.4615 37.5262C72.0945 38.0636 72.7591 38.3798 73.5187 38.5378C74.2782 38.6959 74.9745 38.6643 75.6074 38.5378C76.8417 38.2533 78.1077 37.6526 79.4369 36.7358C80.7345 35.819 82.032 34.7125 83.298 33.4163C84.5639 32.1201 85.7349 30.7291 86.8742 29.1799C87.4122 28.4528 87.8869 27.7257 88.3617 26.9986C88.1718 28.2947 88.0768 29.2116 88.0452 29.6858C87.9819 30.2865 88.0452 30.9187 88.1718 31.551C88.33 32.2149 88.5832 32.784 88.9313 33.2582C89.3111 33.764 89.8175 34.1118 90.4504 34.3647C91.0834 34.6176 91.9063 34.6176 92.8874 34.3963C93.552 34.2383 94.4065 33.6692 95.4192 32.6575C96.4319 31.6459 97.4447 30.4445 98.5207 29.0219C99.5968 27.5992 100.578 26.0817 101.559 24.501C102.508 22.9203 103.3 21.466 103.869 20.1698C104.059 19.7588 104.122 19.4427 104.122 19.2214C104.122 19.0001 104.028 18.8736 103.933 18.8104C103.806 18.7472 103.648 18.7472 103.458 18.842C103.268 18.9369 103.11 19.0949 102.983 19.2846C102.793 19.5691 102.508 20.075 102.065 20.7705C101.622 21.466 101.116 22.2564 100.515 23.1416C99.9132 24.0268 99.2803 24.912 98.584 25.8604C97.8878 26.7772 97.1915 27.6625 96.5269 28.4528C95.8623 29.2432 95.1977 29.9387 94.5647 30.4445C93.9317 30.982 93.3937 31.2665 92.9507 31.2981C92.381 31.393 91.9063 31.3297 91.5265 31.0768C91.21 30.8555 90.9252 30.4129 90.7036 29.7806C90.4821 29.1483 90.4504 28.1367 90.6403 26.7772C91.3999 24.7539 92.0961 22.857 92.7291 21.0866C93.3621 19.3162 93.8684 17.7355 94.3115 16.3761C94.8179 14.827 95.261 13.3727 95.6407 12.0449C95.8306 11.4758 95.9572 10.9384 96.0522 10.4326C96.1471 9.92673 96.2737 9.4209 96.3687 8.91506C96.5902 8.85184 96.8434 8.78861 97.0649 8.72538C97.2865 8.66215 97.4763 8.59892 97.6662 8.5673C98.6157 8.346 99.4385 8.15632 100.135 8.06147C100.831 7.93501 101.464 7.87179 101.97 7.80856C102.477 7.74533 102.92 7.71371 103.3 7.71371C103.679 7.71371 103.996 7.6821 104.281 7.65049C104.566 7.65049 104.85 7.52403 105.072 7.27111C105.293 7.0182 105.483 6.76528 105.578 6.48075C105.673 6.19622 105.737 5.9433 105.705 5.69039C105.705 5.43747 105.578 5.31101 105.388 5.31101C105.167 5.31101 104.882 5.24778 104.471 5.18455C104.059 5.12133 103.521 5.08971 102.825 5.08971C102.16 5.08971 101.337 5.12133 100.356 5.24778C99.4069 5.34263 98.2992 5.53231 97.0649 5.84846C97.3497 4.20451 97.508 2.8767 97.5396 1.86503C97.5713 0.85337 97.508 0.221081 97.3497 0.0313938C97.1915 -0.126679 96.97 -0.158293 96.6535 -0.126679C96.337 -0.0950642 95.9889 -0.000220701 95.6407 0.126237C95.2926 0.252695 94.9445 0.410768 94.6597 0.600455C94.3432 0.790141 94.1533 0.979828 94.0583 1.1379C93.7735 1.64373 93.4254 2.46571 93.0772 3.66706C92.6975 4.8368 92.3177 6.22783 91.9379 7.77694C91.4315 7.99824 90.9252 8.18793 90.4188 8.37762C89.9124 8.5673 89.3744 8.75699 88.8047 8.91506C88.0452 9.13637 87.3173 9.29444 86.6843 9.4209C86.0197 9.54735 85.4184 9.6422 84.8804 9.70543C84.6905 9.73704 84.5006 9.89511 84.279 10.1164C84.0575 10.3377 83.8676 10.5906 83.741 10.8435C83.5828 11.0965 83.5195 11.3494 83.4878 11.6023C83.4562 11.8236 83.5511 11.9817 83.8043 12.0449C84.2157 12.1714 84.8487 12.2346 85.6716 12.2346C86.5261 12.2662 87.4122 12.1397 88.3617 11.9184C88.7731 11.8236 89.2162 11.6655 89.7225 11.5075C90.2289 11.3178 90.7353 11.1281 91.2416 10.97C90.8302 12.8353 90.4504 14.7954 90.0707 16.7871C89.6909 18.7788 89.3744 20.644 89.0896 22.3828C89.0263 22.7938 88.963 23.2048 88.8997 23.5842C88.868 23.6158 88.868 23.6474 88.8364 23.679C88.2351 24.5642 87.5072 25.6075 86.5894 26.8405C85.7032 28.0734 84.7221 29.2748 83.6777 30.4445C82.6333 31.6143 81.5573 32.6575 80.4813 33.5744C79.4052 34.4912 78.3292 35.0602 77.3481 35.3132C76.8734 35.4396 76.3987 35.4712 75.9556 35.4396C75.5125 35.408 75.1011 35.2815 74.753 35.0286C74.4048 34.8073 74.12 34.4596 73.8668 33.9854C73.6453 33.5111 73.487 32.9105 73.4554 32.1517C73.8984 31.7091 74.4048 31.2033 75.0061 30.6658C75.6074 30.1284 76.2088 29.5277 76.8734 28.927C77.4747 28.358 78.076 27.7257 78.7406 27.0618C79.4052 26.3979 80.0382 25.6707 80.6079 24.8804C81.2092 24.09 81.7155 23.268 82.127 22.3512C82.57 21.466 82.8232 20.5176 82.8865 19.5691C82.9498 18.7156 82.7283 18.0517 82.2219 17.5774C81.7155 17.1348 80.9243 17.04 79.785 17.2929C78.614 17.5774 77.443 18.2413 76.2721 19.2846C75.1011 20.3279 74.0567 21.5292 73.1389 22.9203C72.2211 24.3113 71.4299 25.7656 70.7969 27.2831C70.2589 28.5477 69.9424 29.7174 69.7525 30.7923C69.7525 30.7923 69.7525 30.8239 69.7209 30.8239C68.8347 32.0253 67.8536 33.2266 66.8093 34.3963C65.7649 35.5661 64.6888 36.6094 63.6128 37.5262C62.5051 38.443 61.4607 39.0121 60.4796 39.2334C60.0049 39.3598 59.5302 39.3914 59.0871 39.3598C58.644 39.3282 58.2326 39.2017 57.8845 38.9804C57.5363 38.7591 57.2199 38.4114 56.9983 37.9372C56.7768 37.4946 56.6185 36.8939 56.5869 36.1351C57.03 35.6925 57.5363 35.2183 58.1377 34.6493C58.739 34.1118 59.3403 33.5111 60.0049 32.9105C60.6062 32.3414 61.2075 31.7407 61.8721 31.0452C62.5368 30.3813 63.1697 29.6542 63.7394 28.8638C64.3407 28.0734 64.8471 27.2515 65.2585 26.3663C65.6699 25.4811 65.9548 24.5642 66.0181 23.5842C66.0814 22.7306 65.8598 22.0667 65.3534 21.6241C64.8471 21.1815 64.0559 21.0866 62.9165 21.3396C61.7456 21.6241 60.5746 22.288 59.4036 23.3313C58.2326 24.3745 57.1882 25.5759 56.2704 26.9353C55.3526 28.2947 54.5931 29.7174 53.9601 31.2033C53.8335 31.2981 53.7069 31.4246 53.5803 31.5194C53.0423 31.962 52.4726 32.3414 51.808 32.6892C51.1434 33.0369 50.4472 33.3214 49.6876 33.4795C48.8647 33.6692 48.1685 33.7324 47.6621 33.606C48.1052 31.9936 48.4533 30.571 48.6749 29.338C48.8964 28.1051 49.023 27.2199 49.023 26.7456C49.023 26.0817 48.6432 25.8288 47.9153 26.0185C47.5039 26.1133 47.0608 26.3346 46.5544 26.6508C46.0797 26.9669 45.605 27.4095 45.1936 27.947C44.7505 28.4844 44.434 29.1167 44.1492 29.8439C43.896 30.571 43.7377 31.393 43.7377 32.3414C43.7377 32.7524 43.7694 33.1318 43.8327 33.4163C43.896 33.7324 43.9593 34.017 44.0542 34.3331C43.8643 35.1551 43.6112 36.1035 43.2947 37.1784C42.9782 38.2533 42.5984 39.2966 42.1553 40.3082C41.7123 41.3199 41.2375 42.1735 40.6995 42.9323C40.1615 43.691 39.5602 44.1336 38.8956 44.2917C38.4525 44.3865 38.0727 44.3233 37.7562 44.0388C37.4398 43.7858 37.1549 43.4065 36.9017 42.9323C36.6802 42.458 36.4903 41.9206 36.3637 41.3199C36.2371 40.7192 36.1105 40.1502 36.0472 39.6127C36.0789 39.4863 36.1422 39.3598 36.2371 39.2017C37.1549 36.8939 37.9461 34.7757 38.6107 32.8788C39.2754 30.982 39.5918 29.5277 39.5918 28.5793C39.5918 28.1999 39.4652 27.9154 39.2437 27.7573C39.0222 27.5992 38.7057 27.5676 38.3576 27.6625C37.4714 27.8838 36.7435 28.3264 36.2055 28.9903C35.6675 29.6542 35.2244 30.5078 34.9079 31.4878C34.5914 32.4995 34.4015 33.606 34.2749 34.8706C34.18 36.1351 34.1167 37.4313 34.1167 38.7591C34.1167 38.9804 34.1167 39.1701 34.1167 39.3282C34.1167 39.5179 34.1167 39.676 34.1483 39.8656C33.2938 42.0787 32.4077 43.691 31.5215 44.7343C30.6354 45.7776 29.8125 46.3782 29.053 46.5679C28.42 46.726 27.977 46.5995 27.6921 46.2518C27.4073 45.904 27.249 45.2401 27.249 44.2917C27.249 43.5013 27.3756 42.5213 27.5972 41.2883C27.8187 40.0553 28.1035 38.8224 28.42 37.5578C28.7365 36.2932 29.0213 35.1235 29.3378 34.017C29.6227 32.9421 29.8442 32.1201 29.9708 31.5826C30.0657 31.2033 30.0974 30.8871 30.0974 30.6658C30.0974 30.4445 29.9075 30.3497 29.591 30.3813C28.9264 30.4761 28.2301 30.7607 27.5339 31.2033C26.8376 31.6459 26.3945 32.0569 26.173 32.4046C26.0464 32.6575 25.8882 33.195 25.635 33.9854C25.4135 34.7757 25.1603 35.6925 24.9387 36.7042C24.7172 37.7475 24.5273 38.854 24.3374 40.0553C24.1475 41.2567 24.0842 42.4264 24.0842 43.5013V44.0388C24.0842 44.8923 24.1475 45.6827 24.3058 46.4098C24.464 47.137 24.6855 47.7377 25.0337 48.2435C25.3818 48.7493 25.7932 49.0971 26.3312 49.2868C26.8376 49.8242 27.4706 49.8558 28.2618 49.6661ZM74.4681 25.892C74.8795 24.8172 75.3226 23.8687 75.7973 23.0784C76.2721 22.288 76.7468 21.6557 77.2215 21.1499C77.6962 20.6757 78.1393 20.3911 78.4874 20.2963C78.8039 20.233 79.0571 20.2963 79.247 20.5176C79.4369 20.7389 79.4685 21.1499 79.4369 21.7189C79.3736 22.288 79.0888 23.0151 78.5824 23.9003C78.076 24.7855 77.1899 25.892 75.9239 27.1882C75.5125 27.6308 75.1011 28.0418 74.6897 28.4212C74.2782 28.8006 73.8984 29.1799 73.5503 29.5277C73.7402 28.1999 74.0567 26.9986 74.4681 25.892ZM58.9289 27.125C59.4036 26.3346 59.8783 25.7024 60.353 25.2281C60.8278 24.7539 61.2708 24.4694 61.619 24.3745C61.9354 24.3113 62.1886 24.3745 62.3785 24.5642C62.5684 24.7855 62.6001 25.1965 62.5684 25.7656C62.5051 26.3346 62.2203 27.0302 61.7139 27.9154C61.2075 28.8006 60.3214 29.8755 59.0555 31.1717C58.644 31.6143 58.2326 32.0253 57.8212 32.4046C57.4098 32.784 57.03 33.1634 56.6818 33.5111C56.9034 32.1833 57.1882 30.982 57.5996 29.9071C58.0111 28.8638 58.4541 27.9154 58.9289 27.125Z" fill="#C0F3D4"/>
<path d="M42.5035 82.7984C42.9782 81.3757 43.4529 79.6053 43.9276 77.4871C44.4024 75.369 44.9087 73.2192 45.4151 71.0694C46.9026 70.0261 48.2318 68.8248 49.4344 67.4969C50.637 66.1375 51.6498 64.7781 52.5043 63.3871C53.3588 61.996 54.0234 60.6366 54.4981 59.3088C54.9728 57.981 55.1944 56.8113 55.1944 55.768C55.1944 55.2938 55.1627 54.7879 55.1311 54.2505C55.0994 53.713 54.9412 53.2388 54.7197 52.8278C54.4981 52.4168 54.1816 52.1007 53.7386 51.911C53.2955 51.7213 52.7258 51.6897 51.9979 51.8794C50.9852 52.1323 50.099 52.5117 49.3395 53.0175C48.5799 53.5233 47.8837 54.124 47.2507 54.8828C46.6177 55.6099 46.0481 56.4635 45.51 57.4119C45.0037 58.3604 44.4973 59.4036 44.0226 60.5418C43.5795 61.585 43.1997 62.8812 42.8516 64.462C42.5035 66.0427 42.1553 67.7815 41.8072 69.7416C40.9844 70.2158 40.1615 70.6268 39.307 71.0062C38.4525 71.3539 37.598 71.6384 36.7119 71.8597C36.2371 71.9862 35.7624 72.0494 35.256 72.081C34.8446 72.1127 34.4015 72.1127 33.8952 72.0494C33.4204 71.9862 32.9457 71.8597 32.5343 71.6068C32.3128 72.1759 32.2811 72.6817 32.4077 73.0611C32.5343 73.4721 32.6609 73.7566 32.8191 73.9463C33.1356 74.3889 33.7686 74.6734 34.6864 74.7999C35.6042 74.9264 36.8384 74.7999 38.3259 74.4205C38.8006 74.2941 39.2754 74.1676 39.7184 74.0411C40.1615 73.9147 40.6046 73.725 41.016 73.5353C40.6679 75.4954 40.2248 77.4871 39.7184 79.5737C39.2121 81.6602 38.6424 83.7468 37.9461 85.865C37.5664 86.9715 37.2182 87.9831 36.8701 88.8683C36.5536 89.7535 36.2055 90.5439 35.889 91.2394C35.4459 91.1762 35.0029 91.1762 34.5281 91.1762C34.0851 91.1762 33.5787 91.2394 33.104 91.3659C31.7431 91.682 30.6354 92.093 29.7809 92.6305C28.9264 93.1679 28.2618 93.7054 27.7554 94.2744C27.2807 94.8435 26.9326 95.4125 26.7743 95.95C26.5844 96.4874 26.4895 96.9616 26.4579 97.341C26.3946 98.3843 26.6794 99.1114 27.3124 99.5856C27.9453 100.028 28.7682 100.155 29.7809 99.9018C31.0785 99.5856 32.2495 99.0482 33.3255 98.2578C34.4015 97.4675 35.351 96.4874 36.2371 95.4125C36.8701 95.7287 37.598 96.0764 38.3259 96.4242C39.0855 96.8036 39.8767 97.1197 40.7312 97.3726C41.5857 97.6255 42.5035 97.8152 43.4846 97.9101C44.4657 98.0049 45.51 97.9417 46.6177 97.6572C47.6938 97.4042 48.5799 96.93 49.2762 96.2029C49.9724 95.4758 50.5421 94.6854 50.9219 93.8634C51.3017 93.0414 51.5232 92.2195 51.6181 91.4607C51.6814 90.702 51.6181 90.1645 51.4283 89.8168C50.8586 90.6071 50.2573 91.2394 49.6243 91.7453C48.9597 92.2511 48.3584 92.6621 47.7571 92.9466C47.0925 93.2944 46.3962 93.5473 45.6683 93.7686C45.0037 93.9267 44.3391 93.9583 43.7377 93.895C43.1364 93.8318 42.5351 93.6737 41.9338 93.4841C41.3325 93.2944 40.7628 93.0731 40.1932 92.7885C39.6235 92.5356 39.0538 92.2511 38.4842 92.0298C39.4019 90.4491 40.1615 88.8367 40.7945 87.1928C41.5857 85.5804 42.092 84.0945 42.5035 82.7984ZM47.219 62.9445C47.4406 61.996 47.6621 61.2689 47.7887 60.7631C48.2318 59.3088 48.7698 58.1707 49.4344 57.3487C50.0674 56.5267 50.6054 56.0525 51.0168 55.9577C51.4915 55.8312 51.7131 56.2106 51.7131 57.0326C51.7131 58.4236 51.2384 59.9411 50.2889 61.585C49.3395 63.229 48.0419 64.7781 46.4595 66.264C46.7127 64.9994 46.9659 63.8929 47.219 62.9445ZM32.3761 96.3294C31.8697 96.6139 31.4266 96.8668 31.0468 97.0881C30.7304 97.2146 30.4772 97.2462 30.2873 97.1829C30.0974 97.1197 30.0341 96.9616 30.0341 96.772C30.0341 96.4558 30.2873 96.0764 30.762 95.6655C31.2367 95.2229 32.0279 94.8751 33.0723 94.6222C33.2939 94.5589 33.642 94.5589 34.0851 94.6222C33.4521 95.4758 32.8824 96.0448 32.3761 96.3294Z" fill="#C0F3D4"/>
<path d="M62.5368 53.9027C62.3153 53.7447 62.0304 53.7447 61.7139 53.9027C61.3975 54.0608 61.0177 54.3453 60.5746 54.8195C60.1315 55.2938 59.7518 55.8312 59.4669 56.4003C59.1821 57.0009 59.0239 57.57 59.0555 58.1391C59.0872 58.7081 59.4036 59.1823 60.0366 59.5301C60.2265 59.6565 60.5113 59.6565 60.8278 59.5301C61.1443 59.4036 61.4608 59.1823 61.7772 58.8978C62.0937 58.6133 62.3785 58.2971 62.6317 57.8861C62.8849 57.5068 63.0432 57.1274 63.1381 56.748C63.233 56.4003 63.2647 56.0525 63.233 55.6415C63.233 55.2305 63.1381 54.8828 63.0432 54.5982C62.9482 54.2821 62.7583 54.0608 62.5368 53.9027Z" fill="#C0F3D4"/>
<path d="M149.822 45.7459C149.633 45.3033 149.126 45.1453 148.335 45.2717C148.018 45.3033 147.67 45.4298 147.354 45.6195C147.069 45.7459 146.721 45.9672 146.373 46.2201C145.993 46.4731 145.613 46.8208 145.233 47.2318C145.708 47.6744 145.898 48.2435 145.866 48.9074C145.803 49.6029 145.677 50.5829 145.455 51.8159C145.297 52.4798 145.075 53.207 144.759 54.0605C144.442 54.9141 144.094 55.7993 143.683 56.6845C143.271 57.6014 142.86 58.4866 142.385 59.4034C141.91 60.3202 141.436 61.1106 140.961 61.8377C140.486 62.5648 139.98 63.1655 139.537 63.6397C139.062 64.1139 138.651 64.3985 138.239 64.4933C137.448 64.683 136.942 64.3985 136.688 63.6713C136.467 62.9442 136.467 61.8061 136.72 60.3202C136.752 60.0041 136.878 59.435 137.132 58.613C137.353 57.791 137.638 56.9058 137.923 55.9258C138.208 54.9457 138.492 53.9973 138.777 53.0805C139.03 52.1637 139.22 51.4049 139.347 50.8359C139.568 49.761 139.632 48.9706 139.505 48.4648C139.379 47.9906 138.904 47.7693 138.113 47.8325C137.796 47.8641 137.448 47.9589 137.132 48.0538C136.847 48.1802 136.499 48.3699 136.15 48.5596C135.771 48.7493 135.391 49.0655 134.979 49.4448C135.391 49.919 135.517 50.6146 135.359 51.5314C135.201 52.4482 134.948 53.5547 134.6 54.8509C134.505 55.1354 134.378 55.578 134.22 56.2103C134.062 56.8426 133.872 57.5381 133.714 58.3285C133.65 58.6763 133.555 58.9924 133.492 59.3402C132.986 60.0989 132.448 60.8893 131.878 61.6796C131.182 62.6597 130.485 63.5449 129.821 64.3669C129.156 65.1888 128.492 65.8844 127.859 66.4534C127.226 66.9909 126.688 67.307 126.245 67.3386C125.675 67.4335 125.2 67.3702 124.82 67.0857C124.504 66.8328 124.219 66.3902 123.998 65.7263C123.776 65.0624 123.744 64.0191 123.934 62.5965C124.694 60.4783 125.39 58.5182 126.023 56.6845C126.656 54.8509 127.162 53.207 127.605 51.7843C128.112 50.172 128.555 48.6545 128.935 47.2634C129.125 46.6628 129.251 46.1253 129.346 45.5879C129.441 45.0504 129.568 44.5446 129.694 43.9755C129.916 43.9123 130.169 43.8491 130.39 43.7858C130.612 43.7226 130.802 43.6594 130.992 43.6278C131.941 43.4065 132.764 43.2168 133.46 43.1219C134.157 43.0271 134.79 42.9322 135.296 42.869C135.802 42.8058 136.245 42.7742 136.625 42.7742C137.005 42.7742 137.321 42.7742 137.606 42.7109C137.891 42.7109 138.176 42.5845 138.397 42.3316C138.619 42.0787 138.809 41.7941 138.904 41.5096C138.999 41.2251 139.062 40.9405 139.03 40.6876C139.03 40.4347 138.904 40.3082 138.714 40.2766C138.492 40.2766 138.208 40.2134 137.796 40.1502C137.385 40.0869 136.847 40.0237 136.15 40.0237C135.486 40.0237 134.663 40.0553 133.682 40.1502C132.732 40.245 131.625 40.4347 130.39 40.7508C130.675 39.0437 130.834 37.6526 130.865 36.5777C130.897 35.5028 130.834 34.8706 130.675 34.6493C130.517 34.4912 130.296 34.4279 129.979 34.4596C129.663 34.4912 129.314 34.586 128.966 34.7125C128.618 34.8389 128.27 34.997 127.985 35.1867C127.669 35.3764 127.479 35.5661 127.384 35.7558C127.099 36.2932 126.751 37.1468 126.403 38.3798C126.023 39.6127 125.643 41.0354 125.263 42.6793C124.757 42.9006 124.251 43.0903 123.744 43.28C123.238 43.4697 122.7 43.6594 122.13 43.8175C121.371 44.0388 120.643 44.1968 120.01 44.3233C119.377 44.4497 118.744 44.513 118.206 44.6078C118.016 44.6394 117.826 44.7975 117.605 45.0188C117.383 45.2401 117.193 45.493 117.067 45.7775C116.908 46.0621 116.845 46.315 116.813 46.5679C116.782 46.8208 116.877 46.9789 117.13 47.0421C117.541 47.1686 118.174 47.2318 118.997 47.2634C119.852 47.295 120.738 47.2002 121.687 46.9789C122.099 46.8841 122.542 46.726 123.048 46.5363C123.554 46.3466 124.061 46.1569 124.567 45.9672C124.156 47.9273 123.776 49.9507 123.396 52.0372C123.016 54.1238 122.7 56.0839 122.415 57.8859C122.383 58.1704 122.32 58.455 122.289 58.7395C122.162 58.8659 122.067 58.9924 121.972 59.1821C121.782 59.4666 121.529 59.9725 121.149 60.6364C120.769 61.3003 120.326 62.059 119.788 62.9126C119.25 63.7662 118.681 64.6198 118.048 65.5366C117.415 66.4218 116.813 67.2754 116.18 68.0341C115.547 68.7929 114.914 69.4568 114.313 69.9942C113.712 70.5317 113.142 70.8794 112.667 70.9743C112.003 71.1324 111.56 71.1007 111.433 70.8794C111.275 70.6581 111.18 70.342 111.117 69.9626C111.053 69.3303 111.243 68.5716 111.655 67.6864C112.066 66.8012 112.478 65.9792 112.889 65.2521C113.554 64.0823 114.155 63.0074 114.63 62.0274C115.104 61.0473 115.294 60.1621 115.199 59.4034C115.168 59.024 115.104 58.613 115.009 58.1704C114.914 57.7278 114.756 57.3484 114.535 57.0007C114.313 56.6529 114.06 56.3684 113.743 56.1787C113.427 55.989 113.016 55.9574 112.509 56.0839C112.098 56.1787 111.781 56.2736 111.591 56.4C111.402 56.5265 111.053 56.6213 110.61 56.7478C110.294 56.811 110.041 56.8426 109.914 56.811C109.756 56.7794 109.661 56.7162 109.566 56.6845C109.882 56.0839 110.104 55.4832 110.231 54.8193C110.357 54.1554 110.389 53.6179 110.326 53.207C110.262 52.6063 110.072 52.0688 109.724 51.5946C109.376 51.0888 108.806 50.9623 107.984 51.152C107.54 51.2469 107.097 51.5946 106.623 52.1637C106.148 52.7327 105.737 53.365 105.325 54.0605C104.945 54.7877 104.629 55.4832 104.407 56.2103C104.186 56.9375 104.091 57.5065 104.154 57.8859C104.217 58.3601 104.312 58.6446 104.407 58.7395C104.534 58.8659 104.755 59.024 105.072 59.2769C104.882 59.6563 104.629 60.2886 104.217 61.1738C103.838 62.059 103.426 63.0391 102.951 64.1139C102.698 64.7462 102.413 65.4101 102.129 66.1057C101.939 66.3902 101.749 66.6431 101.527 66.9593C100.641 68.2238 99.6601 69.4568 98.6157 70.6898C97.5713 71.8911 96.4953 72.966 95.4192 73.9144C94.3115 74.8629 93.2671 75.4319 92.286 75.6848C91.8113 75.8113 91.3366 75.8429 90.8935 75.8113C90.4505 75.7797 90.039 75.6216 89.6909 75.4003C89.3428 75.1474 89.0263 74.7996 88.8047 74.2938C88.5832 73.8196 88.425 73.1873 88.3933 72.3969C88.8364 71.9543 89.3428 71.4485 89.9441 70.8794C90.5454 70.3104 91.1467 69.7097 91.8113 69.0774C92.4126 68.5084 93.014 67.8445 93.6786 67.1489C94.3432 66.4534 94.9761 65.6947 95.5458 64.9043C96.1471 64.0823 96.6535 63.2287 97.0649 62.3119C97.4763 61.3951 97.7612 60.4151 97.8245 59.4034C97.8878 58.4866 97.6662 57.8227 97.1599 57.3168C96.6535 56.8426 95.8623 56.7478 94.7229 57.0007C93.552 57.2852 92.381 57.9807 91.21 59.0556C90.134 60.0673 89.1529 61.2054 88.2667 62.5332C88.2034 62.5648 88.1401 62.6281 88.0452 62.6913C86.9059 63.5133 85.6716 64.2404 84.374 64.9043C83.0764 65.5682 81.8421 66.0424 80.6712 66.3586C80.5446 65.3469 80.323 64.5565 79.9749 63.9559C79.6268 63.3552 79.1837 63.1339 78.6773 63.2604C78.3608 63.3552 78.0127 63.5133 77.6013 63.7662C77.2215 64.0191 76.8734 64.3352 76.5253 64.683C76.2088 65.0308 75.9239 65.4418 75.6708 65.8844C75.4492 66.327 75.3226 66.7696 75.3226 67.2122C75.3226 67.8761 75.5125 68.3503 75.8923 68.6664C76.2721 68.9826 76.7468 69.1406 77.3165 69.1406C77.2215 70.0891 77 71.164 76.6202 72.3969C76.2404 73.6299 75.7973 74.8312 75.2593 75.9378C74.7213 77.0759 74.12 78.0559 73.4554 78.9095C72.7908 79.7631 72.0945 80.2689 71.3666 80.427C70.5121 80.6167 69.9424 80.0793 69.6259 78.7514C69.3411 77.4553 69.3411 75.6216 69.6259 73.3138C70.069 72.3021 70.5754 71.1007 71.1451 69.7413C71.7147 68.3819 72.2844 66.896 72.8857 65.2521C73.4554 63.6081 74.025 61.9009 74.5631 60.0357C75.1011 58.202 75.6075 56.2736 76.0505 54.2818C76.5569 52.1637 76.8417 50.4881 76.905 49.2235C76.9683 47.9589 76.9367 47.2634 76.7468 47.2002C76.6202 47.1686 76.4303 47.1686 76.1138 47.2002C75.829 47.2318 75.5125 47.3583 75.1644 47.5163C74.8162 47.6744 74.4681 47.8957 74.12 48.1486C73.7719 48.4016 73.4554 48.7493 73.2022 49.1603C72.9807 49.4764 72.6958 50.1087 72.2844 51.0888C71.873 52.0688 71.4615 53.2702 70.9868 54.6928C70.5121 56.1155 70.0057 57.6962 69.4994 59.435C68.993 61.1738 68.5183 62.9442 68.1068 64.7778C67.6954 66.6115 67.3473 68.4135 67.0308 70.2155C66.8093 71.575 66.651 72.8712 66.5877 74.0725C66.3978 74.357 66.2079 74.6416 66.0181 74.9261C65.2269 76.0958 64.3724 77.2656 63.4229 78.4669C62.5051 79.6367 61.5873 80.6799 60.6695 81.5651C59.7834 82.4503 59.0238 82.9878 58.4225 83.1142C58.201 83.1775 58.0111 83.1459 57.8528 83.051C57.6629 82.9562 57.5047 82.7349 57.3781 82.3871C57.2199 82.1026 57.1882 81.66 57.2515 81.0593C57.3148 80.4586 57.4098 79.7947 57.568 79.0992C57.7262 78.4037 57.9161 77.6449 58.106 76.9178C58.2959 76.1591 58.4858 75.4952 58.644 74.8945C58.8023 74.2938 59.0238 73.5034 59.3086 72.555C59.5935 71.6066 59.8783 70.6581 60.1631 69.7413C60.4163 68.8245 60.6379 68.0341 60.8278 67.3702C61.0176 66.7063 61.0809 66.3586 61.0493 66.327C60.986 66.2953 60.7645 66.3586 60.4163 66.4534C60.0366 66.5483 59.6568 66.7063 59.2137 66.896C58.7706 67.0857 58.3276 67.2754 57.9161 67.4967C57.5047 67.718 57.2199 67.9393 57.0616 68.1606C56.5869 68.8877 56.1755 69.9626 55.7957 71.322C55.4159 72.6815 55.1311 74.1041 54.8779 75.59C54.6564 77.0759 54.4665 78.4985 54.4032 79.858C54.3082 81.249 54.3082 82.2923 54.4032 83.051C54.4348 83.5885 54.5931 84.0311 54.8463 84.4737C55.0994 84.8847 55.4476 85.2324 55.8273 85.5169C56.2388 85.7699 56.6819 85.9596 57.1566 86.0544C57.6313 86.1492 58.1377 86.1176 58.644 85.9595C59.277 85.7699 60.0682 85.2008 61.0493 84.1891C62.0304 83.1775 63.0431 81.9761 64.0875 80.6483C64.942 79.5418 65.7649 78.3721 66.5244 77.2023C66.5877 78.5301 66.7143 79.605 66.9675 80.3954C67.3156 81.5651 67.7587 82.3555 68.2651 82.7981C68.7714 83.2407 69.2778 83.462 69.8158 83.4304C70.3539 83.3988 70.7653 83.3355 71.1134 83.2723C72.1578 83.0194 73.2022 82.3871 74.2782 81.3122C75.3543 80.2373 76.3354 78.9727 77.2215 77.5185C78.1077 76.0642 78.8672 74.5467 79.4685 72.9344C80.1015 71.322 80.4496 69.8678 80.5762 68.5716C81.1142 68.4451 81.6839 68.2554 82.3485 67.9709C82.9815 67.6864 83.6777 67.3386 84.374 66.9593C85.0386 66.5799 85.7032 66.1689 86.3995 65.6947C86.1463 66.2321 85.8615 66.8012 85.6399 67.3702C85.007 68.951 84.6272 70.4052 84.5006 71.733C84.3424 73.3454 84.4689 74.6732 84.8487 75.6848C85.2285 76.6965 85.7032 77.4869 86.3362 78.0243C86.9691 78.5618 87.6338 78.9095 88.3933 79.0676C89.1529 79.2257 89.8491 79.2257 90.4821 79.0676C91.7164 78.7831 92.9823 78.1508 94.3115 77.234C95.6091 76.2855 96.9067 75.1474 98.1726 73.8196C98.6157 73.3454 99.0588 72.8395 99.5018 72.3337C99.2803 72.8395 99.0904 73.3138 98.9322 73.7247C98.6157 74.4519 98.4258 74.9261 98.3308 75.1474C98.141 75.5584 98.1093 75.9061 98.141 76.1274C98.2043 76.3804 98.3308 76.5068 98.5207 76.5384C98.7106 76.57 98.9322 76.5068 99.1853 76.3487C99.4385 76.1907 99.6601 75.9061 99.8816 75.4952C99.9766 75.3371 100.198 74.8945 100.578 74.1674C100.958 73.4402 101.401 72.5234 101.939 71.4801C102.477 70.4052 103.046 69.2671 103.648 68.0658C104.249 66.8328 104.819 65.6631 105.388 64.5565C105.926 63.45 106.401 62.47 106.813 61.648C107.224 60.826 107.477 60.2886 107.604 60.0357C107.825 60.0357 108.078 60.0673 108.363 60.1305C108.616 60.1938 108.965 60.1938 109.344 60.0989C109.598 60.0357 109.819 59.9725 109.946 59.9408C110.072 59.9092 110.167 59.846 110.262 59.846C110.326 59.8144 110.42 59.8144 110.484 59.7828C110.547 59.7512 110.674 59.7195 110.864 59.6563C111.117 59.5931 111.307 59.6563 111.433 59.846C111.56 60.0357 111.623 60.2886 111.623 60.5731C111.623 61.0157 111.465 61.6164 111.148 62.3435C110.832 63.0707 110.42 63.9559 109.946 64.9992C109.724 65.505 109.503 66.0108 109.249 66.5166C108.996 67.0225 108.775 67.5599 108.553 68.0658C108.332 68.5716 108.142 69.0774 107.984 69.5516C107.825 70.0259 107.73 70.4368 107.699 70.8478C107.667 71.322 107.73 71.8279 107.857 72.3653C107.984 72.9028 108.205 73.3454 108.522 73.7247C108.838 74.1041 109.249 74.4203 109.724 74.61C110.231 74.7996 110.864 74.8313 111.623 74.6416C112.351 74.4835 113.142 74.0409 113.933 73.377C114.756 72.7131 115.547 71.8911 116.37 70.9743C117.193 70.0259 117.953 69.0142 118.681 67.9393C119.409 66.8644 120.105 65.8211 120.706 64.8095C121.054 64.2088 121.371 63.6713 121.687 63.1655C121.529 64.3985 121.434 65.2837 121.402 65.7579C121.339 66.3902 121.402 67.0225 121.529 67.718C121.687 68.4135 121.94 69.0142 122.289 69.52C122.668 70.0575 123.175 70.4368 123.808 70.6898C124.441 70.9427 125.263 70.9743 126.245 70.753C126.909 70.5949 127.764 69.9942 128.776 68.951C129.789 67.9077 130.802 66.6431 131.878 65.1572C132.258 64.6198 132.637 64.0507 133.017 63.4817C132.986 65.0624 133.27 66.2953 133.872 67.1489C134.536 68.0658 135.676 68.4451 137.258 68.2871C137.891 68.2238 138.524 68.0025 139.125 67.6231C139.727 67.2438 140.296 66.7696 140.834 66.2005C141.372 65.6314 141.847 64.9675 142.29 64.272C142.733 63.5449 143.145 62.8178 143.524 62.059C143.366 62.7545 143.24 63.4184 143.113 64.1139C142.986 64.8095 142.828 65.505 142.702 66.2321C142.322 67.8445 141.91 69.6465 141.467 71.6382C141.056 73.377 140.581 75.4319 140.075 77.7714C139.568 80.1109 138.967 82.7033 138.271 85.5802C138.397 85.8963 138.524 86.1492 138.714 86.3389C138.904 86.497 139.062 86.6551 139.189 86.7815C139.379 86.908 139.568 87.0028 139.758 87.0977C140.296 87.2241 140.803 87.1925 141.277 86.9396C141.752 86.6867 142.069 86.1492 142.227 85.3273C142.797 81.9129 143.303 78.8779 143.809 76.2223C144.284 73.5667 144.727 71.2904 145.075 69.3936C145.487 67.2438 145.866 65.3153 146.215 63.6397C146.563 61.6164 146.942 59.7828 147.354 58.1388C147.765 56.4949 148.113 55.009 148.493 53.7128C148.841 52.4166 149.158 51.3101 149.411 50.4249C149.664 49.5081 149.854 48.7809 149.949 48.2119C150.044 46.9789 150.012 46.1885 149.822 45.7459ZM90.672 62.9442C91.1467 62.1222 91.6214 61.4583 92.0962 60.9525C92.5709 60.4467 93.014 60.1621 93.3621 60.0673C93.6786 60.0041 93.9317 60.0673 94.1216 60.2886C94.3115 60.5099 94.3432 60.9209 94.3115 61.5532C94.2482 62.1222 93.9634 62.881 93.457 63.7978C92.9506 64.7146 92.0645 65.8527 90.7986 67.1805C90.3871 67.6232 89.9757 68.0658 89.5643 68.4451C89.1529 68.8561 88.7731 69.2355 88.425 69.5833C88.6465 68.1922 88.9313 66.9592 89.3428 65.8211C89.7542 64.7462 90.1973 63.7662 90.672 62.9442Z" fill="#C0F3D4"/>
<path fill-rule="evenodd" clip-rule="evenodd" d="M126.878 20.7703L124.156 19.3476L121.402 20.7703L121.94 17.7353L119.725 15.5539L122.795 15.1113L124.187 12.3608L125.517 15.1429L128.587 15.5855L126.371 17.7353L126.878 20.7703Z" fill="#C1272D"/>
<path fill-rule="evenodd" clip-rule="evenodd" d="M19.97 83.5252L17.2482 82.1025L14.4949 83.5252L15.0329 80.4902L12.8175 78.3088L15.8874 77.8978L17.2482 75.1157L18.6091 77.8978L21.679 78.3404L19.4636 80.4902L19.97 83.5252Z" fill="#C1272D"/>
</g>
<defs>
<clipPath id="clip0">
<rect width="154" height="103" fill="white"/>
</clipPath>
</defs>
</svg>
