<svg width="31" height="32" viewBox="0 0 31 32" fill="none" xmlns="http://www.w3.org/2000/svg">
<g clip-path="url(#clip0)">
<path d="M29.7134 4.43188C29.7134 4.43188 27.1167 5.96571 25.6729 6.40063C24.898 5.50956 23.868 4.878 22.7224 4.59135C21.5768 4.3047 20.3708 4.37681 19.2675 4.79791C18.1642 5.21901 17.2169 5.9688 16.5536 6.94586C15.8903 7.92292 15.5431 9.08011 15.559 10.2609V11.5477C13.2976 11.6063 11.0569 11.1048 9.03635 10.0878C7.01579 9.07077 5.27811 7.56984 3.97807 5.71865C3.97807 5.71865 -1.16899 17.2995 10.4119 22.4466C7.76184 24.2454 4.60493 25.1474 1.40454 25.0201C12.9854 31.4539 27.1398 25.0201 27.1398 10.2223C27.1398 9.86461 27.1038 9.50689 27.0369 9.15431C28.3494 7.85983 29.7134 4.43188 29.7134 4.43188Z" stroke="white" stroke-width="1.5" stroke-linecap="round" stroke-linejoin="round"/>
</g>
<defs>
<clipPath id="clip0">
<rect width="30.8824" height="30.8824" fill="white" transform="translate(0.117676 0.558594)"/>
</clipPath>
</defs>
</svg>
