<svg width="24" height="24" viewBox="0 0 24 24" fill="none" xmlns="http://www.w3.org/2000/svg">
<path d="M19.9758 5.56448C19.9616 5.35054 19.8207 5.16589 19.6181 5.09576C19.4155 5.02563 19.1906 5.08366 19.0472 5.24306C18.6785 5.65283 18.2126 5.9305 17.7397 6.0571C17.0821 5.4431 16.1984 5.06643 15.2273 5.06643C13.1433 5.06643 11.4552 6.7583 11.4552 8.8436V9.31273C8.26452 9.06615 6.55827 6.64239 6.09787 5.41275C6.02345 5.21399 5.83826 5.07827 5.62632 5.06716C5.41438 5.05605 5.21602 5.17166 5.12122 5.36154C4.00471 7.59801 3.83269 9.76717 4.64416 11.6143C5.35501 13.2323 6.78459 14.5212 8.81076 15.3752C7.88991 16.0277 6.34004 16.7998 4.53337 16.7998C4.29842 16.7998 4.09115 16.9535 4.02298 17.1784C3.95482 17.4032 4.04182 17.6462 4.23722 17.7766C5.9696 18.9333 7.78522 18.9332 9.47396 18.9331L9.52565 18.9331C14.7103 18.9331 18.912 14.7238 18.912 9.53309V9.02291C19.2996 8.62891 19.6014 8.22558 19.7864 7.70417C19.9928 7.12236 20.0344 6.44774 19.9758 5.56448Z" fill="#257972"/>
</svg>
